<svg width="24" height="24" viewBox="0 0 24 24" fill="none" xmlns="http://www.w3.org/2000/svg">
<path fill-rule="evenodd" clip-rule="evenodd" d="M5.6465 2.83645C5.84177 2.64119 6.15835 2.64119 6.35361 2.83645C6.54887 3.03171 6.54887 3.34829 6.35361 3.54356L3.52518 6.37198C3.32992 6.56725 3.01334 6.56725 2.81808 6.37198C2.62282 6.17672 2.62282 5.86014 2.81808 5.66488L5.6465 2.83645ZM18.3535 2.89242C18.1583 2.69716 17.8417 2.69716 17.6464 2.89242C17.4511 3.08768 17.4511 3.40426 17.6464 3.59953L20.4748 6.42795C20.6701 6.62321 20.9867 6.62321 21.1819 6.42795C21.3772 6.23269 21.3772 5.91611 21.1819 5.72085L18.3535 2.89242ZM12 4.69C7.58173 4.69 4.00001 8.27172 4.00001 12.69C4.00001 17.1083 7.58173 20.69 12 20.69C16.4183 20.69 20 17.1083 20 12.69C20 8.27172 16.4183 4.69 12 4.69ZM3.00001 12.69C3.00001 7.71944 7.02945 3.69 12 3.69C16.9706 3.69 21 7.71944 21 12.69C21 17.6606 16.9706 21.69 12 21.69C7.02945 21.69 3.00001 17.6606 3.00001 12.69ZM12.5 7.39999C12.5 7.12385 12.2762 6.89999 12 6.89999C11.7239 6.89999 11.5 7.12385 11.5 7.39999V12.6813C11.5 12.9575 11.7239 13.1813 12 13.1813H16.2813C16.5575 13.1813 16.7813 12.9575 16.7813 12.6813C16.7813 12.4052 16.5575 12.1813 16.2813 12.1813H12.5V7.39999Z" fill="black"/>
</svg>
