<svg width="24" height="24" viewBox="0 0 24 24" fill="none" xmlns="http://www.w3.org/2000/svg">
<path fill-rule="evenodd" clip-rule="evenodd" d="M6.6786 3H17.3214H17.3214C17.8633 3 18.3004 2.99999 18.6543 3.02891C19.0187 3.05868 19.3388 3.12159 19.635 3.27248C20.1054 3.51217 20.4878 3.89462 20.7275 4.36502C20.8784 4.66117 20.9413 4.98126 20.9711 5.34569C21 5.69963 21 6.1367 21 6.67859V17.3214C21 17.8633 21 18.3004 20.9711 18.6543C20.9413 19.0187 20.8784 19.3388 20.7275 19.635C20.4878 20.1054 20.1054 20.4878 19.635 20.7275C19.3388 20.8784 19.0187 20.9413 18.6543 20.9711C18.3004 21 17.8633 21 17.3214 21H6.67859C6.1367 21 5.69963 21 5.34569 20.9711C4.98126 20.9413 4.66117 20.8784 4.36502 20.7275C3.89462 20.4878 3.51217 20.1054 3.27248 19.635C3.12159 19.3388 3.05868 19.0187 3.02891 18.6543C2.99999 18.3004 3 17.8633 3 17.3214V17.3214V6.6786V6.67859C3 6.1367 2.99999 5.69963 3.02891 5.34569C3.05868 4.98126 3.12159 4.66117 3.27248 4.36502C3.51217 3.89462 3.89462 3.51217 4.36502 3.27248C4.66117 3.12159 4.98126 3.05868 5.34569 3.02891C5.69963 2.99999 6.1367 3 6.67859 3H6.6786ZM12 6.5C12.2761 6.5 12.5 6.72386 12.5 7V11.5H17C17.2761 11.5 17.5 11.7239 17.5 12C17.5 12.2761 17.2761 12.5 17 12.5H12.5V17C12.5 17.2761 12.2761 17.5 12 17.5C11.7239 17.5 11.5 17.2761 11.5 17V12.5H7C6.72386 12.5 6.5 12.2761 6.5 12C6.5 11.7239 6.72386 11.5 7 11.5H11.5V7C11.5 6.72386 11.7239 6.5 12 6.5Z" fill="black"/>
</svg>
