<svg width="24" height="24" viewBox="0 0 24 24" fill="none" xmlns="http://www.w3.org/2000/svg">
<path fill-rule="evenodd" clip-rule="evenodd" d="M2 9.74C2 9.608 2.048 9.476 2.108 9.344L5.036 2.732C5.24 2.276 5.612 2 6.116 2H6.224C6.728 2 7.088 2.276 7.292 2.732L10.22 9.344C10.28 9.476 10.316 9.596 10.316 9.716C10.316 10.208 9.932 10.604 9.44 10.604C9.008 10.604 8.72 10.352 8.552 9.968L7.988 8.648H4.292L3.704 10.028C3.548 10.388 3.236 10.604 2.852 10.604C2.372 10.604 2 10.22 2 9.74ZM7.304 7.016L6.14 4.244L4.976 7.016H7.304ZM2 17.368C2 19.78 3.836 21.688 6.308 21.688C7.652 21.688 8.54 21.292 9.296 20.632C9.464 20.488 9.608 20.26 9.608 19.972C9.608 19.504 9.212 19.12 8.744 19.12C8.528 19.12 8.336 19.204 8.192 19.324C7.664 19.744 7.148 19.984 6.368 19.984C4.928 19.984 3.932 18.784 3.932 17.344V17.32C3.932 15.88 4.952 14.704 6.368 14.704C7.028 14.704 7.568 14.92 8.084 15.304C8.216 15.388 8.384 15.484 8.636 15.484C9.14 15.484 9.548 15.088 9.548 14.584C9.548 14.26 9.38 13.996 9.188 13.852C8.492 13.336 7.64 13 6.38 13C3.8 13 2 14.956 2 17.344V17.368ZM14 13.924V20.476C14 20.992 14.408 21.4 14.924 21.4H17.276C19.916 21.4 21.74 19.564 21.74 17.2V17.176C21.74 14.812 19.916 13 17.276 13H14.924C14.408 13 14 13.408 14 13.924ZM17.276 19.732H15.848V14.668H17.276C18.788 14.668 19.808 15.712 19.808 17.2V17.224C19.808 18.712 18.788 19.732 17.276 19.732ZM14.576 3.05602V9.60802C14.576 10.124 14.984 10.532 15.5 10.532H18.5721C20.4681 10.532 21.716 9.76402 21.716 8.22802V8.20402C21.716 7.07602 21.116 6.51202 20.1441 6.14002C20.744 5.80402 21.2481 5.27602 21.2481 4.32802V4.30402C21.2481 3.72802 21.056 3.26002 20.6721 2.87602C20.1921 2.39602 19.4361 2.13202 18.476 2.13202H15.5C14.984 2.13202 14.576 2.54002 14.576 3.05602ZM18.08 5.52802H16.376V3.75202H18.2001C18.98 3.75202 19.4121 4.06402 19.4121 4.61602V4.64002C19.4121 5.26402 18.896 5.52802 18.08 5.52802ZM18.5721 8.91202H16.376V7.06402H18.5121C19.46 7.06402 19.8801 7.41202 19.8801 7.97602V8.00002C19.8801 8.62402 19.3881 8.91202 18.5721 8.91202Z" fill="black"/>
</svg>
