<svg width="24" height="24" viewBox="0 0 24 24" fill="none" xmlns="http://www.w3.org/2000/svg">
<path fill-rule="evenodd" clip-rule="evenodd" d="M6.70716 2.4782C6.31664 2.08767 5.68348 2.08767 5.29295 2.4782L2.46452 5.30662C2.074 5.69715 2.074 6.33031 2.46452 6.72084C2.85505 7.11136 3.48821 7.11136 3.87874 6.72084L6.70716 3.89241C7.09769 3.50189 7.09769 2.86872 6.70716 2.4782ZM18.7072 2.5342C18.3166 2.14367 17.6835 2.14367 17.2929 2.5342C16.9024 2.92472 16.9024 3.55788 17.2929 3.94841L20.1214 6.77684C20.5119 7.16736 21.1451 7.16736 21.5356 6.77684C21.9261 6.38631 21.9261 5.75315 21.5356 5.36262L18.7072 2.5342ZM3.00003 12.6853C3.00003 7.71474 7.02946 3.6853 12 3.6853C16.9706 3.6853 21 7.71474 21 12.6853C21 17.6559 16.9706 21.6853 12 21.6853C7.02946 21.6853 3.00003 17.6559 3.00003 12.6853ZM13 7.40399C13 6.85171 12.5523 6.40399 12 6.40399C11.4477 6.40399 11 6.85171 11 7.40399V12.6853C11 13.2376 11.4477 13.6853 12 13.6853H16.2813C16.8336 13.6853 17.2813 13.2376 17.2813 12.6853C17.2813 12.133 16.8336 11.6853 16.2813 11.6853H13V7.40399Z" fill="black"/>
</svg>
