<svg width="24" height="24" viewBox="0 0 24 24" fill="none" xmlns="http://www.w3.org/2000/svg">
<path fill-rule="evenodd" clip-rule="evenodd" d="M8.77734 6.08397C9.00711 6.23714 9.06919 6.54758 8.91602 6.77734L7.43425 9H16.5657L15.084 6.77734C14.9308 6.54758 14.9929 6.23714 15.2226 6.08397C15.4524 5.93079 15.7628 5.99288 15.916 6.22264L17.7676 9H20.5C20.7761 9 21 9.22386 21 9.5C21 9.77614 20.7761 10 20.5 10C20.0628 10 19.6815 10.2972 19.5747 10.7211L18.3386 15.6292C18.1622 16.3296 18.019 16.8982 17.8491 17.342C17.672 17.8047 17.4475 18.1839 17.0781 18.4719C16.7086 18.7598 16.2861 18.8849 15.7941 18.9437C15.3223 19 14.7359 19 14.0137 19H14.0137H14.0137H9.98634H9.98633H9.98632C9.26411 19 8.6777 19 8.20587 18.9437C7.71392 18.8849 7.2914 18.7598 6.92194 18.4719C6.55247 18.1839 6.32799 17.8047 6.15085 17.342C5.98096 16.8982 5.83775 16.3296 5.66138 15.6292L4.42526 10.7211C4.31848 10.2972 3.93721 10 3.5 10C3.22386 10 3 9.77614 3 9.5C3 9.22386 3.22386 9 3.5 9H6.23239L8.08397 6.22264C8.23714 5.99288 8.54758 5.93079 8.77734 6.08397ZM6.49278 10H5.20559C5.28798 10.1473 5.35223 10.3071 5.39498 10.4769L6.62349 15.3548C6.80931 16.0926 6.93871 16.603 7.08476 16.9845C7.226 17.3535 7.364 17.5485 7.53666 17.6831C7.70932 17.8177 7.93221 17.9039 8.32449 17.9507C8.7301 17.9992 9.25665 18 10.0175 18H13.9825C14.7434 18 15.2699 17.9992 15.6755 17.9507C16.0678 17.9039 16.2907 17.8177 16.4633 17.6831C16.636 17.5485 16.774 17.3535 16.9152 16.9845C17.0613 16.603 17.1907 16.0926 17.3765 15.3548L18.605 10.4769C18.6478 10.3071 18.712 10.1473 18.7944 10H17.5072C17.5027 10.0001 17.4982 10.0001 17.4937 10H6.50628C6.50179 10.0001 6.49728 10.0001 6.49278 10ZM9.36265 11.5192C9.62816 11.4434 9.90491 11.5971 9.98077 11.8626L10.9808 15.3626C11.0566 15.6281 10.9029 15.9049 10.6374 15.9808C10.3718 16.0566 10.0951 15.9029 10.0192 15.6374L9.01924 12.1374C8.94338 11.8718 9.09713 11.5951 9.36265 11.5192ZM13.0192 15.3626C12.9434 15.6281 13.0971 15.9049 13.3626 15.9808C13.6282 16.0566 13.9049 15.9029 13.9808 15.6374L14.9808 12.1374C15.0566 11.8718 14.9029 11.5951 14.6374 11.5192C14.3719 11.4434 14.0951 11.5971 14.0192 11.8626L13.0192 15.3626Z" fill="black"/>
</svg>
