<svg width="24" height="24" viewBox="0 0 24 24" fill="none" xmlns="http://www.w3.org/2000/svg">
<path fill-rule="evenodd" clip-rule="evenodd" d="M8.7774 6.08397C9.00717 6.23714 9.06925 6.54758 8.91608 6.77734L7.43431 8.99999H16.5658L15.084 6.77734C14.9308 6.54758 14.9929 6.23714 15.2227 6.08397C15.4525 5.93079 15.7629 5.99288 15.9161 6.22264L17.7676 8.99999H20.5C20.7761 8.99999 21 9.22385 21 9.49999C21 9.77613 20.7761 9.99999 20.5 9.99999C20.0628 9.99999 19.6815 10.2971 19.5747 10.7211L18.3386 15.6292C18.1623 16.3296 18.019 16.8982 17.8491 17.342C17.672 17.8047 17.4475 18.1839 17.0781 18.4718C16.7086 18.7598 16.2861 18.8849 15.7941 18.9436C15.3223 19 14.7359 19 14.0137 19H14.0137H14.0137H14.0137H9.98634H9.98633H9.98632H9.98631C9.26411 19 8.6777 19 8.20587 18.9436C7.71392 18.8849 7.2914 18.7598 6.92194 18.4718C6.55247 18.1839 6.32799 17.8047 6.15085 17.342C5.98096 16.8982 5.83775 16.3296 5.66138 15.6292L4.42526 10.7211C4.31848 10.2971 3.93721 9.99999 3.5 9.99999C3.22386 9.99999 3 9.77613 3 9.49999C3 9.22385 3.22386 8.99999 3.5 8.99999H6.23246L8.08403 6.22264C8.2372 5.99288 8.54764 5.93079 8.7774 6.08397ZM13.3626 15.9808C13.0971 15.9049 12.9434 15.6281 13.0192 15.3626L14.0192 11.8626C14.0951 11.5971 14.3719 11.4434 14.6374 11.5192C14.9029 11.5951 15.0566 11.8718 14.9808 12.1374L13.9808 15.6374C13.9049 15.9029 13.6282 16.0566 13.3626 15.9808ZM9.36265 11.5192C9.62816 11.4434 9.90491 11.5971 9.98077 11.8626L10.9808 15.3626C11.0566 15.6281 10.9029 15.9049 10.6374 15.9808C10.3718 16.0566 10.0951 15.9029 10.0192 15.6374L9.01924 12.1374C8.94338 11.8718 9.09713 11.5951 9.36265 11.5192Z" fill="black"/>
</svg>
