<svg width="24" height="24" viewBox="0 0 24 24" fill="none" xmlns="http://www.w3.org/2000/svg">
<path fill-rule="evenodd" clip-rule="evenodd" d="M12 2.5C10.9299 2.5 10.0642 3.28713 9.86251 4.30271C7.39741 5.181 5.63211 7.53516 5.63211 10.3028V12.9088C5.63211 13.7929 5.14082 14.6037 4.35717 15.013C3.80622 15.3007 3.89868 16.1159 4.50007 16.2729L5.07227 16.4224C9.61461 17.6085 14.3854 17.6085 18.9278 16.4224L19.5 16.2729C20.1013 16.1159 20.1938 15.3007 19.6429 15.013C18.8592 14.6037 18.3679 13.7929 18.3679 12.9088V10.3028C18.3679 7.53517 16.6026 5.18101 14.1375 4.30272C13.9359 3.28713 13.0702 2.5 12 2.5ZM8.82158 18.5479C8.93038 18.4182 9.09744 18.3523 9.26549 18.3729L9.28621 18.3754L9.34723 18.3827C9.40039 18.389 9.47754 18.3981 9.57297 18.4089C9.76394 18.4306 10.0276 18.4596 10.3185 18.4885C10.9082 18.5471 11.5838 18.6029 11.9999 18.6029C12.4161 18.6029 13.0917 18.5471 13.6813 18.4885C13.9723 18.4596 14.2359 18.4306 14.4269 18.4089C14.5223 18.3981 14.5995 18.389 14.6526 18.3827L14.7137 18.3754L14.7344 18.3729C14.9024 18.3523 15.0695 18.4182 15.1783 18.5479C15.2871 18.6776 15.3229 18.8536 15.2733 19.0155C14.8365 20.4435 13.5467 21.5 11.9999 21.5C10.4532 21.5 9.1634 20.4435 8.72653 19.0155C8.677 18.8536 8.71277 18.6776 8.82158 18.5479Z" fill="black"/>
</svg>
