<svg width="24" height="24" viewBox="0 0 24 24" fill="none" xmlns="http://www.w3.org/2000/svg">
<path fill-rule="evenodd" clip-rule="evenodd" d="M11.9988 3.51501C11.605 3.51501 11.2548 3.70161 11.0317 3.9912L11.0413 3.98978C10.8793 4.20161 10.7827 4.46854 10.7827 4.75861C10.7827 4.85801 10.7941 4.95468 10.8155 5.04736C8.34664 5.58866 6.49879 7.78841 6.49879 10.4198V12.6637C6.49879 13.6674 6.04909 14.6027 5.29837 15.2292C9.69868 16.3203 14.2989 16.3203 18.6992 15.2292C17.9485 14.6027 17.4988 13.6674 17.4988 12.6637V10.4198C17.4988 7.78834 15.6508 5.58854 13.1819 5.04731C13.2033 4.95465 13.2146 4.85799 13.2146 4.75861C13.2146 4.46853 13.118 4.20158 12.956 3.98975L12.9658 3.99119C12.7427 3.7016 12.3925 3.51501 11.9988 3.51501ZM11.9988 2.51501C10.9241 2.51501 10.0278 3.27864 9.82293 4.29287C7.30315 5.18777 5.49879 7.59305 5.49879 10.4198V12.6637C5.49879 13.5506 4.99774 14.3613 4.20455 14.7579C3.64189 15.0392 3.73295 15.8687 4.34323 16.0213L5.00369 16.1864C9.59641 17.3345 14.4012 17.3345 18.9939 16.1864L19.6543 16.0213C20.2646 15.8687 20.3557 15.0392 19.793 14.7579C18.9998 14.3613 18.4988 13.5506 18.4988 12.6637V10.4198C18.4988 7.59302 16.6944 5.18773 14.1746 4.29285C13.9697 3.27863 13.0734 2.51501 11.9988 2.51501ZM9.61813 18.3978C9.53408 18.1348 9.25271 17.9897 8.98967 18.0737C8.72663 18.1578 8.58153 18.4391 8.66558 18.7022C9.11646 20.1132 10.4382 21.1359 12.0001 21.1359C13.562 21.1359 14.8837 20.1132 15.3345 18.7022C15.4186 18.4391 15.2735 18.1578 15.0105 18.0737C14.7474 17.9897 14.466 18.1348 14.382 18.3978C14.0597 19.4065 13.1144 20.1359 12.0001 20.1359C10.8857 20.1359 9.94045 19.4065 9.61813 18.3978Z" fill="black"/>
</svg>
