<svg width="24" height="24" viewBox="0 0 24 24" fill="none" xmlns="http://www.w3.org/2000/svg">
<path fill-rule="evenodd" clip-rule="evenodd" d="M17.3214 4.5H6.6786H6.67859C6.1367 4.5 5.69963 4.49999 5.34569 4.52891C4.98126 4.55868 4.66117 4.62159 4.36502 4.77248C3.89462 5.01217 3.51217 5.39462 3.27248 5.86502C3.12159 6.16117 3.05868 6.48126 3.02891 6.84569C2.99999 7.19963 3 7.6367 3 8.1786V9.49993C3 9.77607 3.22386 9.99993 3.5 9.99993C4.60457 9.99993 5.5 10.8954 5.5 11.9999C5.5 13.1045 4.60457 13.9999 3.5 13.9999C3.22386 13.9999 3 14.2238 3 14.4999V15.8214C3 16.3633 2.99999 16.8004 3.02891 17.1543C3.05868 17.5187 3.12159 17.8388 3.27248 18.135C3.51217 18.6054 3.89462 18.9878 4.36502 19.2275C4.66117 19.3784 4.98126 19.4413 5.34569 19.4711C5.69961 19.5 6.13667 19.5 6.67853 19.5H6.67858H13.4614H17.3214H17.3215C17.8633 19.5 18.3004 19.5 18.6543 19.4711C19.0187 19.4413 19.3388 19.3784 19.635 19.2275C20.1054 18.9878 20.4878 18.6054 20.7275 18.135C20.8784 17.8388 20.9413 17.5187 20.9711 17.1543C21 16.8004 21 16.3633 21 15.8214V14.4999C21 14.2238 20.7761 13.9999 20.5 13.9999C19.3954 13.9999 18.5 13.1045 18.5 11.9999C18.5 10.8954 19.3954 9.99993 20.5 9.99993C20.7761 9.99993 21 9.77607 21 9.49993V8.17859C21 7.6367 21 7.19963 20.9711 6.84569C20.9413 6.48126 20.8784 6.16117 20.7275 5.86503C20.4878 5.39462 20.1054 5.01217 19.635 4.77248C19.3388 4.62159 19.0187 4.55868 18.6543 4.52891C18.3004 4.49999 17.8633 4.5 17.3214 4.5H17.3214ZM13.9614 18.5V17.25C13.9614 16.9739 13.7376 16.75 13.4614 16.75C13.1853 16.75 12.9614 16.9739 12.9614 17.25V18.5H6.7C6.1317 18.5 5.73554 18.4996 5.42712 18.4744C5.12454 18.4497 4.95069 18.4036 4.81901 18.3365C4.53677 18.1927 4.3073 17.9632 4.16349 17.681C4.0964 17.5493 4.05031 17.3755 4.02559 17.0729C4.00039 16.7645 4 16.3683 4 15.8V14.9585C5.41886 14.7204 6.5 13.4864 6.5 11.9999C6.5 10.5134 5.41886 9.27945 4 9.04141V8.2C4 7.6317 4.00039 7.23554 4.02559 6.92712C4.05031 6.62454 4.0964 6.45069 4.16349 6.31901C4.3073 6.03677 4.53677 5.8073 4.81901 5.66349C4.95069 5.5964 5.12454 5.55031 5.42712 5.52559C5.73554 5.50039 6.1317 5.5 6.7 5.5H12.9614V6.75001C12.9614 7.02615 13.1853 7.25001 13.4614 7.25001C13.7376 7.25001 13.9614 7.02615 13.9614 6.75001V5.5H17.3C17.8683 5.5 18.2645 5.50039 18.5729 5.52559C18.8755 5.55031 19.0493 5.5964 19.181 5.66349C19.4632 5.8073 19.6927 6.03677 19.8365 6.31901C19.9036 6.45069 19.9497 6.62454 19.9744 6.92712C19.9996 7.23554 20 7.6317 20 8.2V9.04141C18.5811 9.27945 17.5 10.5134 17.5 11.9999C17.5 13.4864 18.5811 14.7204 20 14.9585V15.8C20 16.3683 19.9996 16.7645 19.9744 17.0729C19.9497 17.3755 19.9036 17.5493 19.8365 17.681C19.6927 17.9632 19.4632 18.1927 19.181 18.3365C19.0493 18.4036 18.8755 18.4497 18.5729 18.4744C18.2645 18.4996 17.8683 18.5 17.3 18.5H13.9614ZM12.9614 13.75C12.9614 14.0261 13.1853 14.25 13.4614 14.25C13.7376 14.25 13.9614 14.0261 13.9614 13.75V10.25C13.9614 9.97386 13.7376 9.75 13.4614 9.75C13.1853 9.75 12.9614 9.97386 12.9614 10.25V13.75Z" fill="black"/>
</svg>
