<svg width="24" height="24" viewBox="0 0 24 24" fill="none" xmlns="http://www.w3.org/2000/svg">
<path fill-rule="evenodd" clip-rule="evenodd" d="M3.5 12C3.5 7.30558 7.30558 3.5 12 3.5C16.6944 3.5 20.5 7.30558 20.5 12C20.5 16.6944 16.6944 20.5 12 20.5C7.30558 20.5 3.5 16.6944 3.5 12ZM12 2.5C6.75329 2.5 2.5 6.75329 2.5 12C2.5 17.2467 6.75329 21.5 12 21.5C17.2467 21.5 21.5 17.2467 21.5 12C21.5 6.75329 17.2467 2.5 12 2.5ZM12.5 6.71869C12.5 6.44255 12.2761 6.21869 12 6.21869C11.7239 6.21869 11.5 6.44255 11.5 6.71869V12C11.5 12.2761 11.7239 12.5 12 12.5H16.2813C16.5575 12.5 16.7813 12.2761 16.7813 12C16.7813 11.7239 16.5575 11.5 16.2813 11.5H12.5V6.71869Z" fill="black"/>
</svg>
