<svg width="24" height="24" viewBox="0 0 24 24" fill="none" xmlns="http://www.w3.org/2000/svg">
<path fill-rule="evenodd" clip-rule="evenodd" d="M6.6786 4.5H17.3214H17.3214C17.8633 4.5 18.3004 4.49999 18.6543 4.52891C19.0187 4.55868 19.3388 4.62159 19.635 4.77248C20.1054 5.01217 20.4878 5.39462 20.7275 5.86503C20.8784 6.16117 20.9413 6.48126 20.9711 6.84569C21 7.19963 21 7.6367 21 8.17859V9.49993C21 9.77607 20.7761 9.99993 20.5 9.99993C19.3954 9.99993 18.5 10.8954 18.5 11.9999C18.5 13.1045 19.3954 13.9999 20.5 13.9999C20.7761 13.9999 21 14.2238 21 14.4999V15.8214C21 16.3633 21 16.8004 20.9711 17.1543C20.9413 17.5187 20.8784 17.8388 20.7275 18.135C20.4878 18.6054 20.1054 18.9878 19.635 19.2275C19.3388 19.3784 19.0187 19.4413 18.6543 19.4711C18.3004 19.5 17.8633 19.5 17.3215 19.5H17.3214H13.9614V17.25C13.9614 16.9739 13.7376 16.75 13.4614 16.75C13.1853 16.75 12.9614 16.9739 12.9614 17.25V19.5H6.67858H6.67853C6.13667 19.5 5.69961 19.5 5.34569 19.4711C4.98126 19.4413 4.66117 19.3784 4.36502 19.2275C3.89462 18.9878 3.51217 18.6054 3.27248 18.135C3.12159 17.8388 3.05868 17.5187 3.02891 17.1543C2.99999 16.8004 3 16.3633 3 15.8214V14.4999C3 14.2238 3.22386 13.9999 3.5 13.9999C4.60457 13.9999 5.5 13.1045 5.5 11.9999C5.5 10.8954 4.60457 9.99993 3.5 9.99993C3.22386 9.99993 3 9.77607 3 9.49993V8.1786C3 7.6367 2.99999 7.19963 3.02891 6.84569C3.05868 6.48126 3.12159 6.16117 3.27248 5.86502C3.51217 5.39462 3.89462 5.01217 4.36502 4.77248C4.66117 4.62159 4.98126 4.55868 5.34569 4.52891C5.69962 4.49999 6.1367 4.5 6.67858 4.5H6.67859H6.6786ZM12.9614 13.75C12.9614 14.0261 13.1853 14.25 13.4614 14.25C13.7376 14.25 13.9614 14.0261 13.9614 13.75V10.25C13.9614 9.97386 13.7376 9.75 13.4614 9.75C13.1853 9.75 12.9614 9.97386 12.9614 10.25V13.75ZM12.9614 6.75001C12.9614 7.02615 13.1853 7.25001 13.4614 7.25001C13.7376 7.25001 13.9614 7.02615 13.9614 6.75001V4.50001L12.9614 4.50001V6.75001Z" fill="black"/>
</svg>
