<svg width="24" height="24" viewBox="0 0 24 24" fill="none" xmlns="http://www.w3.org/2000/svg">
<path fill-rule="evenodd" clip-rule="evenodd" d="M9.49071 3.50001L9.46143 3.5C9.24369 3.49997 9.09384 3.49995 8.95158 3.51624C8.21184 3.60097 7.54836 4.01103 7.14175 4.63478C7.06356 4.75473 6.99656 4.88877 6.89922 5.08353L6.8992 5.08356L6.88612 5.10973L6.06525 6.75148C5.83587 7.21022 5.367 7.50001 4.8541 7.50001C3.55397 7.50001 2.5 8.55397 2.5 9.85411V14.8837C2.5 15.8636 2.49999 16.6354 2.55981 17.2522C2.62092 17.8823 2.74813 18.4032 3.03647 18.8621C3.31621 19.3073 3.69267 19.6838 4.13789 19.9635C4.59677 20.2519 5.11766 20.3791 5.74776 20.4402C6.36459 20.5 7.1364 20.5 8.11624 20.5H15.8838C16.8636 20.5 17.6354 20.5 18.2522 20.4402C18.8823 20.3791 19.4032 20.2519 19.8621 19.9635C20.3073 19.6838 20.6838 19.3073 20.9635 18.8621C21.2519 18.4032 21.3791 17.8823 21.4402 17.2522C21.5 16.6354 21.5 15.8636 21.5 14.8838V9.85411C21.5 8.55397 20.446 7.50001 19.1459 7.50001C18.633 7.50001 18.1641 7.21022 17.9348 6.75148L17.1139 5.10969L17.1007 5.08344L17.1007 5.08342C17.0034 4.88873 16.9364 4.75471 16.8582 4.63478C16.4516 4.01103 15.7882 3.60097 15.0484 3.51624C14.9062 3.49995 14.7563 3.49997 14.5386 3.5L9.49071 3.50001ZM8.5 13C8.5 11.067 10.067 9.50001 12 9.50001C13.933 9.50001 15.5 11.067 15.5 13C15.5 14.933 13.933 16.5 12 16.5C10.067 16.5 8.5 14.933 8.5 13Z" fill="black"/>
</svg>
