<svg width="24" height="24" viewBox="0 0 24 24" fill="none" xmlns="http://www.w3.org/2000/svg">
<path fill-rule="evenodd" clip-rule="evenodd" d="M16.9647 2.91516H9.32191C8.78001 2.91516 8.34294 2.91515 7.989 2.94407C7.62457 2.97385 7.30448 3.03675 7.00833 3.18765C6.53793 3.42733 6.15548 3.80978 5.91579 4.28019C5.7649 4.57633 5.70199 4.89642 5.67222 5.26085C5.6433 5.61479 5.64331 6.05187 5.64331 6.59376V14.2366C5.64331 14.7785 5.6433 15.2155 5.67222 15.5695C5.70199 15.9339 5.7649 16.254 5.91579 16.5501C6.15548 17.0205 6.53793 17.403 7.00833 17.6427C7.30448 17.7936 7.62457 17.8565 7.989 17.8863C8.34292 17.9152 8.77998 17.9152 9.32184 17.9152H9.32189H16.9647H16.9648C17.5066 17.9152 17.9437 17.9152 18.2976 17.8863C18.662 17.8565 18.9821 17.7936 19.2783 17.6427C19.7487 17.403 20.1311 17.0205 20.3708 16.5501C20.5217 16.254 20.5846 15.9339 20.6144 15.5695C20.6433 15.2156 20.6433 14.7786 20.6433 14.2368V14.2368V14.2367V14.2366V6.59375V6.5936V6.59356V6.59351C20.6433 6.05173 20.6433 5.61474 20.6144 5.26085C20.5846 4.89642 20.5217 4.57633 20.3708 4.28019C20.1311 3.80978 19.7487 3.42733 19.2783 3.18765C18.9821 3.03675 18.662 2.97385 18.2976 2.94407C17.9437 2.91515 17.5066 2.91516 16.9647 2.91516ZM3.61367 5.91516C3.07775 5.91516 2.64331 6.34961 2.64331 6.88552V17.2366C2.64331 17.7785 2.6433 18.2155 2.67222 18.5695C2.70199 18.9339 2.7649 19.254 2.91579 19.5501C3.15548 20.0205 3.53793 20.403 4.00833 20.6427C4.30448 20.7936 4.62457 20.8565 4.989 20.8863C5.3429 20.9152 5.77993 20.9152 6.32175 20.9152H6.32189H16.6975C17.2199 20.9152 17.6433 20.4917 17.6433 19.9694C17.6433 19.4471 17.2199 19.0236 16.6975 19.0236H7.28402C6.71572 19.0236 6.31956 19.0232 6.01114 18.998C5.70856 18.9733 5.53471 18.9272 5.40304 18.8601C5.12079 18.7163 4.89132 18.4869 4.74751 18.2046C4.68042 18.0729 4.63433 17.8991 4.60961 17.5965C4.58441 17.2881 4.58402 16.8919 4.58402 16.3236V6.88552C4.58402 6.3496 4.14958 5.91516 3.61367 5.91516Z" fill="black"/>
</svg>
