<svg width="24" height="24" viewBox="0 0 24 24" fill="none" xmlns="http://www.w3.org/2000/svg">
<path fill-rule="evenodd" clip-rule="evenodd" d="M5.81719 5.07762C5.64541 5.05801 5.41786 5.05725 5.05848 5.05725H3.5C3.22386 5.05725 3 4.8334 3 4.55725C3 4.28111 3.22386 4.05725 3.5 4.05725H5.05848L5.08469 4.05725H5.08472C5.41014 4.05723 5.69537 4.05722 5.93062 4.08408C6.18494 4.11311 6.43071 4.17779 6.65631 4.34039C6.88191 4.50299 7.02098 4.71569 7.12895 4.94778C7.22882 5.16247 7.31901 5.43308 7.4219 5.74182L7.87924 7.11384C8.44649 7.05722 9.15663 7.05724 10.0069 7.05725H15.3745H15.3745C16.4866 7.05724 17.3788 7.05722 18.0445 7.15606C18.7236 7.25691 19.3124 7.48028 19.645 8.0534C19.9776 8.62652 19.8794 9.24854 19.63 9.88825C19.3856 10.5153 18.9429 11.2899 18.3911 12.2555L18.0734 12.8115L18.0734 12.8116C17.8029 13.2849 17.5819 13.6717 17.3689 13.9715C17.1462 14.2849 16.9103 14.5361 16.5941 14.7195C16.278 14.903 15.9429 14.9832 15.5603 15.0211C15.267 15.0501 14.9226 15.0558 14.5169 15.057L14.5 15.0573L14.2035 15.0573H11.11L9.11133 15.0573C8.94093 15.0573 8.88181 15.0576 8.83119 15.0613C8.26741 15.1029 7.77488 15.4579 7.55717 15.9796C7.53762 16.0264 7.51862 16.0824 7.46474 16.2441C7.41367 16.3973 7.40267 16.4328 7.39839 16.4529C7.33669 16.742 7.53795 17.0213 7.83175 17.0541C7.85213 17.0564 7.88936 17.0573 8.05086 17.0573H17.5C17.7761 17.0573 18 17.2811 18 17.5573C18 17.8334 17.7761 18.0573 17.5 18.0573H8.05086L8.02345 18.0573C7.90467 18.0573 7.80462 18.0574 7.72048 18.0479C6.8391 17.9493 6.23531 17.1115 6.42041 16.2442C6.43808 16.1614 6.46976 16.0665 6.50738 15.9538L6.51605 15.9278L6.52224 15.9093L6.52224 15.9092L6.52226 15.9092L6.52228 15.9091C6.56763 15.7731 6.59875 15.6796 6.63431 15.5945C6.89427 14.9715 7.38933 14.4912 7.99472 14.2434C7.86887 14.0943 7.75868 13.927 7.6547 13.7421C7.45283 13.3833 7.25496 12.9216 7.01222 12.3552L6.81577 11.8968C6.42527 10.9857 6.10982 10.2496 5.95357 9.65734C5.79266 9.04735 5.76682 8.46925 6.10508 7.95627C6.30578 7.65191 6.57804 7.45632 6.89663 7.32828L6.48151 6.08291C6.36786 5.74198 6.29519 5.52635 6.22226 5.36958C6.15475 5.22447 6.10788 5.17779 6.0716 5.15163C6.03531 5.12548 5.9762 5.09578 5.81719 5.07762ZM11.1375 14.0573H14.1787C14.7547 14.0573 15.1507 14.0567 15.4618 14.0259C15.7619 13.9962 15.9428 13.9413 16.0922 13.8546C16.2416 13.7679 16.379 13.6381 16.5537 13.3923C16.7347 13.1374 16.9317 12.7939 17.2175 12.2937L17.501 11.7976C18.0797 10.7849 18.4841 10.0746 18.6983 9.52501C18.9109 8.97989 18.8811 8.72931 18.7801 8.55533C18.6791 8.38134 18.4763 8.23115 17.8976 8.14522C17.3141 8.05859 16.4968 8.05725 15.3304 8.05725H10.0496C9.00556 8.05725 8.27939 8.05857 7.75537 8.13615C7.24079 8.21232 7.04627 8.34548 6.93992 8.50676C6.83357 8.66804 6.78781 8.89929 6.92049 9.40227C7.05561 9.91448 7.34045 10.5824 7.75171 11.5421L7.92053 11.936C8.17674 12.5338 8.35393 12.9455 8.52625 13.2518C8.69262 13.5476 8.83269 13.7038 8.99301 13.8095C9.15333 13.9152 9.35211 13.9824 9.68947 14.0189C10.0389 14.0566 10.4871 14.0573 11.1375 14.0573ZM18 20.0573C18 20.6095 17.5523 21.0573 17 21.0573C16.4477 21.0573 16 20.6095 16 20.0573C16 19.505 16.4477 19.0573 17 19.0573C17.5523 19.0573 18 19.505 18 20.0573ZM9 21.0573C9.55228 21.0573 10 20.6095 10 20.0573C10 19.505 9.55228 19.0573 9 19.0573C8.44772 19.0573 8 19.505 8 20.0573C8 20.6095 8.44772 21.0573 9 21.0573Z" fill="black"/>
</svg>
