<svg width="24" height="24" viewBox="0 0 24 24" fill="none" xmlns="http://www.w3.org/2000/svg">
<path fill-rule="evenodd" clip-rule="evenodd" d="M3.54769 19.7452C3.35243 19.9405 3.35243 20.2571 3.54769 20.4523C3.74295 20.6476 4.05954 20.6476 4.2548 20.4523L12 12.7071L19.7452 20.4523C19.9405 20.6476 20.2571 20.6476 20.4523 20.4523C20.6476 20.2571 20.6476 19.9405 20.4523 19.7452L12.7071 12L20.4523 4.2548C20.6476 4.05954 20.6476 3.74295 20.4523 3.54769C20.257 3.35243 19.9405 3.35243 19.7452 3.54769L12 11.2929L4.25481 3.5477C4.05955 3.35244 3.74297 3.35244 3.54771 3.5477C3.35244 3.74296 3.35244 4.05954 3.54771 4.2548L11.2929 12L3.54769 19.7452Z" fill="black"/>
</svg>
