<svg width="24" height="24" viewBox="0 0 24 24" fill="none" xmlns="http://www.w3.org/2000/svg">
<path fill-rule="evenodd" clip-rule="evenodd" d="M5.05848 5.05725C5.41786 5.05725 5.64541 5.05801 5.81719 5.07762C5.9762 5.09578 6.03531 5.12548 6.0716 5.15163C6.10788 5.17779 6.15475 5.22447 6.22226 5.36958C6.29519 5.52635 6.36786 5.74198 6.48151 6.08291L6.89663 7.32828C6.57804 7.45632 6.30578 7.65191 6.10508 7.95627C5.76682 8.46925 5.79266 9.04735 5.95357 9.65734C6.10982 10.2496 6.42527 10.9857 6.81576 11.8968L6.81577 11.8968L7.01222 12.3552C7.25496 12.9216 7.45283 13.3833 7.6547 13.7421C7.75868 13.927 7.86887 14.0943 7.99472 14.2434C7.38933 14.4912 6.89427 14.9715 6.63431 15.5945C6.59875 15.6796 6.56763 15.7731 6.52228 15.9091L6.52226 15.9092L6.52224 15.9092L6.52224 15.9093L6.51605 15.9278L6.50738 15.9538C6.46976 16.0665 6.43808 16.1614 6.42041 16.2442C6.23531 17.1115 6.8391 17.9493 7.72048 18.0479C7.80462 18.0574 7.90467 18.0573 8.02345 18.0573L8.05086 18.0573H17.5C17.7761 18.0573 18 17.8334 18 17.5573C18 17.2811 17.7761 17.0573 17.5 17.0573H8.05086C7.88936 17.0573 7.85213 17.0564 7.83175 17.0541C7.53795 17.0213 7.33669 16.742 7.39839 16.4529C7.40267 16.4328 7.41367 16.3973 7.46474 16.2441C7.51862 16.0824 7.53762 16.0264 7.55717 15.9796C7.77488 15.4579 8.26741 15.1029 8.83119 15.0613C8.88181 15.0576 8.94093 15.0573 9.11133 15.0573L11.11 15.0573H14.2035L14.5 15.0573L14.5169 15.057C14.9226 15.0558 15.267 15.0501 15.5603 15.0211C15.9429 14.9832 16.278 14.903 16.5941 14.7195C16.9103 14.5361 17.1462 14.2849 17.3689 13.9715C17.5819 13.6717 17.8029 13.2849 18.0734 12.8115L18.3911 12.2555L18.3912 12.2554C18.9429 11.2899 19.3856 10.5153 19.63 9.88825C19.8794 9.24854 19.9776 8.62652 19.645 8.0534C19.3124 7.48028 18.7236 7.25691 18.0445 7.15606C17.3788 7.05722 16.4866 7.05724 15.3745 7.05725H15.3745H10.0069C9.15663 7.05724 8.44649 7.05722 7.87924 7.11384L7.4219 5.74182C7.31901 5.43308 7.22882 5.16247 7.12895 4.94778C7.02098 4.71569 6.88191 4.50299 6.65631 4.34039C6.43071 4.17779 6.18494 4.11311 5.93062 4.08408C5.69537 4.05722 5.41014 4.05723 5.08472 4.05725H5.08469L5.05848 4.05725H3.5C3.22386 4.05725 3 4.28111 3 4.55725C3 4.8334 3.22386 5.05725 3.5 5.05725H5.05848ZM18 20.0573C18 20.6095 17.5523 21.0573 17 21.0573C16.4477 21.0573 16 20.6095 16 20.0573C16 19.505 16.4477 19.0573 17 19.0573C17.5523 19.0573 18 19.505 18 20.0573ZM9 21.0573C9.55228 21.0573 10 20.6095 10 20.0573C10 19.505 9.55228 19.0573 9 19.0573C8.44772 19.0573 8 19.505 8 20.0573C8 20.6095 8.44772 21.0573 9 21.0573Z" fill="black"/>
</svg>
