<svg fill="none" height="24" viewBox="0 0 24 24" width="24"
    xmlns="http://www.w3.org/2000/svg">
    <path clip-rule="evenodd"
        d="M3.19414 19.3917C2.80361 19.7822 2.80361 20.4153 3.19414 20.8059C3.58466 21.1964 4.21783 21.1964 4.60835 20.8059L12 13.4142L19.3917 20.8059C19.7822 21.1964 20.4154 21.1964 20.8059 20.8059C21.1964 20.4153 21.1964 19.7822 20.8059 19.3917L13.4142 12L20.8059 4.60835C21.1964 4.21783 21.1964 3.58466 20.8059 3.19414C20.4153 2.80361 19.7822 2.80362 19.3917 3.19414L12 10.5858L4.60838 3.19414C4.21786 2.80362 3.58469 2.80362 3.19417 3.19414C2.80364 3.58467 2.80364 4.21783 3.19417 4.60836L10.5858 12L3.19414 19.3917Z"
        fill="black" fill-rule="evenodd" />
</svg>
