<svg width="24" height="24" viewBox="0 0 24 24" fill="none" xmlns="http://www.w3.org/2000/svg">
<path fill-rule="evenodd" clip-rule="evenodd" d="M2.5 12.0001C2.5 6.75342 6.75329 2.50012 12 2.50012C17.2467 2.50012 21.5 6.75342 21.5 12.0001C21.5 17.2468 17.2467 21.5001 12 21.5001C6.75329 21.5001 2.5 17.2468 2.5 12.0001ZM13 6.71881C13 6.16653 12.5523 5.71881 12 5.71881C11.4477 5.71881 11 6.16653 11 6.71881V12.0001C11 12.5524 11.4477 13.0001 12 13.0001H16.2813C16.8336 13.0001 17.2813 12.5524 17.2813 12.0001C17.2813 11.4478 16.8336 11.0001 16.2813 11.0001H13V6.71881Z" fill="black"/>
</svg>
