<svg width="24" height="24" viewBox="0 0 24 24" fill="none" xmlns="http://www.w3.org/2000/svg">
<path fill-rule="evenodd" clip-rule="evenodd" d="M6 2C3.79086 2 2 3.79086 2 6V18C2 20.2091 3.79086 22 6 22H18C20.2091 22 22 20.2091 22 18V6C22 3.79086 20.2091 2 18 2H6ZM17.6403 8.78349C17.935 8.42993 17.8872 7.90446 17.5336 7.60982C17.1801 7.31518 16.6546 7.36295 16.36 7.71652L10.6941 14.5155L7.5894 11.4107C7.26396 11.0853 6.73632 11.0853 6.41089 11.4107C6.08545 11.7362 6.08545 12.2638 6.41089 12.5893L10.1609 16.3393C10.3264 16.5048 10.554 16.5931 10.7879 16.5825C11.0218 16.5719 11.2404 16.4634 11.3903 16.2835L17.6403 8.78349Z" fill="black"/>
</svg>
