<svg width="24" height="24" viewBox="0 0 24 24" fill="none" xmlns="http://www.w3.org/2000/svg">
<path fill-rule="evenodd" clip-rule="evenodd" d="M9.49071 3.50001L9.46143 3.5C9.24369 3.49997 9.09384 3.49995 8.95158 3.51624C8.21184 3.60097 7.54836 4.01103 7.14175 4.63478C7.06356 4.75474 6.99656 4.88878 6.89921 5.08354L6.89921 5.08355L6.88612 5.10973L6.06525 6.75148C5.83587 7.21022 5.367 7.50001 4.8541 7.50001C3.55397 7.50001 2.5 8.55397 2.5 9.85411V14.8837C2.5 15.8636 2.49999 16.6354 2.55981 17.2522C2.62092 17.8823 2.74813 18.4032 3.03647 18.8621C3.31621 19.3073 3.69267 19.6838 4.13789 19.9635C4.59677 20.2519 5.11766 20.3791 5.74776 20.4402C6.36459 20.5 7.1364 20.5 8.11624 20.5H15.8838C16.8636 20.5 17.6354 20.5 18.2522 20.4402C18.8823 20.3791 19.4032 20.2519 19.8621 19.9635C20.3073 19.6838 20.6838 19.3073 20.9635 18.8621C21.2519 18.4032 21.3791 17.8823 21.4402 17.2522C21.5 16.6354 21.5 15.8636 21.5 14.8838V9.85411C21.5 8.55397 20.446 7.50001 19.1459 7.50001C18.633 7.50001 18.1641 7.21022 17.9348 6.75148L17.1008 5.08354C17.0034 4.88877 16.9364 4.75473 16.8582 4.63478C16.4516 4.01103 15.7882 3.60097 15.0484 3.51624C14.9062 3.49995 14.7563 3.49997 14.5386 3.5L9.49071 3.50001ZM9.06537 4.50975C9.14367 4.50078 9.23272 4.50001 9.49071 4.50001H14.5093C14.7673 4.50001 14.8563 4.50078 14.9346 4.50975C15.3785 4.56059 15.7766 4.80662 16.0205 5.18087C16.0636 5.24689 16.1041 5.32619 16.2195 5.55695L17.0403 7.19869C17.4391 7.99622 18.2542 8.50001 19.1459 8.50001C19.8937 8.50001 20.5 9.10626 20.5 9.85411V14.8571C20.5 15.8694 20.4995 16.5928 20.4449 17.1557C20.391 17.711 20.2883 18.0572 20.1168 18.3301C19.917 18.6481 19.6481 18.917 19.3301 19.1168C19.0572 19.2883 18.7109 19.391 18.1557 19.4449C17.5928 19.4995 16.8694 19.5 15.8571 19.5H8.14286C7.13059 19.5 6.40722 19.4995 5.84429 19.4449C5.28905 19.391 4.94285 19.2883 4.66992 19.1168C4.35191 18.917 4.08301 18.6481 3.88319 18.3301C3.7117 18.0572 3.60899 17.711 3.55514 17.1557C3.50055 16.5928 3.5 15.8694 3.5 14.8571V9.85411C3.5 9.10626 4.10625 8.50001 4.8541 8.50001C5.74577 8.50001 6.56091 7.99622 6.95967 7.19869L7.78055 5.55695C7.89593 5.32619 7.93644 5.24689 7.97948 5.18087C8.22344 4.80662 8.62153 4.56059 9.06537 4.50975ZM8.5 13C8.5 11.067 10.067 9.5 12 9.5C13.933 9.5 15.5 11.067 15.5 13C15.5 14.933 13.933 16.5 12 16.5C10.067 16.5 8.5 14.933 8.5 13ZM12 8.5C9.51472 8.5 7.5 10.5147 7.5 13C7.5 15.4853 9.51472 17.5 12 17.5C14.4853 17.5 16.5 15.4853 16.5 13C16.5 10.5147 14.4853 8.5 12 8.5Z" fill="black"/>
</svg>
