<svg width="24" height="24" viewBox="0 0 24 24" fill="none" xmlns="http://www.w3.org/2000/svg">
<path fill-rule="evenodd" clip-rule="evenodd" d="M17.3214 3H9.6786C9.1367 3 8.69963 2.99999 8.34569 3.02891C7.98126 3.05868 7.66117 3.12159 7.36502 3.27248C6.89462 3.51217 6.51217 3.89462 6.27248 4.36502C6.12159 4.66117 6.05868 4.98126 6.02891 5.34569C6.01317 5.53828 6.006 5.75548 6.00273 6.0008C5.76525 6.00225 5.55911 6.00635 5.37932 6.01789C5.09282 6.03629 4.83905 6.07506 4.59732 6.16866C3.9413 6.42266 3.42266 6.9413 3.16865 7.59732C3.07506 7.83905 3.03629 8.09282 3.01789 8.37932C2.99999 8.65803 3 9.00005 3 9.42403V17.3214C3 17.8633 2.99999 18.3004 3.02891 18.6543C3.05868 19.0187 3.12159 19.3388 3.27248 19.635C3.51217 20.1054 3.89462 20.4878 4.36502 20.7275C4.66117 20.8784 4.98126 20.9413 5.34569 20.9711C5.69959 21 6.13662 21 6.67844 21H6.67858H14.6085L14.7118 21C15.4416 21.0004 15.9406 21.0006 16.3575 20.8483C17.0499 20.5955 17.5955 20.0499 17.8483 19.3575C17.9799 18.9973 17.9976 18.5759 17.9998 17.9973C18.2449 17.994 18.4619 17.9868 18.6543 17.9711C19.0187 17.9413 19.3388 17.8784 19.635 17.7275C20.1054 17.4878 20.4878 17.1054 20.7275 16.635C20.8784 16.3388 20.9413 16.0187 20.9711 15.6543C21 15.3004 21 14.8634 21 14.3216V14.3214V6.67858V6.67844C21 6.13662 21 5.69959 20.9711 5.34569C20.9413 4.98126 20.8784 4.66117 20.7275 4.36502C20.4878 3.89462 20.1054 3.51217 19.635 3.27248C19.3388 3.12159 19.0187 3.05868 18.6543 3.02891C18.3004 2.99999 17.8633 3 17.3214 3ZM16.999 18H9.67858H9.67853C9.13667 18 8.69961 18 8.34569 17.9711C7.98126 17.9413 7.66117 17.8784 7.36502 17.7275C6.89462 17.4878 6.51217 17.1054 6.27248 16.635C6.12159 16.3388 6.05868 16.0187 6.02891 15.6543C5.99999 15.3004 6 14.8633 6 14.3214V7.00086C5.77649 7.00227 5.59662 7.006 5.44341 7.01584C5.20466 7.03117 5.06513 7.05986 4.95839 7.10119C4.56478 7.2536 4.2536 7.56478 4.10119 7.95839C4.05987 8.06513 4.03117 8.20466 4.01584 8.44341C4.00024 8.68629 4 8.99616 4 9.44071V17.3C4 17.8683 4.00039 18.2645 4.02559 18.5729C4.05031 18.8755 4.0964 19.0493 4.16349 19.181C4.3073 19.4632 4.53677 19.6927 4.81901 19.8365C4.95069 19.9036 5.12454 19.9497 5.42712 19.9744C5.73554 19.9996 6.1317 20 6.7 20H14.6085C15.4823 20 15.7862 19.9924 16.0145 19.909C16.43 19.7573 16.7573 19.43 16.909 19.0145C16.9785 18.8243 16.9954 18.5814 16.999 18ZM7.81901 4.16349C7.95069 4.0964 8.12454 4.05031 8.42712 4.02559C8.73554 4.00039 9.1317 4 9.7 4H17.3C17.8683 4 18.2645 4.00039 18.5729 4.02559C18.8755 4.05031 19.0493 4.0964 19.181 4.16349C19.4632 4.3073 19.6927 4.53677 19.8365 4.81901C19.9036 4.95069 19.9497 5.12454 19.9744 5.42712C19.9996 5.73554 20 6.1317 20 6.7V14.3C20 14.8683 19.9996 15.2645 19.9744 15.5729C19.9497 15.8755 19.9036 16.0493 19.8365 16.181C19.6927 16.4632 19.4632 16.6927 19.181 16.8365C19.0493 16.9036 18.8755 16.9497 18.5729 16.9744C18.2645 16.9996 17.8683 17 17.3 17H9.7C9.1317 17 8.73554 16.9996 8.42712 16.9744C8.12454 16.9497 7.95069 16.9036 7.81901 16.8365C7.53677 16.6927 7.3073 16.4632 7.16349 16.181C7.0964 16.0493 7.05031 15.8755 7.02559 15.5729C7.00039 15.2645 7 14.8683 7 14.3V6.7C7 6.1317 7.00039 5.73554 7.02559 5.42712C7.05031 5.12454 7.0964 4.95069 7.16349 4.81901C7.3073 4.53677 7.53677 4.3073 7.81901 4.16349Z" fill="black"/>
</svg>
