<svg width="24" height="24" viewBox="0 0 24 24" fill="none" xmlns="http://www.w3.org/2000/svg">
<path fill-rule="evenodd" clip-rule="evenodd" d="M17.6464 10.8763C17.8417 10.681 18.1583 10.681 18.3536 10.8763C18.5488 11.0715 18.5488 11.3881 18.3536 11.5834L12.3536 17.5834C12.2598 17.6771 12.1326 17.7298 12 17.7298C11.8674 17.7298 11.7402 17.6771 11.6464 17.5834L5.64645 11.5834C5.45118 11.3881 5.45118 11.0715 5.64645 10.8763C5.84171 10.681 6.15829 10.681 6.35355 10.8763L11.5 16.0227V3.16595C11.5 2.88981 11.7239 2.66595 12 2.66595C12.2761 2.66595 12.5 2.88981 12.5 3.16595V16.0227L17.6464 10.8763ZM3.5 16.7269C3.5 16.4508 3.27614 16.2269 3 16.2269C2.72386 16.2269 2.5 16.4508 2.5 16.7269V17.0805V17.0805C2.5 17.762 2.49999 18.304 2.53572 18.7413C2.57231 19.1891 2.64884 19.571 2.82698 19.9206C3.1146 20.4851 3.57354 20.944 4.13803 21.2316C4.48765 21.4098 4.86949 21.4863 5.31729 21.5229C5.75458 21.5586 6.29658 21.5586 6.97809 21.5586H6.97813H17.0219H17.0219C17.7034 21.5586 18.2454 21.5586 18.6827 21.5229C19.1305 21.4863 19.5123 21.4098 19.862 21.2316C20.4265 20.944 20.8854 20.4851 21.173 19.9206C21.3512 19.571 21.4277 19.1891 21.4643 18.7413C21.5 18.304 21.5 17.762 21.5 17.0805V17.0805V16.7269C21.5 16.4508 21.2761 16.2269 21 16.2269C20.7239 16.2269 20.5 16.4508 20.5 16.7269V17.0586C20.5 17.7669 20.4996 18.2681 20.4676 18.6599C20.4361 19.0458 20.3764 19.2814 20.282 19.4666C20.0903 19.8429 19.7843 20.1489 19.408 20.3406C19.2228 20.435 18.9872 20.4947 18.6013 20.5262C18.2095 20.5582 17.7083 20.5586 17 20.5586H7C6.29168 20.5586 5.79052 20.5582 5.39872 20.5262C5.01276 20.4947 4.77717 20.435 4.59202 20.3406C4.2157 20.1489 3.90973 19.8429 3.71799 19.4666C3.62365 19.2814 3.56393 19.0458 3.5324 18.6599C3.50039 18.2681 3.5 17.7669 3.5 17.0586V16.7269Z" fill="#222222"/>
</svg>
