<svg width="24" height="24" viewBox="0 0 24 24" fill="none" xmlns="http://www.w3.org/2000/svg">
<path fill-rule="evenodd" clip-rule="evenodd" d="M4.56433 4.5C3.65053 4.5 2.90975 5.24078 2.90975 6.15458V7.52899C2.90975 7.83359 3.15667 8.08052 3.46127 8.08052H7.54493C7.84953 8.08052 8.09645 8.32744 8.09645 8.63204V8.6944C8.09645 8.999 7.84952 9.24593 7.54493 9.24593H2.43663C1.68884 9.24593 1.08264 9.85213 1.08264 10.5999C1.08264 11.3477 1.68884 11.9539 2.43663 11.9539H8.70806C9.01178 11.9539 9.258 12.2001 9.258 12.5039C9.258 12.8076 9.01178 13.0538 8.70806 13.0538H3.46127C3.15667 13.0538 2.90975 13.3007 2.90975 13.6053V15.6819C2.90975 16.5957 3.65053 17.3365 4.56433 17.3365H5.84086C6.09573 18.5715 7.18937 19.5 8.49987 19.5C9.81037 19.5 10.904 18.5715 11.1589 17.3365H14.4509L14.4584 17.3365H15.7494C16.0042 18.5715 17.0979 19.5 18.4084 19.5C19.7189 19.5 20.8126 18.5715 21.0674 17.3365H21.2629C22.1767 17.3365 22.9175 16.5957 22.9175 15.6819V13.013C22.9175 12.8026 22.8773 12.5941 22.7992 12.3987L21.5621 9.30504C21.3108 8.67679 20.7024 8.26482 20.0258 8.26482H15.554C15.3606 8.26482 15.175 8.298 15.0025 8.35899V6.15458C15.0025 5.24078 14.2617 4.5 13.3479 4.5H4.56433ZM16.5648 10.5616C16.5648 10.318 16.7623 10.1204 17.006 10.1204H19.7612C19.9392 10.1204 20.0997 10.2273 20.1683 10.3915L20.7215 11.7152C20.843 12.0059 20.6294 12.3265 20.3144 12.3265H17.006C16.7623 12.3265 16.5648 12.129 16.5648 11.8853V10.5616ZM8.49987 15.1729C7.60957 15.1729 6.88784 15.8946 6.88784 16.7849C6.88784 17.6752 7.60957 18.3969 8.49987 18.3969C9.39017 18.3969 10.1119 17.6752 10.1119 16.7849C10.1119 15.8946 9.39017 15.1729 8.49987 15.1729ZM18.4084 15.1729C17.5181 15.1729 16.7964 15.8946 16.7964 16.7849C16.7964 17.6752 17.5181 18.3969 18.4084 18.3969C19.2987 18.3969 20.0204 17.6752 20.0204 16.7849C20.0204 15.8946 19.2987 15.1729 18.4084 15.1729Z" fill="black"/>
</svg>
