<svg fill="none" height="24" viewBox="0 0 24 24" width="24" xmlns="http://www.w3.org/2000/svg"><path clip-rule="evenodd" d="m7 3c0-.55228.44772-1 1-1s1 .44772 1 1v1h2v-1c0-.55228.4477-1 1-1s1 .44772 1 1v1h2v-1c0-.55228.4477-1 1-1s1 .44772 1 1v1h2c1.1046 0 2 .89543 2 2v13c0 1.1046-.8954 2-2 2h-14c-1.10457 0-2-.8954-2-2v-13c0-1.10457.89543-2 2-2h2zm10 3c0 .55228-.4477 1-1 1s-1-.44772-1-1h-2c0 .55228-.4477 1-1 1s-1-.44772-1-1h-2c0 .55228-.44772 1-1 1s-1-.44772-1-1h-2v13h14v-13zm-4 9v-1h2v1zm-2-2c0-.5523.4477-1 1-1h4c.5523 0 1 .4477 1 1v3c0 .5523-.4477 1-1 1h-4c-.5523 0-1-.4477-1-1zm-4-3c0-.55228.44772-1 1-1s1 .44772 1 1c0 .5523-.44772 1-1 1s-1-.4477-1-1zm0 3c0-.5523.44772-1 1-1s1 .4477 1 1-.44772 1-1 1-1-.4477-1-1zm0 3c0-.5523.44772-1 1-1s1 .4477 1 1-.44772 1-1 1-1-.4477-1-1zm8-6c0-.55228.4477-1 1-1s1 .44772 1 1c0 .5523-.4477 1-1 1s-1-.4477-1-1zm-4 0c0-.55228.4477-1 1-1s1 .44772 1 1c0 .5523-.4477 1-1 1s-1-.4477-1-1z" fill="#040404" fill-rule="evenodd"/></svg>