<svg width="24" height="24" viewBox="0 0 24 24" fill="none" xmlns="http://www.w3.org/2000/svg">
<path fill-rule="evenodd" clip-rule="evenodd" d="M4.55247 4.5C3.63867 4.5 2.89789 5.24078 2.89789 6.15458V7.00261C2.89789 7.30721 3.14482 7.55413 3.44942 7.55413C3.75402 7.55413 4.00094 7.30721 4.00094 7.00261V6.15458C4.00094 5.84998 4.24787 5.60305 4.55247 5.60305H13.336C13.6406 5.60305 13.8875 5.84998 13.8875 6.15458V9.91407L13.8875 9.91945V16.2335H11.147C10.8922 14.9984 9.79851 14.0698 8.48796 14.0698C7.17741 14.0698 6.08373 14.9984 5.82892 16.2335H4.55247C4.24787 16.2335 4.00094 15.9865 4.00094 15.6819V14.0523C4.00094 13.7477 3.75402 13.5008 3.44942 13.5008C3.14482 13.5008 2.89789 13.7477 2.89789 14.0523V15.6819C2.89789 16.5957 3.63867 17.3365 4.55247 17.3365H5.82894C6.08381 18.5715 7.17746 19.5 8.48796 19.5C9.79846 19.5 10.8921 18.5715 11.147 17.3365H13.8875V17.3365H15.7375C15.9923 18.5715 17.086 19.5 18.3965 19.5C19.707 19.5 20.8006 18.5715 21.0555 17.3365H21.251C22.1648 17.3365 22.9056 16.5957 22.9056 15.6819V13.0131C22.9056 12.8026 22.8654 12.5941 22.7873 12.3987L21.5502 9.3051C21.2989 8.67685 20.6905 8.26488 20.0139 8.26488H15.5421C15.3487 8.26488 15.1631 8.29805 14.9906 8.35902V6.15458C14.9906 5.24078 14.2498 4.5 13.336 4.5H4.55247ZM21.0555 16.2335H21.251C21.5556 16.2335 21.8025 15.9865 21.8025 15.6819V13.0131C21.8025 12.9429 21.7891 12.8734 21.7631 12.8083L20.526 9.71467C20.4422 9.50525 20.2394 9.36793 20.0139 9.36793H15.5421C15.2386 9.36793 14.9923 9.61318 14.9906 9.91634V16.2335H15.7374C15.9922 14.9984 17.0859 14.0698 18.3965 14.0698C19.707 14.0698 20.8007 14.9984 21.0555 16.2335ZM16.5529 10.5616C16.5529 10.318 16.7504 10.1204 16.9941 10.1204H19.7493C19.9273 10.1204 20.0878 10.2273 20.1564 10.3915L20.7096 11.7152C20.8311 12.0059 20.6175 12.3265 20.3025 12.3265H16.9941C16.7504 12.3265 16.5529 12.129 16.5529 11.8853V10.5616ZM1.64589 8.71589C1.34129 8.71589 1.09436 8.96282 1.09436 9.26742C1.09436 9.57201 1.34129 9.81894 1.64589 9.81894H8.69441C8.99901 9.81894 9.24593 9.57201 9.24593 9.26742C9.24593 8.96282 8.99901 8.71589 8.69441 8.71589H1.64589ZM2.1974 12C2.1974 11.6954 2.44433 11.4485 2.74893 11.4485H9.79744C10.102 11.4485 10.349 11.6954 10.349 12C10.349 12.3046 10.102 12.5516 9.79744 12.5516H2.74893C2.44433 12.5516 2.1974 12.3046 2.1974 12ZM8.48796 15.1729C7.59766 15.1729 6.87593 15.8946 6.87593 16.7849C6.87593 17.6752 7.59766 18.3969 8.48796 18.3969C9.37826 18.3969 10.1 17.6752 10.1 16.7849C10.1 15.8946 9.37826 15.1729 8.48796 15.1729ZM18.3965 15.1729C17.5062 15.1729 16.7845 15.8946 16.7845 16.7849C16.7845 17.6752 17.5062 18.3969 18.3965 18.3969C19.2868 18.3969 20.0085 17.6752 20.0085 16.7849C20.0085 15.8946 19.2868 15.1729 18.3965 15.1729Z" fill="black"/>
</svg>
