<svg fill="none" height="24" viewBox="0 0 24 24" width="24"
    xmlns="http://www.w3.org/2000/svg">
    <path clip-rule="evenodd"
        d="M17.2929 10.5227C17.6834 10.1322 18.3166 10.1322 18.7071 10.5227C19.0976 10.9132 19.0976 11.5464 18.7071 11.9369L12.7071 17.9369C12.5196 18.1245 12.2652 18.2298 12 18.2298C11.7348 18.2298 11.4804 18.1245 11.2929 17.9369L5.29289 11.9369C4.90237 11.5464 4.90237 10.9132 5.29289 10.5227C5.68342 10.1322 6.31658 10.1322 6.70711 10.5227L11 14.8156V3.16595C11 2.61367 11.4477 2.16595 12 2.16595C12.5523 2.16595 13 2.61367 13 3.16595V14.8156L17.2929 10.5227ZM4 16.7269C4 16.1746 3.55229 15.7269 3 15.7269C2.44772 15.7269 2 16.1746 2 16.7269V17.0586V17.0988V17.0988C1.99999 17.7647 1.99997 18.3242 2.03738 18.782C2.0765 19.2608 2.16144 19.7157 2.38148 20.1476C2.71704 20.8061 3.25247 21.3416 3.91103 21.6771C4.34289 21.8972 4.79785 21.9821 5.27657 22.0212C5.73442 22.0586 6.29391 22.0586 6.95973 22.0586H6.95984H17.0402H17.0403C17.7061 22.0586 18.2656 22.0586 18.7234 22.0212C19.2022 21.9821 19.6571 21.8972 20.089 21.6771C20.7475 21.3416 21.283 20.8061 21.6185 20.1476C21.8386 19.7157 21.9235 19.2608 21.9626 18.782C22 18.3242 22 17.7647 22 17.0988V17.0988V16.7269C22 16.1746 21.5523 15.7269 21 15.7269C20.4477 15.7269 20 16.1746 20 16.7269V17.0586C20 17.7752 19.9992 18.2525 19.9693 18.6192C19.9403 18.9742 19.889 19.1367 19.8365 19.2396C19.6927 19.5218 19.4632 19.7513 19.181 19.8951C19.0781 19.9476 18.9156 19.9989 18.5606 20.0279C18.1939 20.0578 17.7166 20.0586 17 20.0586H7C6.28343 20.0586 5.80615 20.0578 5.43944 20.0279C5.0844 19.9989 4.92194 19.9476 4.81902 19.8951C4.53677 19.7513 4.3073 19.5218 4.16349 19.2396C4.11105 19.1367 4.05975 18.9742 4.03074 18.6192C4.00078 18.2525 4 17.7752 4 17.0586V16.7269Z"
        fill="#222222" fill-rule="evenodd" />
</svg>
