<svg width="24" height="24" viewBox="0 0 24 24" fill="none" xmlns="http://www.w3.org/2000/svg">
<path fill-rule="evenodd" clip-rule="evenodd" d="M9.09716 2.4306C11.0966 1.82407 13.2358 1.85907 15.2144 2.5307C17.1929 3.20233 18.9114 4.47683 20.1285 6.17522C21.3455 7.87361 22 9.91057 22 12C22 12.0007 22 12.0013 22 12.002V13.5C22 15.433 20.433 17 18.5 17C17.2958 17 16.2336 16.3918 15.6038 15.4659C14.6942 16.4115 13.4158 17 12 17C9.23858 17 7 14.7614 7 12C7 9.23858 9.23858 7 12 7C13.2756 7 14.4397 7.4777 15.323 8.26397C15.5011 8.10008 15.7389 8 16 8C16.5523 8 17 8.44772 17 9V12V13.5C17 14.3284 17.6716 15 18.5 15C19.3284 15 20 14.3284 20 13.5L20 12C20 11.9994 20 11.9988 20 11.9981C19.9996 10.3272 19.4761 8.69839 18.5028 7.34018C17.5291 5.98147 16.1544 4.96186 14.5715 4.42456C12.9887 3.88726 11.2773 3.85925 9.67773 4.34448C8.07815 4.8297 6.67075 5.80378 5.65318 7.12991C4.6356 8.45604 4.05898 10.0676 4.00429 11.7382C3.94959 13.4089 4.41958 15.0547 5.34825 16.4446C6.27691 17.8344 7.61759 18.8984 9.182 19.4872C10.7464 20.076 12.456 20.16 14.0706 19.7274C14.604 19.5845 15.1524 19.901 15.2953 20.4345C15.4382 20.968 15.1217 21.5163 14.5882 21.6593C12.57 22.2 10.433 22.0951 8.4775 21.3591C6.52199 20.6231 4.84613 19.293 3.68531 17.5557C2.52448 15.8184 1.93699 13.7611 2.00536 11.6728C2.07372 9.58449 2.7945 7.57005 4.06647 5.91239C5.33844 4.25473 7.09769 3.03713 9.09716 2.4306ZM15 12C15 10.3431 13.6569 9 12 9C10.3431 9 9 10.3431 9 12C9 13.6569 10.3431 15 12 15C13.6569 15 15 13.6569 15 12Z" fill="black"/>
</svg>
