<svg width="24" height="24" viewBox="0 0 24 24" fill="none" xmlns="http://www.w3.org/2000/svg">
<path fill-rule="evenodd" clip-rule="evenodd" d="M9.2423 2.90907C11.1418 2.33286 13.1741 2.36612 15.0537 3.00416C16.9333 3.64221 18.5658 4.85299 19.722 6.46646C20.8782 8.07993 21.5 10.015 21.5 12C21.5 12.0005 21.5 12.0009 21.5 12.0014V13.5C21.5 15.1569 20.1569 16.5 18.5 16.5C17.2194 16.5 16.1262 15.6976 15.6957 14.5681C14.8828 15.7358 13.5306 16.5 12 16.5C9.51472 16.5 7.5 14.4853 7.5 12C7.5 9.51472 9.51472 7.5 12 7.5C13.4136 7.5 14.675 8.15183 15.5 9.17133V9C15.5 8.72386 15.7239 8.5 16 8.5C16.2761 8.5 16.5 8.72386 16.5 9V12V13.5C16.5 14.6046 17.3954 15.5 18.5 15.5C19.6046 15.5 20.5 14.6046 20.5 13.5L20.5 12C20.5 11.9995 20.5 11.9991 20.5 11.9986C20.4997 10.2231 19.9434 8.4922 18.9092 7.04894C17.8747 5.60531 16.414 4.52198 14.7322 3.95109C13.0505 3.38021 11.2321 3.35046 9.53258 3.86601C7.83304 4.38156 6.33767 5.41652 5.2565 6.82553C4.17533 8.23454 3.56266 9.94682 3.50455 11.7219C3.44644 13.497 3.94581 15.2456 4.93251 16.7223C5.91921 18.1991 7.34369 19.3296 9.00588 19.9552C10.6681 20.5808 12.4845 20.67 14.2 20.2104C14.4667 20.1389 14.7409 20.2972 14.8123 20.5639C14.8838 20.8307 14.7255 21.1048 14.4588 21.1763C12.5415 21.69 10.5114 21.5903 8.65363 20.8911C6.79589 20.1919 5.20383 18.9284 4.10104 17.2779C2.99825 15.6275 2.44014 13.6731 2.50509 11.6892C2.57003 9.70527 3.25478 7.79154 4.46315 6.21677C5.67151 4.64199 7.34281 3.48527 9.2423 2.90907ZM15.5 12C15.5 10.067 13.933 8.5 12 8.5C10.067 8.5 8.5 10.067 8.5 12C8.5 13.933 10.067 15.5 12 15.5C13.933 15.5 15.5 13.933 15.5 12Z" fill="black"/>
</svg>
