<svg width="24" height="24" viewBox="0 0 24 24" fill="none" xmlns="http://www.w3.org/2000/svg">
<path fill-rule="evenodd" clip-rule="evenodd" d="M12.0004 5.49969C9.63745 5.49969 7.73136 6.57519 6.32241 7.88478L6.32199 7.88517C4.91607 9.18895 3.97915 10.7239 3.5401 11.8039L3.53868 11.8074L3.53866 11.8074C3.48714 11.9314 3.48711 12.0683 3.53859 12.1924C3.97802 13.2466 4.91605 14.7835 6.32416 16.1168C7.73271 17.4267 9.6382 18.5003 12.0004 18.5003C14.3625 18.5003 16.268 17.4268 17.6772 16.1168C19.0857 14.7832 20.0241 13.2462 20.4608 12.1929L20.4613 12.1917C20.5129 12.0681 20.5129 11.9319 20.4613 11.8083L20.4591 11.8031L20.4591 11.803C20.0227 10.7239 19.0855 9.18909 17.6794 7.88517L17.6791 7.88485C16.2694 6.57518 14.3633 5.49969 12.0004 5.49969ZM5.6418 7.15214C7.17547 5.72669 9.31324 4.49969 12.0004 4.49969C14.6875 4.49969 16.8252 5.72662 18.3594 7.15193C19.8774 8.55967 20.8962 10.2175 21.3852 11.4257C21.5386 11.795 21.5383 12.2074 21.3843 12.5765C20.896 13.7541 19.8787 15.41 18.3631 16.8446L18.3599 16.8476L18.3599 16.8476C16.8254 18.2746 14.6875 19.5003 12.0004 19.5003C9.31326 19.5003 7.17536 18.2746 5.64144 16.8475L5.63829 16.8446C4.12231 15.4096 3.10584 13.7535 2.61539 12.5767L2.61516 12.5762C2.46187 12.2071 2.46161 11.7949 2.61438 11.4257C3.10553 10.2183 4.12339 8.5603 5.6418 7.15214ZM7.0002 12C7.0002 9.23937 9.23977 6.9998 12.0004 6.9998C14.761 6.9998 17.0006 9.23937 17.0006 12C17.0006 14.7606 14.761 17.0002 12.0004 17.0002C9.23977 17.0002 7.0002 14.7606 7.0002 12ZM12.0004 7.9998C9.79205 7.9998 8.0002 9.79165 8.0002 12C8.0002 14.2083 9.79205 16.0002 12.0004 16.0002C14.2087 16.0002 16.0006 14.2083 16.0006 12C16.0006 9.79165 14.2087 7.9998 12.0004 7.9998ZM12.4516 9.53954C12.482 9.68574 12.5004 9.83981 12.5004 9.99991C12.5004 11.3792 11.3796 12.5 10.0003 12.5C9.84021 12.5 9.68614 12.4816 9.53994 12.4512C9.74805 13.6182 10.7517 14.5001 12.0004 14.5001C13.3806 14.5001 14.5005 13.3802 14.5005 12C14.5005 10.7513 13.6186 9.74765 12.4516 9.53954ZM11.6846 8.51521C11.7951 8.50337 11.9014 8.49987 12.0004 8.49987C13.9298 8.49987 15.5005 10.0363 15.5005 12C15.5005 13.9325 13.9329 15.5001 12.0004 15.5001C10.0367 15.5001 8.50026 13.9294 8.50026 12C8.50026 11.901 8.50377 11.7947 8.51561 11.6842C8.53294 11.5225 8.62788 11.3793 8.77012 11.3003C8.91235 11.2214 9.08411 11.2165 9.23054 11.2874C9.49273 11.4143 9.75047 11.5 10.0003 11.5C10.8273 11.5 11.5004 10.8269 11.5004 9.99991C11.5004 9.75007 11.4147 9.49233 11.2878 9.23015C11.2169 9.08371 11.2218 8.91196 11.3007 8.76972C11.3797 8.62748 11.5229 8.53254 11.6846 8.51521Z" fill="black"/>
</svg>
