<svg width="24" height="24" viewBox="0 0 24 24" fill="none" xmlns="http://www.w3.org/2000/svg">
<path d="M11.7379 9.01237C11.8254 9.00299 11.9129 8.99987 12.0004 8.99987C13.6567 8.99987 15.0005 10.3155 15.0005 12C15.0005 13.6563 13.6567 15.0001 12.0004 15.0001C10.3159 15.0001 9.00026 13.6563 9.00026 12C9.00026 11.9125 9.00339 11.825 9.01276 11.7375C9.3034 11.8781 9.64092 12 10.0003 12C11.1035 12 12.0004 11.1031 12.0004 9.99991C12.0004 9.64052 11.8785 9.303 11.7379 9.01237ZM18.0194 7.51855C19.482 8.87486 20.4601 10.4718 20.9227 11.6156C21.0258 11.8625 21.0258 12.1375 20.9227 12.3844C20.4601 13.5001 19.482 15.097 18.0194 16.4814C16.5475 17.8502 14.5255 19.0003 12.0004 19.0003C9.47528 19.0003 7.45332 17.8502 5.98201 16.4814C4.51944 15.097 3.5419 13.5001 3.07691 12.3844C2.97436 12.1375 2.97436 11.8625 3.07691 11.6156C3.5419 10.4718 4.51944 8.87486 5.98201 7.51855C7.45332 6.15099 9.47528 4.99969 12.0004 4.99969C14.5255 4.99969 16.5475 6.15099 18.0194 7.51855ZM12.0004 7.4998C9.51591 7.4998 7.5002 9.51551 7.5002 12C7.5002 14.4845 9.51591 16.5002 12.0004 16.5002C14.4849 16.5002 16.5006 14.4845 16.5006 12C16.5006 9.51551 14.4849 7.4998 12.0004 7.4998Z" fill="black"/>
</svg>
