<svg width="24" height="24" viewBox="0 0 24 24" fill="none" xmlns="http://www.w3.org/2000/svg">
<path fill-rule="evenodd" clip-rule="evenodd" d="M14.7705 6.15414L6.12632 14.7983C5.9129 15.0117 5.87472 15.0558 5.84891 15.1014C5.82311 15.1469 5.80497 15.2023 5.73176 15.4952L4.80742 19.1925L8.50481 18.2682C8.79762 18.195 8.85302 18.1769 8.8986 18.1511C8.94418 18.1252 8.98824 18.0871 9.20166 17.8736L17.8458 9.22949L14.7705 6.15414ZM16.7284 3.40332C16.368 3.40332 16.0756 3.55521 15.8127 3.75581C15.5673 3.94299 15.2973 4.21305 14.9839 4.52649L5.41921 14.0912L5.38638 14.124C5.22391 14.2861 5.08008 14.4296 4.97871 14.6087C4.87735 14.7877 4.82828 14.9849 4.77284 15.2076L4.76162 15.2526L3.83727 18.95L3.83059 18.9767L3.83059 18.9767C3.79135 19.1334 3.74944 19.3007 3.73569 19.4413C3.72056 19.596 3.72408 19.8571 3.93349 20.0665C4.14291 20.2759 4.40396 20.2794 4.55869 20.2643C4.69924 20.2505 4.86658 20.2086 5.02328 20.1694L5.04995 20.1627L8.74734 19.2383L8.79235 19.2271L8.79237 19.2271C9.0151 19.1717 9.21227 19.1226 9.3913 19.0213C9.57033 18.9199 9.71385 18.7761 9.87597 18.6136L9.87598 18.6136L9.90877 18.5808L19.4735 9.01607C19.7869 8.70266 20.057 8.43262 20.2442 8.18729C20.4448 7.92437 20.5966 7.63194 20.5966 7.27156C20.5966 6.91117 20.4448 6.61875 20.2442 6.35583C20.057 6.11051 19.7869 5.84049 19.4735 5.5271L19.4735 5.52708L18.4729 4.52649C18.1595 4.21305 17.8895 3.94299 17.6441 3.75581C17.3812 3.55521 17.0888 3.40332 16.7284 3.40332Z" fill="black"/>
</svg>
