<svg width="24" height="24" viewBox="0 0 24 24" fill="none" xmlns="http://www.w3.org/2000/svg">
<path fill-rule="evenodd" clip-rule="evenodd" d="M15.6677 5.25687C16.0111 4.91355 16.2338 4.69237 16.4193 4.55083C16.5932 4.4181 16.6746 4.40332 16.7284 4.40332C16.7822 4.40332 16.8636 4.4181 17.0376 4.55083C17.2231 4.69237 17.4457 4.91355 17.7891 5.25687L18.7431 6.2109C19.0864 6.55423 19.3076 6.77691 19.4491 6.96241C19.5819 7.13638 19.5966 7.21773 19.5966 7.27156C19.5966 7.32539 19.5819 7.40674 19.4491 7.5807C19.3076 7.76621 19.0864 7.98889 18.7431 8.33222L17.82 9.25528L14.7549 6.16972L15.6677 5.25687ZM16.7284 3.40332C16.368 3.40332 16.0756 3.55521 15.8127 3.75581C15.5673 3.94299 15.2973 4.21305 14.9839 4.52649L14.9839 4.52649L5.4192 14.0912L5.41557 14.0948L5.38637 14.124C5.22391 14.2861 5.08008 14.4296 4.97871 14.6087C4.87735 14.7877 4.82828 14.9849 4.77284 15.2076L4.76162 15.2526L3.83727 18.95L3.83059 18.9767C3.79135 19.1334 3.74944 19.3007 3.73569 19.4413C3.72055 19.596 3.72409 19.8571 3.9335 20.0665C4.14291 20.2759 4.40396 20.2794 4.55869 20.2643C4.6992 20.2505 4.86651 20.2086 5.02317 20.1694L5.02327 20.1694L5.04995 20.1627L8.74734 19.2383L8.79236 19.2271C9.01509 19.1717 9.21227 19.1226 9.3913 19.0213C9.57033 18.9199 9.71386 18.7761 9.87599 18.6136L9.90877 18.5808L19.4734 9.01608L19.4735 9.01607C19.7869 8.70266 20.057 8.43262 20.2442 8.18729C20.4448 7.92437 20.5966 7.63194 20.5966 7.27156C20.5966 6.91117 20.4448 6.61875 20.2442 6.35583C20.057 6.11052 19.787 5.84051 19.4735 5.52714L19.4735 5.52708L18.4729 4.52649C18.1595 4.21305 17.8895 3.94299 17.6441 3.75581C17.3812 3.55521 17.0888 3.40332 16.7284 3.40332Z" fill="black"/>
</svg>
