<svg width="24" height="24" viewBox="0 0 24 24" fill="none" xmlns="http://www.w3.org/2000/svg">
<path fill-rule="evenodd" clip-rule="evenodd" d="M12 3.5C7.30558 3.5 3.5 7.30558 3.5 12C3.5 16.6944 7.30558 20.5 12 20.5C16.6944 20.5 20.5 16.6944 20.5 12C20.5 7.30558 16.6944 3.5 12 3.5ZM2.5 12C2.5 6.75329 6.75329 2.5 12 2.5C17.2467 2.5 21.5 6.75329 21.5 12C21.5 17.2467 17.2467 21.5 12 21.5C6.75329 21.5 2.5 17.2467 2.5 12ZM12.9 17.4342C12.9 17.9312 12.497 18.3342 12 18.3342C11.5029 18.3342 11.1 17.9312 11.1 17.4342C11.1 16.9371 11.5029 16.5342 12 16.5342C12.497 16.5342 12.9 16.9371 12.9 17.4342ZM12.65 6.26563C12.65 5.90665 12.359 5.61563 12 5.61563C11.641 5.61563 11.35 5.90665 11.35 6.26563V13.2221C11.35 13.5811 11.641 13.8721 12 13.8721C12.359 13.8721 12.65 13.5811 12.65 13.2221V6.26563Z" fill="black"/>
</svg>
