<svg width="24" height="24" viewBox="0 0 24 24" fill="none" xmlns="http://www.w3.org/2000/svg">
<path fill-rule="evenodd" clip-rule="evenodd" d="M12 2.50012C6.75329 2.50012 2.5 6.75342 2.5 12.0001C2.5 17.2468 6.75329 21.5001 12 21.5001C17.2467 21.5001 21.5 17.2468 21.5 12.0001C21.5 6.75342 17.2467 2.50012 12 2.50012ZM12.9 17.4343C12.9 17.9314 12.497 18.3343 12 18.3343C11.5029 18.3343 11.1 17.9314 11.1 17.4343C11.1 16.9372 11.5029 16.5343 12 16.5343C12.497 16.5343 12.9 16.9372 12.9 17.4343ZM12.65 6.26575C12.65 5.90677 12.359 5.61575 12 5.61575C11.641 5.61575 11.35 5.90677 11.35 6.26575V13.2222C11.35 13.5812 11.641 13.8722 12 13.8722C12.359 13.8722 12.65 13.5812 12.65 13.2222V6.26575Z" fill="black"/>
</svg>
