<svg width="24" height="24" viewBox="0 0 24 24" fill="none" xmlns="http://www.w3.org/2000/svg">
<path fill-rule="evenodd" clip-rule="evenodd" d="M4.17659 2.76244C3.78606 2.37191 3.1529 2.37191 2.76238 2.76244C2.37185 3.15296 2.37185 3.78613 2.76238 4.17665L6.04561 7.45989C6.04426 7.46112 6.04291 7.46236 6.04156 7.46359L8.18742 9.60945C8.18841 9.60786 8.18941 9.60627 8.19041 9.60469L10.5179 11.9322C10.5158 11.9327 10.5138 11.9332 10.5118 11.9338L13.2882 14.7102C13.2899 14.7094 13.2917 14.7086 13.2934 14.7077L14.3957 15.81C14.3941 15.811 14.3925 15.812 14.3909 15.813L16.3378 17.7599C16.3395 17.7589 16.3411 17.7579 16.3427 17.7569L19.8233 21.2375C20.2138 21.6281 20.847 21.6281 21.2375 21.2375C21.628 20.847 21.628 20.2139 21.2375 19.8233L17.955 16.5409C17.9766 16.5211 17.9981 16.5013 18.0194 16.4814C19.482 15.097 20.4601 13.5001 20.9227 12.3844C21.0258 12.1375 21.0258 11.8625 20.9227 11.6156C20.4601 10.4718 19.482 8.87486 18.0194 7.51855C16.5475 6.15099 14.5255 4.99969 12.0004 4.99969C10.3275 4.99969 8.87538 5.50503 7.65796 6.2438L4.17659 2.76244ZM9.60452 8.19037L11.9324 10.5182C11.9767 10.3529 12.0004 10.1791 12.0004 9.99991C12.0004 9.64052 11.8785 9.303 11.7379 9.01237C11.8254 9.00299 11.9129 8.99987 12.0004 8.99987C13.6567 8.99987 15.0005 10.3155 15.0005 12C15.0005 12.4632 14.8954 12.9019 14.7078 13.2937L15.81 14.3959C16.2474 13.702 16.5006 12.8804 16.5006 12C16.5006 9.51551 14.4849 7.4998 12.0004 7.4998C11.12 7.4998 10.2984 7.75294 9.60452 8.19037ZM3.07691 11.6156C3.38671 10.8535 3.92403 9.89034 4.68072 8.93117L7.50665 11.7571C7.50237 11.8375 7.5002 11.9185 7.5002 12C7.5002 14.4845 9.51591 16.5002 12.0004 16.5002C12.0819 16.5002 12.1629 16.498 12.2433 16.4937L14.3905 18.6409C13.6527 18.8684 12.8554 19.0003 12.0004 19.0003C9.47528 19.0003 7.45332 17.8502 5.98201 16.4814C4.51944 15.097 3.5419 13.5001 3.07691 12.3844C2.97436 12.1375 2.97436 11.8625 3.07691 11.6156ZM9.94271 14.1932C9.8972 14.1504 9.85305 14.1063 9.81033 14.0608L9.94271 14.1932Z" fill="black"/>
</svg>
