<svg width="24" height="24" viewBox="0 0 24 24" fill="none" xmlns="http://www.w3.org/2000/svg">
<path fill-rule="evenodd" clip-rule="evenodd" d="M3.82304 3.11599C3.62777 2.92073 3.31119 2.92073 3.11593 3.11599C2.92067 3.31125 2.92067 3.62783 3.11593 3.8231L20.1768 20.884C20.3721 21.0792 20.6887 21.0792 20.8839 20.884C21.0792 20.6887 21.0792 20.3721 20.8839 20.1769L17.9328 17.2257C18.08 17.1018 18.2224 16.9755 18.3599 16.8476L18.3599 16.8476L18.3631 16.8446C19.8787 15.41 20.896 13.7541 21.3843 12.5765C21.5383 12.2074 21.5386 11.795 21.3852 11.4257C20.8962 10.2176 19.8776 8.55992 18.3597 7.15225C16.8255 5.7268 14.6877 4.49969 12.0004 4.49969C9.96734 4.49969 8.24876 5.20205 6.86836 6.16131L3.82304 3.11599ZM7.58791 6.88086L8.83597 8.12892C9.69805 7.42327 10.8 6.9998 12.0004 6.9998C14.761 6.9998 17.0006 9.23937 17.0006 12C17.0006 13.2004 16.5771 14.3023 15.8715 15.1644L17.2229 16.5158C17.3796 16.386 17.5311 16.2526 17.6773 16.1168C19.0857 14.7831 20.0241 13.2462 20.4608 12.1929L20.4613 12.1917C20.5129 12.0681 20.5129 11.9319 20.4613 11.8083L20.4591 11.8031L20.4591 11.803C20.0227 10.7239 19.0855 9.18909 17.6794 7.88517L17.6791 7.88485C16.2694 6.57518 14.3633 5.49969 12.0004 5.49969C10.2831 5.49969 8.80713 6.06774 7.58791 6.88086ZM15.1599 14.4529C15.6868 13.7754 16.0006 12.9242 16.0006 12C16.0006 9.79166 14.2087 7.9998 12.0004 7.9998C11.0762 7.9998 10.225 8.31362 9.5475 8.84045L11.3537 10.6466C11.4477 10.4507 11.5004 10.2313 11.5004 9.99991C11.5004 9.75007 11.4147 9.49233 11.2878 9.23015C11.2169 9.08371 11.2218 8.91196 11.3007 8.76972C11.3797 8.62748 11.5229 8.53254 11.6846 8.51521C11.7951 8.50337 11.9014 8.49987 12.0004 8.49987C13.9298 8.49987 15.5005 10.0363 15.5005 12C15.5005 12.7861 15.2411 13.5118 14.8033 14.0962L15.1599 14.4529ZM14.0859 13.3789C14.3479 12.9835 14.5005 12.5095 14.5005 12C14.5005 10.7513 13.6186 9.74765 12.4516 9.53954C12.482 9.68574 12.5004 9.83981 12.5004 9.99991C12.5004 10.5091 12.3476 10.9831 12.0855 11.3785L14.0859 13.3789ZM2.61438 11.4257C3.07244 10.2996 3.98862 8.78169 5.34169 7.43997L6.04881 8.14709C4.79414 9.39029 3.95007 10.7954 3.5401 11.8039L3.53868 11.8074L3.53866 11.8074C3.48714 11.9314 3.48711 12.0683 3.53859 12.1924C3.97801 13.2466 4.91604 14.7834 6.32415 16.1168C7.7327 17.4267 9.63819 18.5003 12.0004 18.5003C13.3251 18.5003 14.5062 18.1626 15.5367 17.635L16.2756 18.3739C15.0611 19.0484 13.632 19.5003 12.0004 19.5003C9.31326 19.5003 7.17536 18.2746 5.64144 16.8475L5.63829 16.8446C4.12231 15.4096 3.10584 13.7535 2.61539 12.5767L2.61516 12.5762C2.46187 12.2071 2.46161 11.7949 2.61438 11.4257ZM7.0002 12C7.0002 11.1597 7.20768 10.3677 7.57419 9.67247L8.32376 10.422C8.11554 10.9062 8.0002 11.4397 8.0002 12C8.0002 14.2083 9.79205 16.0002 12.0004 16.0002C12.5607 16.0002 13.0941 15.8848 13.5783 15.6766L14.3279 16.4262C13.6327 16.7927 12.8407 17.0002 12.0004 17.0002C9.23977 17.0002 7.0002 14.7606 7.0002 12ZM8.77012 11.3003C8.89066 11.2334 9.03241 11.2197 9.16198 11.2603L10.3739 12.4722C10.252 12.4905 10.1273 12.5 10.0003 12.5C9.84021 12.5 9.68614 12.4816 9.53994 12.4512C9.74805 13.6182 10.7517 14.5001 12.0004 14.5001C12.1274 14.5001 12.2522 14.4906 12.3741 14.4723L13.1932 15.2915C12.8209 15.4265 12.4192 15.5001 12.0004 15.5001C10.0367 15.5001 8.50026 13.9294 8.50026 12C8.50026 11.901 8.50377 11.7947 8.51561 11.6842C8.53294 11.5225 8.62788 11.3793 8.77012 11.3003Z" fill="black"/>
</svg>
