<svg width="24" height="24" viewBox="0 0 24 24" fill="none" xmlns="http://www.w3.org/2000/svg">
<path fill-rule="evenodd" clip-rule="evenodd" d="M14.5 8C14.5 6.61929 15.6193 5.5 17 5.5C18.3807 5.5 19.5 6.61929 19.5 8C19.5 9.38071 18.3807 10.5 17 10.5C15.6193 10.5 14.5 9.38071 14.5 8ZM17 4.5C15.2368 4.5 13.7781 5.80385 13.5354 7.5L4 7.5C3.72386 7.5 3.5 7.72386 3.5 8C3.5 8.27614 3.72386 8.5 4 8.5L13.5354 8.5C13.7781 10.1961 15.2368 11.5 17 11.5C18.933 11.5 20.5 9.933 20.5 8C20.5 6.067 18.933 4.5 17 4.5ZM20 15.5C20.2761 15.5 20.5 15.7239 20.5 16C20.5 16.2761 20.2761 16.5 20 16.5L10.4646 16.5C10.2219 18.1961 8.76324 19.5 7 19.5C5.067 19.5 3.5 17.933 3.5 16C3.5 14.067 5.067 12.5 7 12.5C8.76324 12.5 10.2219 13.8039 10.4646 15.5L20 15.5ZM7 13.5C5.61929 13.5 4.5 14.6193 4.5 16C4.5 17.3807 5.61929 18.5 7 18.5C8.38071 18.5 9.5 17.3807 9.5 16C9.5 14.6193 8.38071 13.5 7 13.5Z" fill="black"/>
</svg>
