<svg width="24" height="24" viewBox="0 0 24 24" fill="none" xmlns="http://www.w3.org/2000/svg">
<path fill-rule="evenodd" clip-rule="evenodd" d="M12.5973 3.19507C12.5166 3.1945 12.424 3.19436 12.3167 3.19436H8.08391C7.51561 3.19436 7.11945 3.19475 6.81103 3.21995C6.50845 3.24467 6.3346 3.29075 6.20293 3.35785C5.92068 3.50166 5.69121 3.73113 5.5474 4.01337C5.48031 4.14505 5.43422 4.31889 5.4095 4.62148C5.3843 4.9299 5.38391 5.32605 5.38391 5.89436V18.1057C5.38391 18.674 5.3843 19.0701 5.4095 19.3785C5.43422 19.6811 5.48031 19.855 5.5474 19.9867C5.69121 20.2689 5.92068 20.4984 6.20293 20.6422C6.3346 20.7093 6.50845 20.7554 6.81103 20.7801C7.11945 20.8053 7.51561 20.8057 8.08391 20.8057H15.9161C16.4844 20.8057 16.8805 20.8053 17.189 20.7801C17.4916 20.7554 17.6654 20.7093 17.7971 20.6422C18.0793 20.4984 18.3088 20.2689 18.4526 19.9867C18.5197 19.855 18.5658 19.6811 18.5905 19.3785C18.6157 19.0701 18.6161 18.674 18.6161 18.1057V9.49376C18.6161 9.42327 18.616 9.35916 18.6158 9.3006H15.4767C15.0742 9.3006 14.742 9.30061 14.4714 9.2785C14.1903 9.25554 13.932 9.20626 13.6893 9.08261C13.313 8.89086 13.007 8.5849 12.8153 8.20858C12.6916 7.96591 12.6424 7.70756 12.6194 7.42651C12.5973 7.15593 12.5973 6.82376 12.5973 6.4213V6.42125V3.19507ZM13.3974 2.26343C13.1087 2.19413 12.808 2.19422 12.3737 2.19435L12.3167 2.19436L8.06251 2.19436C7.52062 2.19435 7.08354 2.19435 6.7296 2.22327C6.36518 2.25304 6.04508 2.31595 5.74894 2.46684C5.27853 2.70652 4.89608 3.08898 4.6564 3.55938C4.5055 3.85553 4.4426 4.17562 4.41282 4.54004C4.3839 4.89398 4.38391 5.33105 4.38391 5.87294V5.87295V18.1271V18.1271C4.38391 18.669 4.3839 19.106 4.41282 19.46C4.4426 19.8244 4.5055 20.1445 4.6564 20.4406C4.89608 20.911 5.27853 21.2935 5.74894 21.5332C6.04508 21.6841 6.36518 21.747 6.7296 21.7768C7.08356 21.8057 7.52066 21.8057 8.0626 21.8057H15.9374C16.4793 21.8057 16.9164 21.8057 17.2704 21.7768C17.6348 21.747 17.9549 21.6841 18.2511 21.5332C18.7215 21.2935 19.1039 20.911 19.3436 20.4406C19.4945 20.1445 19.5574 19.8244 19.5872 19.46C19.6161 19.106 19.6161 18.669 19.6161 18.1271V18.127V9.49376L19.6161 9.43679C19.6162 9.00241 19.6163 8.70174 19.547 8.41309C19.4858 8.15799 19.3848 7.91413 19.2477 7.69045C19.0926 7.43734 18.8799 7.2248 18.5727 6.91774L18.5324 6.87746L14.933 3.27806L14.8927 3.23777L14.8927 3.23776C14.5856 2.93053 14.3731 2.71786 14.12 2.56276C13.8963 2.42569 13.6525 2.32467 13.3974 2.26343ZM13.5973 6.4006V3.47415C13.6299 3.49878 13.6608 3.52593 13.6898 3.55547L18.2674 8.22614C18.2905 8.24976 18.3121 8.27463 18.3321 8.3006H15.4973C15.069 8.3006 14.7779 8.30021 14.5528 8.28182C14.3336 8.26391 14.2215 8.23145 14.1433 8.1916C13.9551 8.09573 13.8022 7.94275 13.7063 7.75459C13.6664 7.67639 13.634 7.56429 13.6161 7.34508C13.5977 7.12003 13.5973 6.82889 13.5973 6.4006Z" fill="black"/>
</svg>
