<svg width="24" height="24" viewBox="0 0 24 24" fill="none" xmlns="http://www.w3.org/2000/svg">
<path fill-rule="evenodd" clip-rule="evenodd" d="M12.3737 2.19435C12.808 2.19422 13.1087 2.19413 13.3974 2.26343C13.6525 2.32467 13.8963 2.42569 14.12 2.56276C14.3731 2.71786 14.5856 2.93053 14.8927 3.23776L14.8927 3.23777L14.933 3.27806L18.5324 6.87746L18.5727 6.91774C18.8799 7.2248 19.0926 7.43734 19.2477 7.69045C19.3848 7.91413 19.4858 8.15799 19.547 8.41309C19.6163 8.70174 19.6162 9.00241 19.6161 9.43679L19.6161 9.49376V18.127V18.1271C19.6161 18.669 19.6161 19.106 19.5872 19.46C19.5574 19.8244 19.4945 20.1445 19.3436 20.4406C19.1039 20.911 18.7215 21.2935 18.2511 21.5332C17.9549 21.6841 17.6348 21.747 17.2704 21.7768C16.9164 21.8057 16.4793 21.8057 15.9374 21.8057H8.0626C7.52066 21.8057 7.08356 21.8057 6.7296 21.7768C6.36518 21.747 6.04508 21.6841 5.74894 21.5332C5.27853 21.2935 4.89608 20.911 4.6564 20.4406C4.5055 20.1445 4.4426 19.8244 4.41282 19.46C4.3839 19.106 4.38391 18.669 4.38391 18.1271V18.1271V18.1271V5.87295V5.87294V5.87293C4.38391 5.33105 4.3839 4.89398 4.41282 4.54004C4.4426 4.17562 4.5055 3.85553 4.6564 3.55938C4.89608 3.08898 5.27853 2.70652 5.74894 2.46684C6.04508 2.31595 6.36518 2.25304 6.7296 2.22327C7.08354 2.19435 7.52062 2.19435 8.06251 2.19436L12.3167 2.19436L12.3737 2.19435ZM13.5973 3.47415V6.4006C13.5973 6.82889 13.5977 7.12004 13.6161 7.34508C13.634 7.56429 13.6664 7.67639 13.7063 7.75459C13.8022 7.94275 13.9551 8.09573 14.1433 8.19161C14.2215 8.23145 14.3336 8.26391 14.5528 8.28182C14.7779 8.30021 15.069 8.3006 15.4973 8.3006H18.3321C18.3121 8.27464 18.2905 8.24976 18.2674 8.22614L13.6898 3.55547C13.6608 3.52593 13.6299 3.49878 13.5973 3.47415Z" fill="black"/>
</svg>
