<svg width="24" height="24" viewBox="0 0 24 24" fill="none" xmlns="http://www.w3.org/2000/svg">
<path fill-rule="evenodd" clip-rule="evenodd" d="M13.126 7C13.5701 5.27477 15.1362 4 17 4C19.2091 4 21 5.79086 21 8C21 10.2091 19.2091 12 17 12C15.1362 12 13.5701 10.7252 13.126 9H4C3.44771 9 3 8.55228 3 8C3 7.44772 3.44772 7 4 7L13.126 7ZM20 15C20.5523 15 21 15.4477 21 16C21 16.5523 20.5523 17 20 17L10.874 17C10.4299 18.7252 8.86384 20 7 20C4.79086 20 3 18.2091 3 16C3 13.7909 4.79086 12 7 12C8.86384 12 10.4299 13.2748 10.874 15L20 15Z" fill="black"/>
</svg>
