<svg width="24" height="24" viewBox="0 0 24 24" fill="none" xmlns="http://www.w3.org/2000/svg">
<path fill-rule="evenodd" clip-rule="evenodd" d="M6.2 2.5H6.1786C5.6367 2.49999 5.19963 2.49999 4.84569 2.52891C4.48126 2.55868 4.16117 2.62159 3.86502 2.77248C3.39462 3.01217 3.01217 3.39462 2.77248 3.86502C2.62159 4.16117 2.55868 4.48126 2.52891 4.84569C2.49999 5.19963 2.49999 5.6367 2.5 6.1786V6.2V7.8V7.8214C2.49999 8.3633 2.49999 8.80037 2.52891 9.15431C2.55868 9.51874 2.62159 9.83883 2.77248 10.135C3.01217 10.6054 3.39462 10.9878 3.86502 11.2275C4.16117 11.3784 4.48126 11.4413 4.84569 11.4711C5.19961 11.5 5.63667 11.5 6.17853 11.5H6.17858H6.2H7.8H7.82142H7.82147C8.36333 11.5 8.80039 11.5 9.15431 11.4711C9.51874 11.4413 9.83883 11.3784 10.135 11.2275C10.6054 10.9878 10.9878 10.6054 11.2275 10.135C11.3784 9.83883 11.4413 9.51874 11.4711 9.15431C11.5 8.80039 11.5 8.36333 11.5 7.82147V7.82142V7.8V6.2V6.17858V6.17853C11.5 5.63667 11.5 5.19961 11.4711 4.84569C11.4413 4.48126 11.3784 4.16117 11.2275 3.86502C10.9878 3.39462 10.6054 3.01217 10.135 2.77248C9.83883 2.62159 9.51874 2.55868 9.15431 2.52891C8.80037 2.49999 8.3633 2.49999 7.8214 2.5H7.8H6.2ZM4.31901 3.66349C4.45069 3.5964 4.62454 3.55031 4.92712 3.52559C5.23554 3.50039 5.6317 3.5 6.2 3.5H7.8C8.3683 3.5 8.76446 3.50039 9.07288 3.52559C9.37546 3.55031 9.54931 3.5964 9.68099 3.66349C9.96323 3.8073 10.1927 4.03677 10.3365 4.31901C10.4036 4.45069 10.4497 4.62454 10.4744 4.92712C10.4996 5.23554 10.5 5.6317 10.5 6.2V7.8C10.5 8.3683 10.4996 8.76446 10.4744 9.07288C10.4497 9.37546 10.4036 9.54931 10.3365 9.68099C10.1927 9.96323 9.96323 10.1927 9.68099 10.3365C9.54931 10.4036 9.37546 10.4497 9.07288 10.4744C8.76446 10.4996 8.3683 10.5 7.8 10.5H6.2C5.6317 10.5 5.23554 10.4996 4.92712 10.4744C4.62454 10.4497 4.45069 10.4036 4.31901 10.3365C4.03677 10.1927 3.8073 9.96323 3.66349 9.68099C3.5964 9.54931 3.55031 9.37546 3.52559 9.07288C3.50039 8.76446 3.5 8.3683 3.5 7.8V6.2C3.5 5.6317 3.50039 5.23554 3.52559 4.92712C3.55031 4.62454 3.5964 4.45069 3.66349 4.31901C3.8073 4.03677 4.03677 3.8073 4.31901 3.66349ZM16.2 2.5H16.1786C15.6367 2.49999 15.1996 2.49999 14.8457 2.52891C14.4813 2.55868 14.1612 2.62159 13.865 2.77248C13.3946 3.01217 13.0122 3.39462 12.7725 3.86502C12.6216 4.16117 12.5587 4.48126 12.5289 4.84569C12.5 5.19962 12.5 5.63668 12.5 6.17854V6.1786V6.2V7.8V7.8214V7.82146C12.5 8.36332 12.5 8.80038 12.5289 9.15431C12.5587 9.51874 12.6216 9.83883 12.7725 10.135C13.0122 10.6054 13.3946 10.9878 13.865 11.2275C14.1612 11.3784 14.4813 11.4413 14.8457 11.4711C15.1996 11.5 15.6367 11.5 16.1785 11.5H16.1786H16.2H17.8H17.8214H17.8215C18.3633 11.5 18.8004 11.5 19.1543 11.4711C19.5187 11.4413 19.8388 11.3784 20.135 11.2275C20.6054 10.9878 20.9878 10.6054 21.2275 10.135C21.3784 9.83883 21.4413 9.51874 21.4711 9.15431C21.5 8.80043 21.5 8.36343 21.5 7.82165V7.82161V7.82157V7.82142V7.8V6.2V6.17858V6.17844V6.17839V6.17835C21.5 5.63657 21.5 5.19957 21.4711 4.84569C21.4413 4.48126 21.3784 4.16117 21.2275 3.86502C20.9878 3.39462 20.6054 3.01217 20.135 2.77248C19.8388 2.62159 19.5187 2.55868 19.1543 2.52891C18.8004 2.49999 18.3633 2.49999 17.8214 2.5H17.8H16.2ZM14.319 3.66349C14.4507 3.5964 14.6245 3.55031 14.9271 3.52559C15.2355 3.50039 15.6317 3.5 16.2 3.5H17.8C18.3683 3.5 18.7645 3.50039 19.0729 3.52559C19.3755 3.55031 19.5493 3.5964 19.681 3.66349C19.9632 3.8073 20.1927 4.03677 20.3365 4.31901C20.4036 4.45069 20.4497 4.62454 20.4744 4.92712C20.4996 5.23554 20.5 5.6317 20.5 6.2V7.8C20.5 8.3683 20.4996 8.76446 20.4744 9.07288C20.4497 9.37546 20.4036 9.54931 20.3365 9.68099C20.1927 9.96323 19.9632 10.1927 19.681 10.3365C19.5493 10.4036 19.3755 10.4497 19.0729 10.4744C18.7645 10.4996 18.3683 10.5 17.8 10.5H16.2C15.6317 10.5 15.2355 10.4996 14.9271 10.4744C14.6245 10.4497 14.4507 10.4036 14.319 10.3365C14.0368 10.1927 13.8073 9.96323 13.6635 9.68099C13.5964 9.54931 13.5503 9.37546 13.5256 9.07288C13.5004 8.76446 13.5 8.3683 13.5 7.8V6.2C13.5 5.6317 13.5004 5.23554 13.5256 4.92712C13.5503 4.62454 13.5964 4.45069 13.6635 4.31901C13.8073 4.03677 14.0368 3.8073 14.319 3.66349ZM6.1786 12.5H6.2H7.8H7.8214H7.82146C8.36332 12.5 8.80038 12.5 9.15431 12.5289C9.51874 12.5587 9.83883 12.6216 10.135 12.7725C10.6054 13.0122 10.9878 13.3946 11.2275 13.865C11.3784 14.1612 11.4413 14.4813 11.4711 14.8457C11.5 15.1996 11.5 15.6367 11.5 16.1785V16.1786V16.2V17.8V17.8214V17.8215C11.5 18.3633 11.5 18.8004 11.4711 19.1543C11.4413 19.5187 11.3784 19.8388 11.2275 20.135C10.9878 20.6054 10.6054 20.9878 10.135 21.2275C9.83883 21.3784 9.51874 21.4413 9.15431 21.4711C8.80042 21.5 8.36341 21.5 7.82161 21.5H7.82157H7.82142H7.8H6.2H6.17858H6.17843H6.17839C5.63659 21.5 5.19958 21.5 4.84569 21.4711C4.48126 21.4413 4.16117 21.3784 3.86502 21.2275C3.39462 20.9878 3.01217 20.6054 2.77248 20.135C2.62159 19.8388 2.55868 19.5187 2.52891 19.1543C2.49999 18.8004 2.49999 18.3633 2.5 17.8214V17.8V16.2V16.1786C2.49999 15.6367 2.49999 15.1996 2.52891 14.8457C2.55868 14.4813 2.62159 14.1612 2.77248 13.865C3.01217 13.3946 3.39462 13.0122 3.86502 12.7725C4.16117 12.6216 4.48126 12.5587 4.84569 12.5289C5.19962 12.5 5.63668 12.5 6.17855 12.5H6.1786ZM4.92712 13.5256C4.62454 13.5503 4.45069 13.5964 4.31901 13.6635C4.03677 13.8073 3.8073 14.0368 3.66349 14.319C3.5964 14.4507 3.55031 14.6245 3.52559 14.9271C3.50039 15.2355 3.5 15.6317 3.5 16.2V17.8C3.5 18.3683 3.50039 18.7645 3.52559 19.0729C3.55031 19.3755 3.5964 19.5493 3.66349 19.681C3.8073 19.9632 4.03677 20.1927 4.31901 20.3365C4.45069 20.4036 4.62454 20.4497 4.92712 20.4744C5.23554 20.4996 5.6317 20.5 6.2 20.5H7.8C8.3683 20.5 8.76446 20.4996 9.07288 20.4744C9.37546 20.4497 9.54931 20.4036 9.68099 20.3365C9.96323 20.1927 10.1927 19.9632 10.3365 19.681C10.4036 19.5493 10.4497 19.3755 10.4744 19.0729C10.4996 18.7645 10.5 18.3683 10.5 17.8V16.2C10.5 15.6317 10.4996 15.2355 10.4744 14.9271C10.4497 14.6245 10.4036 14.4507 10.3365 14.319C10.1927 14.0368 9.96323 13.8073 9.68099 13.6635C9.54931 13.5964 9.37546 13.5503 9.07288 13.5256C8.76446 13.5004 8.3683 13.5 7.8 13.5H6.2C5.6317 13.5 5.23554 13.5004 4.92712 13.5256ZM16.2 12.5H16.1786H16.1785C15.6367 12.5 15.1996 12.5 14.8457 12.5289C14.4813 12.5587 14.1612 12.6216 13.865 12.7725C13.3946 13.0122 13.0122 13.3946 12.7725 13.865C12.6216 14.1612 12.5587 14.4813 12.5289 14.8457C12.5 15.1996 12.5 15.6367 12.5 16.1785V16.1786V16.2V17.8V17.8214V17.8215C12.5 18.3633 12.5 18.8004 12.5289 19.1543C12.5587 19.5187 12.6216 19.8388 12.7725 20.135C13.0122 20.6054 13.3946 20.9878 13.865 21.2275C14.1612 21.3784 14.4813 21.4413 14.8457 21.4711C15.1996 21.5 15.6366 21.5 16.1784 21.5H16.1786H16.2H17.8H17.8214H17.8216C18.3634 21.5 18.8004 21.5 19.1543 21.4711C19.5187 21.4413 19.8388 21.3784 20.135 21.2275C20.6054 20.9878 20.9878 20.6054 21.2275 20.135C21.3784 19.8388 21.4413 19.5187 21.4711 19.1543C21.5 18.8004 21.5 18.3634 21.5 17.8216V17.8214V17.8V16.2V16.1786V16.1784C21.5 15.6366 21.5 15.1996 21.4711 14.8457C21.4413 14.4813 21.3784 14.1612 21.2275 13.865C20.9878 13.3946 20.6054 13.0122 20.135 12.7725C19.8388 12.6216 19.5187 12.5587 19.1543 12.5289C18.8004 12.5 18.3633 12.5 17.8215 12.5H17.8214H17.8H16.2ZM14.319 13.6635C14.4507 13.5964 14.6245 13.5503 14.9271 13.5256C15.2355 13.5004 15.6317 13.5 16.2 13.5H17.8C18.3683 13.5 18.7645 13.5004 19.0729 13.5256C19.3755 13.5503 19.5493 13.5964 19.681 13.6635C19.9632 13.8073 20.1927 14.0368 20.3365 14.319C20.4036 14.4507 20.4497 14.6245 20.4744 14.9271C20.4996 15.2355 20.5 15.6317 20.5 16.2V17.8C20.5 18.3683 20.4996 18.7645 20.4744 19.0729C20.4497 19.3755 20.4036 19.5493 20.3365 19.681C20.1927 19.9632 19.9632 20.1927 19.681 20.3365C19.5493 20.4036 19.3755 20.4497 19.0729 20.4744C18.7645 20.4996 18.3683 20.5 17.8 20.5H16.2C15.6317 20.5 15.2355 20.4996 14.9271 20.4744C14.6245 20.4497 14.4507 20.4036 14.319 20.3365C14.0368 20.1927 13.8073 19.9632 13.6635 19.681C13.5964 19.5493 13.5503 19.3755 13.5256 19.0729C13.5004 18.7645 13.5 18.3683 13.5 17.8V16.2C13.5 15.6317 13.5004 15.2355 13.5256 14.9271C13.5503 14.6245 13.5964 14.4507 13.6635 14.319C13.8073 14.0368 14.0368 13.8073 14.319 13.6635Z" fill="black"/>
</svg>
