<svg width="24" height="24" viewBox="0 0 24 24" fill="none" xmlns="http://www.w3.org/2000/svg">
<path fill-rule="evenodd" clip-rule="evenodd" d="M9.5 21.2328H8.56037C7.5204 21.2328 6.69183 21.2329 6.04225 21.1503C5.37372 21.0654 4.81938 20.8854 4.37776 20.468C3.93215 20.0469 3.73626 19.5119 3.64452 18.867C3.55641 18.2477 3.55642 17.46 3.55644 16.4818L3.55644 11.8955L3.55642 11.7709C3.55608 10.4354 3.55587 9.59729 3.91831 8.85256C4.27891 8.11163 4.94606 7.57147 6.02008 6.70187L6.11941 6.62143L7.28059 5.68083C8.31548 4.84252 9.12819 4.18418 9.84041 3.73964C10.5709 3.28366 11.2427 3.02148 12 3.02148C12.7574 3.02148 13.4291 3.28366 14.1597 3.73964C14.8719 4.18418 15.6846 4.84252 16.7195 5.68083L17.8807 6.62143L17.98 6.70186C19.054 7.57146 19.7212 8.11163 20.0818 8.85256C20.4442 9.59729 20.444 10.4354 20.4437 11.7709L20.4436 11.8955V16.4818V16.4818C20.4437 17.46 20.4437 18.2477 20.3556 18.867C20.2638 19.5119 20.0679 20.0469 19.6223 20.468C19.1807 20.8854 18.6264 21.0654 17.9578 21.1503C17.3083 21.2329 16.4797 21.2328 15.4397 21.2328H14.5V18.2328C14.5 16.8521 13.3807 15.7328 12 15.7328C10.6193 15.7328 9.5 16.8521 9.5 18.2328V21.2328Z" fill="black"/>
</svg>
