<svg width="24" height="24" viewBox="0 0 24 24" fill="none" xmlns="http://www.w3.org/2000/svg">
<path fill-rule="evenodd" clip-rule="evenodd" d="M7.88365 6.47925C8.95067 5.61492 9.71607 4.99605 10.3699 4.58795C11.0115 4.18751 11.498 4.02148 12 4.02148C12.5021 4.02148 12.9886 4.18751 13.6302 4.58795C14.284 4.99605 15.0494 5.61492 16.1164 6.47925L17.2512 7.39848C18.4585 8.37644 18.9313 8.77375 19.1826 9.29017C19.4319 9.80248 19.4436 10.3918 19.4436 11.8955V16.4431C19.4436 17.4691 19.4425 18.1855 19.3655 18.7262C19.2911 19.2495 19.1546 19.5341 18.9355 19.7412C18.7123 19.9521 18.3993 20.0862 17.8318 20.1583C17.2526 20.2319 16.4877 20.2328 15.4044 20.2328H15V17.2328C15 15.576 13.6569 14.2328 12 14.2328C10.3431 14.2328 9 15.576 9 17.2328V20.2328H8.59564C7.51236 20.2328 6.74747 20.2319 6.16829 20.1583C5.60073 20.0862 5.28774 19.9521 5.06462 19.7412C4.84548 19.5341 4.70899 19.2495 4.63455 18.7262C4.55762 18.1855 4.55644 17.4691 4.55644 16.4431V11.8955C4.55644 10.3918 4.56815 9.80248 4.81748 9.29017C5.06881 8.77375 5.54156 8.37644 6.74885 7.39848L7.88365 6.47925ZM9.49605 21.2328C9.49737 21.2328 9.49868 21.2328 9.5 21.2328C9.50132 21.2328 9.50263 21.2328 9.50395 21.2328H14.4961C14.4974 21.2328 14.4987 21.2328 14.5 21.2328C14.5013 21.2328 14.5026 21.2328 14.5039 21.2328H15.4397C16.4797 21.2328 17.3083 21.2329 17.9578 21.1503C18.6264 21.0654 19.1807 20.8854 19.6223 20.468C20.0679 20.0469 20.2638 19.5119 20.3556 18.867C20.4437 18.2477 20.4437 17.46 20.4436 16.4818V16.4818V11.8955L20.4437 11.7709C20.444 10.4354 20.4442 9.59729 20.0818 8.85256C19.7212 8.11163 19.054 7.57146 17.98 6.70186L17.8807 6.62143L16.7195 5.68083C15.6846 4.84252 14.8719 4.18418 14.1597 3.73964C13.4291 3.28366 12.7574 3.02148 12 3.02148C11.2427 3.02148 10.5709 3.28366 9.84041 3.73964C9.12819 4.18418 8.31548 4.84252 7.28059 5.68083L7.28059 5.68083L6.11941 6.62143L6.02008 6.70187C4.94606 7.57147 4.27891 8.11163 3.91831 8.85256C3.55587 9.59729 3.55608 10.4354 3.55642 11.7709L3.55644 11.8955L3.55644 16.4818C3.55642 17.46 3.55641 18.2477 3.64452 18.867C3.73626 19.5119 3.93215 20.0469 4.37776 20.468C4.81938 20.8854 5.37372 21.0654 6.04225 21.1503C6.69183 21.2329 7.5204 21.2328 8.56037 21.2328H9.49605ZM14 20.2328H10V17.2328C10 16.1283 10.8954 15.2328 12 15.2328C13.1046 15.2328 14 16.1283 14 17.2328V20.2328Z" fill="black"/>
</svg>
