<svg width="24" height="24" viewBox="0 0 24 24" fill="none" xmlns="http://www.w3.org/2000/svg">
<path fill-rule="evenodd" clip-rule="evenodd" d="M11.8323 3.64227C7.13786 3.64227 3.33228 7.44785 3.33228 12.1423C3.33228 16.8367 7.13786 20.6423 11.8323 20.6423C16.5267 20.6423 20.3323 16.8367 20.3323 12.1423C20.3323 7.44785 16.5267 3.64227 11.8323 3.64227ZM2.33228 12.1423C2.33228 6.89557 6.58557 2.64227 11.8323 2.64227C17.079 2.64227 21.3323 6.89557 21.3323 12.1423C21.3323 17.389 17.079 21.6423 11.8323 21.6423C6.58557 21.6423 2.33228 17.389 2.33228 12.1423ZM10.9323 7.30789C10.9323 6.81083 11.3352 6.40789 11.8323 6.40789C12.3294 6.40789 12.7323 6.81083 12.7323 7.30789C12.7323 7.80494 12.3294 8.20789 11.8323 8.20789C11.3352 8.20789 10.9323 7.80494 10.9323 7.30789ZM12.8323 16.8265C12.712 16.8265 12.6178 16.8264 12.537 16.8244C12.5295 16.8242 12.5222 16.824 12.5152 16.8238C12.505 16.8234 12.4953 16.8231 12.486 16.8227C12.4854 16.8072 12.4848 16.7902 12.4844 16.7717C12.4823 16.6909 12.4823 16.5967 12.4823 16.4765L12.4823 11.52L12.4823 11.4881C12.4824 11.2805 12.4824 11.065 12.4582 10.8847C12.4302 10.6765 12.3596 10.4209 12.1455 10.2068C11.9313 9.99267 11.6758 9.92207 11.4675 9.89407C11.2873 9.86983 11.0718 9.8699 10.8642 9.86996H10.8642L10.8323 9.86997H9.77688C9.4179 9.86997 9.12688 10.161 9.12688 10.52C9.12688 10.879 9.4179 11.17 9.77688 11.17H10.8323C10.9526 11.17 11.0468 11.17 11.1275 11.1721C11.146 11.1725 11.163 11.1731 11.1786 11.1737C11.1792 11.1893 11.1797 11.2062 11.1802 11.2247C11.1823 11.3055 11.1823 11.3997 11.1823 11.52L11.1823 16.4765L11.1823 16.5083V16.5083C11.1822 16.716 11.1822 16.9314 11.2064 17.1117C11.2344 17.3199 11.305 17.5755 11.5191 17.7896C11.7332 18.0037 11.9888 18.0744 12.1971 18.1023C12.3773 18.1266 12.5928 18.1265 12.8004 18.1265H12.8004L12.8323 18.1265H13.802C14.161 18.1265 14.452 17.8354 14.452 17.4765C14.452 17.1175 14.161 16.8265 13.802 16.8265H12.8323Z" fill="black"/>
</svg>
