<svg width="24" height="24" viewBox="0 0 24 24" fill="none" xmlns="http://www.w3.org/2000/svg">
<path fill-rule="evenodd" clip-rule="evenodd" d="M15.0352 2.07666H8.94329H8.94329H8.94328C7.84233 2.07666 6.9854 2.07666 6.29801 2.13282C5.60008 2.18984 5.03302 2.30724 4.52296 2.56713C3.67623 2.99856 2.98782 3.68697 2.55639 4.5337C2.2965 5.04376 2.1791 5.61082 2.12208 6.30875C2.06591 6.99614 2.06592 7.85307 2.06592 8.95402V8.95403V8.95403V15.046V15.046C2.06592 16.1469 2.06591 17.0039 2.12208 17.6912C2.1791 18.3892 2.2965 18.9562 2.55639 19.4663C2.98782 20.313 3.67623 21.0014 4.52296 21.4329C5.03302 21.6928 5.60008 21.8102 6.29801 21.8672C6.9854 21.9233 7.84234 21.9233 8.94331 21.9233H8.94334H8.94336H8.94339H15.0351H15.0352H15.0352H15.0352C16.1362 21.9233 16.9931 21.9233 17.6805 21.8672C18.3784 21.8102 18.9455 21.6928 19.4556 21.4329C20.3023 21.0014 20.9907 20.313 21.4221 19.4663C21.682 18.9562 21.7994 18.3892 21.8564 17.6912C21.9126 17.0039 21.9126 16.1469 21.9126 15.0459V15.0459V15.0459V15.0459V8.95413V8.9541V8.95408V8.95406C21.9126 7.85308 21.9126 6.99615 21.8564 6.30875C21.7994 5.61082 21.682 5.04376 21.4221 4.5337C20.9907 3.68697 20.3023 2.99856 19.4556 2.56713C18.9455 2.30724 18.3784 2.18984 17.6805 2.13282C16.9931 2.07666 16.1362 2.07666 15.0352 2.07666H15.0352ZM7.45452 11.2694C6.98795 11.6257 6.42841 12.1736 5.63854 12.949L5.6369 12.9507L4.34107 14.2228C4.23938 14.3226 4.19674 14.3646 4.15761 14.4056C3.56563 15.0271 3.22264 15.8445 3.19386 16.7023C3.19196 16.759 3.19189 16.8188 3.19189 16.9613C3.19189 17.2828 3.19217 17.4192 3.19958 17.5308C3.31578 19.2811 4.70973 20.6751 6.46004 20.7913C6.57167 20.7987 6.70799 20.7989 7.02952 20.7989H17.5521C18.7976 20.7989 19.9227 20.0552 20.4106 18.9093C20.9348 17.6782 20.6119 16.2498 19.6092 15.3639L18.3183 14.2233C17.9867 13.9304 17.756 13.7268 17.5643 13.5788C17.3764 13.4336 17.2523 13.3629 17.1426 13.323C16.7853 13.1927 16.3918 13.203 16.0418 13.3519C15.9343 13.3976 15.8141 13.4746 15.6341 13.6295C15.4504 13.7874 15.2307 14.0028 14.9149 14.3127L14.4874 14.7324C14.1316 15.0818 13.8325 15.3754 13.5699 15.5778C13.2979 15.7875 12.993 15.9579 12.6243 15.9574C12.4336 15.9571 12.2448 15.9205 12.0678 15.8495C11.7247 15.7118 11.5051 15.4376 11.3307 15.1401C11.162 14.8521 10.9929 14.4647 10.7913 14.0028L10.7912 14.0028L10.7912 14.0027L10.7912 14.0027L10.7787 13.9741C10.3312 12.9489 10.0135 12.2234 9.71133 11.7132C9.41166 11.2071 9.17572 10.9995 8.93472 10.9115C8.78533 10.8569 8.62822 10.8264 8.46926 10.8212C8.21183 10.8128 7.9169 10.9164 7.45452 11.2694ZM16.7009 8.85889C17.5683 8.85889 18.2715 8.15572 18.2715 7.28833C18.2715 6.42094 17.5683 5.71777 16.7009 5.71777C15.8335 5.71777 15.1304 6.42094 15.1304 7.28833C15.1304 8.15572 15.8335 8.85889 16.7009 8.85889Z" fill="black"/>
</svg>
