<svg width="24" height="24" viewBox="0 0 24 24" fill="none" xmlns="http://www.w3.org/2000/svg">
<path fill-rule="evenodd" clip-rule="evenodd" d="M2.5 12.0001C2.5 6.75342 6.75329 2.50012 12 2.50012C17.2467 2.50012 21.5 6.75342 21.5 12.0001C21.5 17.2468 17.2467 21.5001 12 21.5001C6.75329 21.5001 2.5 17.2468 2.5 12.0001ZM11.1 6.89286C11.1 6.3958 11.503 5.99286 12 5.99286C12.4971 5.99286 12.9 6.3958 12.9 6.89286C12.9 7.38991 12.4971 7.79286 12 7.79286C11.503 7.79286 11.1 7.38991 11.1 6.89286ZM12.7048 16.4093C12.7856 16.4114 12.8798 16.4114 13.0001 16.4114H13.9698C14.3287 16.4114 14.6198 16.7024 14.6198 17.0614C14.6198 17.4204 14.3287 17.7114 13.9698 17.7114H13.0001L12.9682 17.7114H12.9682H12.9682C12.7606 17.7115 12.5451 17.7116 12.3648 17.6873C12.1566 17.6593 11.901 17.5887 11.6869 17.3746C11.4728 17.1605 11.4022 16.9049 11.3742 16.6967C11.35 16.5164 11.35 16.3009 11.3501 16.0933V16.0933L11.3501 16.0614V11.1049C11.3501 10.9847 11.35 10.8905 11.348 10.8097C11.3475 10.7912 11.347 10.7742 11.3463 10.7587C11.3308 10.758 11.3138 10.7575 11.2953 10.757C11.2145 10.755 11.1204 10.7549 11.0001 10.7549H9.94468C9.58569 10.7549 9.29468 10.4639 9.29468 10.1049C9.29468 9.74596 9.58569 9.45494 9.94468 9.45494L11.0001 9.45494L11.032 9.45494H11.032C11.2396 9.45487 11.4551 9.45481 11.6353 9.47904C11.8436 9.50704 12.0991 9.57765 12.3133 9.79177C12.5274 10.0059 12.598 10.2615 12.626 10.4697C12.6502 10.65 12.6502 10.8654 12.6501 11.073V11.0731L12.6501 11.1049L12.6501 16.0614C12.6501 16.1817 12.6501 16.2759 12.6522 16.3567C12.6525 16.3683 12.6528 16.3793 12.6532 16.3897C12.6534 16.3959 12.6536 16.4019 12.6538 16.4077C12.6694 16.4083 12.6863 16.4089 12.7048 16.4093Z" fill="black"/>
</svg>
