<svg width="24" height="24" viewBox="0 0 24 24" fill="none" xmlns="http://www.w3.org/2000/svg">
<path fill-rule="evenodd" clip-rule="evenodd" d="M8.94329 2.07666H15.0352C16.1362 2.07666 16.9931 2.07666 17.6805 2.13282C18.3784 2.18984 18.9455 2.30724 19.4556 2.56713C20.3023 2.99856 20.9907 3.68697 21.4221 4.5337C21.682 5.04376 21.7994 5.61082 21.8564 6.30875C21.9126 6.99615 21.9126 7.8531 21.9126 8.95408V8.9541V8.95413V15.0459V15.0459V15.0459C21.9126 16.1469 21.9126 17.0038 21.8564 17.6912C21.7994 18.3892 21.682 18.9562 21.4221 19.4663C20.9907 20.313 20.3023 21.0014 19.4556 21.4329C18.9455 21.6928 18.3784 21.8102 17.6805 21.8672C16.9931 21.9233 16.1362 21.9233 15.0352 21.9233H15.0352H15.0351H8.94339H8.94336H8.94334C7.84235 21.9233 6.98541 21.9233 6.29801 21.8672C5.60008 21.8102 5.03302 21.6928 4.52296 21.4329C3.67623 21.0014 2.98782 20.313 2.55639 19.4663C2.2965 18.9562 2.1791 18.3892 2.12208 17.6912C2.06591 17.0039 2.06592 16.1469 2.06592 15.046V8.95403V8.95403C2.06592 7.85307 2.06591 6.99614 2.12208 6.30875C2.1791 5.61082 2.2965 5.04376 2.55639 4.5337C2.98782 3.68697 3.67623 2.99856 4.52296 2.56713C5.03302 2.30724 5.60008 2.18984 6.29801 2.13282C6.9854 2.07666 7.84233 2.07666 8.94329 2.07666H8.94329ZM6.37944 3.1295C5.74335 3.18147 5.32254 3.28205 4.97695 3.45814C4.31838 3.79369 3.78295 4.32913 3.4474 4.98769C3.27131 5.33328 3.17072 5.7541 3.11875 6.39018C3.06631 7.03211 3.06592 7.8483 3.06592 8.97666V14.1546C3.17848 14.0015 3.30116 13.8549 3.43353 13.7159C3.48563 13.6612 3.54086 13.607 3.63356 13.516L4.96184 12.212C5.72132 11.4664 6.32532 10.8735 6.84763 10.4746C7.3803 10.0679 7.90377 9.80213 8.50205 9.82176C8.76698 9.83045 9.02884 9.88122 9.27782 9.97217C9.84103 10.1779 10.2283 10.6235 10.5718 11.2037C10.9091 11.7734 11.2508 12.5561 11.6809 13.5413L11.6809 13.5413L11.6809 13.5414L11.6952 13.574C11.9126 14.072 12.0584 14.404 12.1935 14.6345C12.3265 14.8614 12.4031 14.9065 12.4402 14.9214C12.4992 14.9451 12.5621 14.9573 12.6257 14.9574C12.6667 14.9575 12.754 14.9441 12.9594 14.7858C13.1687 14.6245 13.4251 14.374 13.8093 13.9969L14.2265 13.5872C14.5273 13.292 14.7704 13.0533 14.982 12.8713C15.2001 12.6838 15.4095 12.5341 15.6504 12.4317C16.2337 12.1835 16.8896 12.1663 17.4851 12.3835C17.731 12.4731 17.948 12.6116 18.1756 12.7874C18.3965 12.958 18.6518 13.1836 18.9676 13.4626L18.9676 13.4626L20.2713 14.6145C20.5162 14.8309 20.7304 15.0717 20.9125 15.3308L20.9126 15.0233V8.97666C20.9126 7.8483 20.9122 7.03211 20.8598 6.39018C20.8078 5.7541 20.7072 5.33328 20.5311 4.98769C20.1956 4.32913 19.6601 3.79369 19.0016 3.45814C18.656 3.28205 18.2352 3.18147 17.5991 3.1295C16.9571 3.07705 16.141 3.07666 15.0126 3.07666H8.96592C7.83756 3.07666 7.02137 3.07705 6.37944 3.1295ZM7.45452 11.2694C6.98763 11.6259 6.42763 12.1744 5.6369 12.9507L4.34108 14.2228C4.23938 14.3226 4.19674 14.3646 4.15761 14.4057C3.56563 15.0271 3.22264 15.8445 3.19386 16.7023C3.19196 16.759 3.1919 16.8188 3.1919 16.9613C3.19189 17.2829 3.19217 17.4192 3.19958 17.5308C3.31578 19.2811 4.70973 20.6751 6.46004 20.7913C6.57167 20.7987 6.70799 20.799 7.02952 20.799H17.5521C18.7976 20.799 19.9227 20.0552 20.4106 18.9093C20.9348 17.6782 20.6119 16.2498 19.6092 15.3639L18.3183 14.2233C17.9867 13.9304 17.756 13.7269 17.5643 13.5788C17.3764 13.4336 17.2523 13.3629 17.1426 13.323C16.7853 13.1927 16.3918 13.203 16.0418 13.3519C15.9343 13.3976 15.8141 13.4746 15.6341 13.6295C15.4504 13.7874 15.2307 14.0028 14.9149 14.3127L14.4874 14.7324L14.4874 14.7324L14.4874 14.7324C14.1316 15.0818 13.8325 15.3754 13.5699 15.5778C13.2979 15.7875 12.993 15.9579 12.6243 15.9574C12.4336 15.9571 12.2448 15.9205 12.0678 15.8495C11.7247 15.7118 11.5051 15.4376 11.3307 15.1401C11.162 14.852 10.9928 14.4646 10.7912 14.0027L10.7787 13.9741C10.3312 12.949 10.0135 12.2235 9.71133 11.7132C9.41166 11.2071 9.17572 10.9995 8.93472 10.9115C8.78533 10.8569 8.62822 10.8264 8.46926 10.8212C8.21183 10.8128 7.9169 10.9164 7.45452 11.2694ZM16.7009 8.85889C17.5683 8.85889 18.2715 8.15572 18.2715 7.28833C18.2715 6.42094 17.5683 5.71777 16.7009 5.71777C15.8335 5.71777 15.1304 6.42094 15.1304 7.28833C15.1304 8.15572 15.8335 8.85889 16.7009 8.85889Z" fill="black"/>
</svg>
