<svg width="24" height="24" viewBox="0 0 24 24" fill="none" xmlns="http://www.w3.org/2000/svg">
<path fill-rule="evenodd" clip-rule="evenodd" d="M20.5904 9.33333C20.5904 11.7266 18.6503 13.6667 16.257 13.6667C13.8638 13.6667 11.9237 11.7266 11.9237 9.33333C11.9237 6.9401 13.8638 5 16.257 5C18.6503 5 20.5904 6.9401 20.5904 9.33333ZM16.257 15.6667C19.7548 15.6667 22.5904 12.8311 22.5904 9.33333C22.5904 5.83553 19.7548 3 16.257 3C12.7592 3 9.92371 5.83553 9.92371 9.33333C9.92371 10.7213 10.3702 12.005 11.1274 13.0486L7.92356 16.2525L6.24015 14.5691C5.84962 14.1785 5.21646 14.1785 4.82593 14.5691C4.43541 14.9596 4.43541 15.5927 4.82593 15.9833L6.50935 17.6667L5.59022 18.5858L3.90681 16.9024C3.51629 16.5119 2.88313 16.5119 2.4926 16.9024C2.10208 17.2929 2.10208 17.9261 2.4926 18.3166L4.8831 20.7071C5.27363 21.0976 5.90678 21.0976 6.29731 20.7071L8.63067 18.3738L8.63068 18.3738L12.5416 14.4629C13.5852 15.2201 14.869 15.6667 16.257 15.6667Z" fill="black"/>
</svg>
