<svg width="24" height="24" viewBox="0 0 24 24" fill="none" xmlns="http://www.w3.org/2000/svg">
<path fill-rule="evenodd" clip-rule="evenodd" d="M21.0904 9.33333C21.0904 12.0027 18.9264 14.1667 16.257 14.1667C13.5877 14.1667 11.4237 12.0027 11.4237 9.33333C11.4237 6.66396 13.5877 4.5 16.257 4.5C18.9264 4.5 21.0904 6.66396 21.0904 9.33333ZM16.257 15.1667C19.4787 15.1667 22.0904 12.555 22.0904 9.33333C22.0904 6.11167 19.4787 3.5 16.257 3.5C13.0354 3.5 10.4237 6.11167 10.4237 9.33333C10.4237 10.7641 10.9388 12.0746 11.7937 13.0894L7.92356 16.9596L5.88659 14.9226C5.69133 14.7273 5.37475 14.7273 5.17949 14.9226C4.98423 15.1179 4.98423 15.4345 5.17949 15.6297L7.21646 17.6667L5.59021 19.2929L3.55326 17.2559C3.358 17.0607 3.04142 17.0607 2.84615 17.2559C2.65089 17.4512 2.65089 17.7678 2.84615 17.963L5.23666 20.3536C5.43192 20.5488 5.7485 20.5488 5.94376 20.3536L12.5008 13.7965C13.5156 14.6515 14.8262 15.1667 16.257 15.1667Z" fill="black"/>
</svg>
