<svg width="24" height="24" viewBox="0 0 24 24" fill="none" xmlns="http://www.w3.org/2000/svg">
<path fill-rule="evenodd" clip-rule="evenodd" d="M11.9916 5.7618C12.9713 4.4433 14.5413 3.58795 16.3116 3.58795C19.2821 3.58795 21.6903 5.99609 21.6903 8.96667C21.6903 10.2722 21.2245 11.4702 20.4507 12.4018C20.4351 12.4249 20.4175 12.4469 20.398 12.4675L20.3659 12.5013C20.2658 12.6161 20.1608 12.7266 20.0514 12.8325L13.087 20.1654C12.496 20.7877 11.5042 20.7882 10.9126 20.1664L3.98537 12.8853C2.94644 11.9052 2.29694 10.5141 2.29694 8.97214C2.29694 6.00155 4.70507 3.59342 7.67566 3.59342C9.44351 3.59342 11.0115 4.44641 11.9916 5.7618ZM19.6356 11.8182C19.6406 11.8116 19.6459 11.805 19.6513 11.7986C20.2997 11.0349 20.6903 10.047 20.6903 8.96667C20.6903 6.54837 18.7299 4.58795 16.3116 4.58795C14.6296 4.58795 13.1684 5.53607 12.4346 6.92934C12.3481 7.09345 12.178 7.19622 11.9925 7.19634C11.807 7.19646 11.6367 7.0939 11.5501 6.92991C10.8154 5.53931 9.35559 4.59342 7.67566 4.59342C5.25736 4.59342 3.29694 6.55384 3.29694 8.97214C3.29694 10.2317 3.82815 11.3665 4.6802 12.166C4.6871 12.1724 4.69381 12.1791 4.70032 12.186L11.6371 19.4771C11.8343 19.6843 12.1649 19.6842 12.3619 19.4768L19.3337 12.136C19.3388 12.1306 19.344 12.1254 19.3494 12.1202C19.4432 12.0298 19.533 11.9353 19.6185 11.8369C19.6234 11.8313 19.6283 11.8258 19.6334 11.8204L19.6356 11.8182Z" fill="black"/>
</svg>
