<svg width="24" height="24" viewBox="0 0 24 24" fill="none" xmlns="http://www.w3.org/2000/svg">
<path fill-rule="evenodd" clip-rule="evenodd" d="M6 5C6 6.10457 5.10457 7 4 7C2.89543 7 2 6.10457 2 5C2 3.89543 2.89543 3 4 3C5.10457 3 6 3.89543 6 5ZM4 14C5.10457 14 6 13.1046 6 12C6 10.8954 5.10457 10 4 10C2.89543 10 2 10.8954 2 12C2 13.1046 2.89543 14 4 14ZM8 11.5C7.72386 11.5 7.5 11.7239 7.5 12C7.5 12.2761 7.72386 12.5 8 12.5L21 12.5C21.2761 12.5 21.5 12.2761 21.5 12C21.5 11.7239 21.2761 11.5 21 11.5L8 11.5ZM6 19C6 20.1046 5.10457 21 4 21C2.89543 21 2 20.1046 2 19C2 17.8954 2.89543 17 4 17C5.10457 17 6 17.8954 6 19ZM8 18.5C7.72386 18.5 7.5 18.7239 7.5 19C7.5 19.2761 7.72386 19.5 8 19.5L21 19.5C21.2761 19.5 21.5 19.2761 21.5 19C21.5 18.7239 21.2761 18.5 21 18.5L8 18.5ZM8 4.5C7.72386 4.5 7.5 4.72386 7.5 5C7.5 5.27614 7.72386 5.5 8 5.5L21 5.5C21.2761 5.5 21.5 5.27614 21.5 5C21.5 4.72386 21.2761 4.5 21 4.5L8 4.5Z" fill="black"/>
</svg>
