<svg width="24" height="24" viewBox="0 0 24 24" fill="none" xmlns="http://www.w3.org/2000/svg">
<path fill-rule="evenodd" clip-rule="evenodd" d="M16.3116 3.58795C14.5413 3.58795 12.9713 4.4433 11.9916 5.7618C11.0115 4.44641 9.44351 3.59342 7.67566 3.59342C4.70507 3.59342 2.29694 6.00155 2.29694 8.97214C2.29694 10.5141 2.94644 11.9052 3.98537 12.8853L10.9126 20.1664C11.5042 20.7882 12.496 20.7877 13.087 20.1654L20.0514 12.8325C20.1608 12.7266 20.2658 12.6161 20.3659 12.5013L20.398 12.4675C20.4175 12.4469 20.4351 12.4249 20.4507 12.4018C21.2245 11.4702 21.6903 10.2722 21.6903 8.96667C21.6903 5.99609 19.2821 3.58795 16.3116 3.58795Z" fill="black"/>
</svg>
