<svg width="24" height="24" viewBox="0 0 24 24" fill="none" xmlns="http://www.w3.org/2000/svg">
<path fill-rule="evenodd" clip-rule="evenodd" d="M19.1543 4.52891C18.8004 4.49999 18.3633 4.5 17.8214 4.5H17.8214H6.1786H6.17859C5.6367 4.5 5.19963 4.49999 4.84569 4.52891C4.48126 4.55868 4.16117 4.62159 3.86502 4.77248C3.39462 5.01217 3.01217 5.39462 2.77248 5.86502C2.62159 6.16117 2.55868 6.48126 2.52891 6.84569C2.52529 6.88993 2.52213 6.93547 2.51936 6.98236C2.49999 7.31053 2.5 7.70444 2.5 8.1786V10.3249V15.8214C2.5 16.3633 2.49999 16.8004 2.52891 17.1543C2.55868 17.5187 2.62159 17.8388 2.77248 18.135C3.01217 18.6054 3.39462 18.9878 3.86502 19.2275C4.16117 19.3784 4.48126 19.4413 4.84569 19.4711C5.19961 19.5 5.63667 19.5 6.17853 19.5H6.17858H17.8214H17.8215C18.3633 19.5 18.8004 19.5 19.1543 19.4711C19.5187 19.4413 19.8388 19.3784 20.135 19.2275C20.6054 18.9878 20.9878 18.6054 21.2275 18.135C21.3784 17.8388 21.4413 17.5187 21.4711 17.1543C21.5 16.8004 21.5 16.3633 21.5 15.8214V10.3249V8.17859C21.5 8.14472 21.5 8.11126 21.5 8.0782C21.4999 7.58239 21.4982 7.1775 21.4711 6.84569C21.4413 6.48126 21.3784 6.16117 21.2275 5.86502C20.9878 5.39462 20.6054 5.01217 20.135 4.77248C19.8388 4.62159 19.5187 4.55868 19.1543 4.52891ZM20.5 9.67506V8.2C20.5 7.6317 20.4996 7.23554 20.4744 6.92712C20.4497 6.62454 20.4036 6.45069 20.3365 6.31901C20.1927 6.03677 19.9632 5.8073 19.681 5.66349C19.5493 5.5964 19.3755 5.55031 19.0729 5.52559C18.7645 5.50039 18.3683 5.5 17.8 5.5H6.2C5.6317 5.5 5.23554 5.50039 4.92712 5.52559C4.62454 5.55031 4.45069 5.5964 4.31901 5.66349C4.03677 5.8073 3.8073 6.03677 3.66349 6.31901C3.5964 6.45069 3.55031 6.62454 3.52559 6.92712C3.50039 7.23554 3.5 7.6317 3.5 8.2V9.67506L10.9034 12.9655C11.4054 13.1886 11.5782 13.2614 11.7502 13.2904C11.9156 13.3183 12.0844 13.3183 12.2498 13.2904C12.4218 13.2614 12.5946 13.1886 13.0966 12.9655L20.5 9.67506ZM3.5 10.7694L10.4973 13.8793L10.5532 13.9041L10.5532 13.9041C10.9779 14.0931 11.2718 14.2238 11.5837 14.2765C11.8593 14.323 12.1407 14.323 12.4163 14.2765C12.7282 14.2238 13.0221 14.0931 13.4468 13.9041L13.5027 13.8793L20.5 10.7694V15.8C20.5 16.3683 20.4996 16.7645 20.4744 17.0729C20.4497 17.3755 20.4036 17.5493 20.3365 17.681C20.1927 17.9632 19.9632 18.1927 19.681 18.3365C19.5493 18.4036 19.3755 18.4497 19.0729 18.4744C18.7645 18.4996 18.3683 18.5 17.8 18.5H6.2C5.6317 18.5 5.23554 18.4996 4.92712 18.4744C4.62454 18.4497 4.45069 18.4036 4.31901 18.3365C4.03677 18.1927 3.8073 17.9632 3.66349 17.681C3.5964 17.5493 3.55031 17.3755 3.52559 17.0729C3.50039 16.7645 3.5 16.3683 3.5 15.8V10.7694Z" fill="black"/>
</svg>
