<svg width="24" height="24" viewBox="0 0 24 24" fill="none" xmlns="http://www.w3.org/2000/svg">
<path fill-rule="evenodd" clip-rule="evenodd" d="M6.5 15C6.5 17.141 7.72329 18.9962 9.50904 19.9049C9.50311 19.9357 9.5 19.9675 9.5 20V22C9.5 22.2761 9.72386 22.5 10 22.5C10.2761 22.5 10.5 22.2761 10.5 22V20.293C10.9768 20.4278 11.48 20.5 12 20.5C12.52 20.5 13.0232 20.4278 13.5 20.293V22C13.5 22.2761 13.7239 22.5 14 22.5C14.2761 22.5 14.5 22.2761 14.5 22V20C14.5 19.9675 14.4969 19.9357 14.491 19.9049C16.2767 18.9962 17.5 17.141 17.5 15V11.4646C19.1961 11.2219 20.5 9.76324 20.5 8C20.5 7.72386 20.2761 7.5 20 7.5C19.7239 7.5 19.5 7.72386 19.5 8C19.5 9.20948 18.6411 10.2184 17.5 10.45V8C17.5 4.96243 15.0376 2.5 12 2.5C8.96243 2.5 6.5 4.96243 6.5 8V10.5354C4.80385 10.7781 3.5 12.2368 3.5 14C3.5 14.2761 3.72386 14.5 4 14.5C4.27614 14.5 4.5 14.2761 4.5 14C4.5 12.7905 5.35888 11.7816 6.5 11.55V15ZM7.5 11.8369V11V8C7.5 5.51472 9.51472 3.5 12 3.5C14.4853 3.5 16.5 5.51472 16.5 8V11V11.8369C15.5046 10.4234 13.8602 9.5 12 9.5C10.1398 9.5 8.49537 10.4234 7.5 11.8369ZM7.5 15C7.5 12.5147 9.51472 10.5 12 10.5C14.4853 10.5 16.5 12.5147 16.5 15C16.5 17.4853 14.4853 19.5 12 19.5C9.51472 19.5 7.5 17.4853 7.5 15Z" fill="black"/>
</svg>
