<svg width="24" height="24" viewBox="0 0 24 24" fill="none" xmlns="http://www.w3.org/2000/svg">
<path fill-rule="evenodd" clip-rule="evenodd" d="M4.79995 3.70001C4.50821 3.70001 4.22842 3.8159 4.02213 4.02219C3.81584 4.22848 3.69995 4.50827 3.69995 4.80001C3.69995 5.09175 3.81584 5.37154 4.02213 5.57783C4.22842 5.78412 4.50821 5.90001 4.79995 5.90001C5.09169 5.90001 5.37148 5.78412 5.57777 5.57783C5.78406 5.37154 5.89995 5.09175 5.89995 4.80001C5.89995 4.50827 5.78406 4.22848 5.57777 4.02219C5.37148 3.8159 5.09169 3.70001 4.79995 3.70001ZM3.31503 3.31509C3.70885 2.92126 4.243 2.70001 4.79995 2.70001C5.35691 2.70001 5.89105 2.92126 6.28488 3.31509C6.6787 3.70891 6.89995 4.24306 6.89995 4.80001C6.89995 5.35697 6.6787 5.89111 6.28488 6.28494C5.89105 6.67876 5.35691 6.90001 4.79995 6.90001C4.243 6.90001 3.70885 6.67876 3.31503 6.28494C2.9212 5.89111 2.69995 5.35697 2.69995 4.80001C2.69995 4.24306 2.9212 3.70891 3.31503 3.31509ZM4.79995 10.9C4.50821 10.9 4.22842 11.0159 4.02213 11.2222C3.81584 11.4285 3.69995 11.7083 3.69995 12C3.69995 12.2917 3.81584 12.5715 4.02213 12.7778C4.22842 12.9841 4.50821 13.1 4.79995 13.1C5.09169 13.1 5.37148 12.9841 5.57777 12.7778C5.78406 12.5715 5.89995 12.2917 5.89995 12C5.89995 11.7083 5.78406 11.4285 5.57777 11.2222C5.37148 11.0159 5.09169 10.9 4.79995 10.9ZM3.31503 10.5151C3.70885 10.1212 4.243 9.89999 4.79995 9.89999C5.35691 9.89999 5.89105 10.1212 6.28488 10.5151C6.6787 10.9089 6.89995 11.443 6.89995 12C6.89995 12.5569 6.6787 13.0911 6.28488 13.4849C5.89105 13.8787 5.35691 14.1 4.79995 14.1C4.243 14.1 3.70885 13.8787 3.31503 13.4849C2.9212 13.0911 2.69995 12.5569 2.69995 12C2.69995 11.443 2.9212 10.9089 3.31503 10.5151ZM4.79995 17.1C4.243 17.1 3.70885 17.3213 3.31503 17.7151C2.9212 18.1089 2.69995 18.6431 2.69995 19.2C2.69995 19.757 2.9212 20.2911 3.31503 20.6849C3.70885 21.0788 4.243 21.3 4.79995 21.3C5.35691 21.3 5.89105 21.0788 6.28488 20.6849C6.6787 20.2911 6.89995 19.757 6.89995 19.2C6.89995 18.6431 6.6787 18.1089 6.28488 17.7151C5.89105 17.3213 5.35691 17.1 4.79995 17.1ZM4.02213 18.4222C4.22842 18.2159 4.50821 18.1 4.79995 18.1C5.09169 18.1 5.37148 18.2159 5.57777 18.4222C5.78406 18.6285 5.89995 18.9083 5.89995 19.2C5.89995 19.4917 5.78406 19.7715 5.57777 19.9778C5.37148 20.1841 5.09169 20.3 4.79995 20.3C4.50821 20.3 4.22842 20.1841 4.02213 19.9778C3.81584 19.7715 3.69995 19.4917 3.69995 19.2C3.69995 18.9083 3.81584 18.6285 4.02213 18.4222ZM12 3.70001C11.7083 3.70001 11.4285 3.8159 11.2222 4.02219C11.0159 4.22848 10.9 4.50827 10.9 4.80001C10.9 5.09175 11.0159 5.37154 11.2222 5.57783C11.4285 5.78412 11.7083 5.90001 12 5.90001C12.2918 5.90001 12.5716 5.78412 12.7778 5.57783C12.9841 5.37154 13.1 5.09175 13.1 4.80001C13.1 4.50827 12.9841 4.22848 12.7778 4.02219C12.5716 3.8159 12.2918 3.70001 12 3.70001ZM10.5151 3.31509C10.9089 2.92126 11.4431 2.70001 12 2.70001C12.557 2.70001 13.0911 2.92126 13.4849 3.31509C13.8788 3.70891 14.1 4.24306 14.1 4.80001C14.1 5.35697 13.8788 5.89111 13.4849 6.28494C13.0911 6.67876 12.557 6.90001 12 6.90001C11.4431 6.90001 10.9089 6.67876 10.5151 6.28494C10.1213 5.89111 9.90002 5.35697 9.90002 4.80001C9.90002 4.24306 10.1213 3.70891 10.5151 3.31509ZM12 9.89999C11.4431 9.89999 10.9089 10.1212 10.5151 10.5151C10.1213 10.9089 9.90002 11.443 9.90002 12C9.90002 12.5569 10.1213 13.0911 10.5151 13.4849C10.9089 13.8787 11.4431 14.1 12 14.1C12.557 14.1 13.0911 13.8787 13.4849 13.4849C13.8788 13.0911 14.1 12.5569 14.1 12C14.1 11.443 13.8788 10.9089 13.4849 10.5151C13.0911 10.1212 12.557 9.89999 12 9.89999ZM11.2222 11.2222C11.4285 11.0159 11.7083 10.9 12 10.9C12.2918 10.9 12.5716 11.0159 12.7778 11.2222C12.9841 11.4285 13.1 11.7083 13.1 12C13.1 12.2917 12.9841 12.5715 12.7778 12.7778C12.5716 12.9841 12.2918 13.1 12 13.1C11.7083 13.1 11.4285 12.9841 11.2222 12.7778C11.0159 12.5715 10.9 12.2917 10.9 12C10.9 11.7083 11.0159 11.4285 11.2222 11.2222ZM12 18.1C11.7083 18.1 11.4285 18.2159 11.2222 18.4222C11.0159 18.6285 10.9 18.9083 10.9 19.2C10.9 19.4917 11.0159 19.7715 11.2222 19.9778C11.4285 20.1841 11.7083 20.3 12 20.3C12.2918 20.3 12.5716 20.1841 12.7778 19.9778C12.9841 19.7715 13.1 19.4917 13.1 19.2C13.1 18.9083 12.9841 18.6285 12.7778 18.4222C12.5716 18.2159 12.2918 18.1 12 18.1ZM10.5151 17.7151C10.9089 17.3213 11.4431 17.1 12 17.1C12.557 17.1 13.0911 17.3213 13.4849 17.7151C13.8788 18.1089 14.1 18.6431 14.1 19.2C14.1 19.757 13.8788 20.2911 13.4849 20.6849C13.0911 21.0788 12.557 21.3 12 21.3C11.4431 21.3 10.9089 21.0788 10.5151 20.6849C10.1213 20.2911 9.90002 19.757 9.90002 19.2C9.90002 18.6431 10.1213 18.1089 10.5151 17.7151ZM19.2 2.70001C18.643 2.70001 18.1089 2.92126 17.7151 3.31509C17.3212 3.70891 17.1 4.24306 17.1 4.80001C17.1 5.35697 17.3212 5.89111 17.7151 6.28494C18.1089 6.67876 18.643 6.90001 19.2 6.90001C19.7569 6.90001 20.2911 6.67876 20.6849 6.28494C21.0787 5.89111 21.3 5.35697 21.3 4.80001C21.3 4.24306 21.0787 3.70891 20.6849 3.31509C20.2911 2.92126 19.7569 2.70001 19.2 2.70001ZM18.4222 4.02219C18.6284 3.8159 18.9082 3.70001 19.2 3.70001C19.4917 3.70001 19.7715 3.8159 19.9778 4.02219C20.1841 4.22848 20.3 4.50827 20.3 4.80001C20.3 5.09175 20.1841 5.37154 19.9778 5.57783C19.7715 5.78412 19.4917 5.90001 19.2 5.90001C18.9082 5.90001 18.6284 5.78412 18.4222 5.57783C18.2159 5.37154 18.1 5.09175 18.1 4.80001C18.1 4.50827 18.2159 4.22848 18.4222 4.02219ZM19.2 10.9C18.9082 10.9 18.6284 11.0159 18.4222 11.2222C18.2159 11.4285 18.1 11.7083 18.1 12C18.1 12.2917 18.2159 12.5715 18.4222 12.7778C18.6284 12.9841 18.9082 13.1 19.2 13.1C19.4917 13.1 19.7715 12.9841 19.9778 12.7778C20.1841 12.5715 20.3 12.2917 20.3 12C20.3 11.7083 20.1841 11.4285 19.9778 11.2222C19.7715 11.0159 19.4917 10.9 19.2 10.9ZM17.7151 10.5151C18.1089 10.1212 18.643 9.89999 19.2 9.89999C19.7569 9.89999 20.2911 10.1212 20.6849 10.5151C21.0787 10.9089 21.3 11.443 21.3 12C21.3 12.5569 21.0787 13.0911 20.6849 13.4849C20.2911 13.8787 19.7569 14.1 19.2 14.1C18.643 14.1 18.1089 13.8787 17.7151 13.4849C17.3212 13.0911 17.1 12.5569 17.1 12C17.1 11.443 17.3212 10.9089 17.7151 10.5151ZM19.2 17.1C18.643 17.1 18.1089 17.3213 17.7151 17.7151C17.3212 18.1089 17.1 18.6431 17.1 19.2C17.1 19.757 17.3212 20.2911 17.7151 20.6849C18.1089 21.0788 18.643 21.3 19.2 21.3C19.7569 21.3 20.2911 21.0788 20.6849 20.6849C21.0787 20.2911 21.3 19.757 21.3 19.2C21.3 18.6431 21.0787 18.1089 20.6849 17.7151C20.2911 17.3213 19.7569 17.1 19.2 17.1ZM18.4222 18.4222C18.6284 18.2159 18.9082 18.1 19.2 18.1C19.4917 18.1 19.7715 18.2159 19.9778 18.4222C20.1841 18.6285 20.3 18.9083 20.3 19.2C20.3 19.4917 20.1841 19.7715 19.9778 19.9778C19.7715 20.1841 19.4917 20.3 19.2 20.3C18.9082 20.3 18.6284 20.1841 18.4222 19.9778C18.2159 19.7715 18.1 19.4917 18.1 19.2C18.1 18.9083 18.2159 18.6285 18.4222 18.4222Z" fill="black"/>
</svg>
