<svg width="24" height="24" viewBox="0 0 24 24" fill="none" xmlns="http://www.w3.org/2000/svg">
<path fill-rule="evenodd" clip-rule="evenodd" d="M12 2.02856C12.2762 2.02856 12.5 2.25242 12.5 2.52856V4.51643C16.2438 4.76284 19.2372 7.75627 19.4836 11.5H21.4525C21.7286 11.5 21.9525 11.7239 21.9525 12C21.9525 12.2762 21.7286 12.5 21.4525 12.5H19.4836C19.2372 16.2438 16.2438 19.2372 12.5 19.4836V21.4715C12.5 21.7476 12.2762 21.9715 12 21.9715C11.7239 21.9715 11.5 21.7476 11.5 21.4715V19.4836C7.75627 19.2372 4.76284 16.2438 4.51642 12.5H2.54755C2.2714 12.5 2.04755 12.2762 2.04755 12C2.04755 11.7239 2.2714 11.5 2.54755 11.5H4.51642C4.76284 7.75627 7.75627 4.76284 11.5 4.51643V2.52856C11.5 2.25242 11.7239 2.02856 12 2.02856ZM5.50002 12C5.50002 8.41017 8.41017 5.50002 12 5.50002C15.5899 5.50002 18.5 8.41017 18.5 12C18.5 15.5899 15.5899 18.5 12 18.5C8.41017 18.5 5.50002 15.5899 5.50002 12ZM8.50002 12C8.50002 10.067 10.067 8.50002 12 8.50002C13.933 8.50002 15.5 10.067 15.5 12C15.5 13.933 13.933 15.5 12 15.5C10.067 15.5 8.50002 13.933 8.50002 12ZM12 7.50002C9.51474 7.50002 7.50002 9.51474 7.50002 12C7.50002 14.4853 9.51474 16.5 12 16.5C14.4853 16.5 16.5 14.4853 16.5 12C16.5 9.51474 14.4853 7.50002 12 7.50002Z" fill="black"/>
</svg>
