<svg width="24" height="24" viewBox="0 0 24 24" fill="none" xmlns="http://www.w3.org/2000/svg">
<path fill-rule="evenodd" clip-rule="evenodd" d="M4.62427 4.5C3.24356 4.5 2.12427 5.61929 2.12427 7V17C2.12427 18.3807 3.24356 19.5 4.62427 19.5H19.3757C20.7564 19.5 21.8757 18.3807 21.8757 17V7C21.8757 5.61929 20.7564 4.5 19.3757 4.5H4.62427ZM3.12427 7C3.12427 6.17157 3.79584 5.5 4.62427 5.5H19.3757C20.2041 5.5 20.8757 6.17157 20.8757 7V17C20.8757 17.8284 20.2041 18.5 19.3757 18.5H4.62427C3.79584 18.5 3.12427 17.8284 3.12427 17V7ZM5 7.5C4.72386 7.5 4.5 7.72386 4.5 8C4.5 8.27614 4.72386 8.5 5 8.5H8C8.27614 8.5 8.5 8.27614 8.5 8C8.5 7.72386 8.27614 7.5 8 7.5H5ZM15.5 16C15.5 15.7239 15.7239 15.5 16 15.5H19C19.2761 15.5 19.5 15.7239 19.5 16C19.5 16.2761 19.2761 16.5 19 16.5H16C15.7239 16.5 15.5 16.2761 15.5 16ZM9.86957 12C9.86957 10.8234 10.8234 9.86957 12 9.86957C13.1766 9.86957 14.1304 10.8234 14.1304 12C14.1304 13.1766 13.1766 14.1304 12 14.1304C10.8234 14.1304 9.86957 13.1766 9.86957 12ZM12 8.86957C10.2711 8.86957 8.86957 10.2711 8.86957 12C8.86957 13.7289 10.2711 15.1304 12 15.1304C13.7289 15.1304 15.1304 13.7289 15.1304 12C15.1304 10.2711 13.7289 8.86957 12 8.86957Z" fill="black"/>
</svg>
