<svg width="24" height="24" viewBox="0 0 24 24" fill="none" xmlns="http://www.w3.org/2000/svg">
<path fill-rule="evenodd" clip-rule="evenodd" d="M8.77779 3.94959H15.2222H15.2222C16.0435 3.94958 16.6905 3.94958 17.2111 3.99212C17.7423 4.03552 18.1859 4.12567 18.589 4.33106C19.2475 4.66662 19.783 5.20205 20.1185 5.86062C20.3239 6.26372 20.4141 6.7073 20.4575 7.23848C20.5 7.75913 20.5 8.4061 20.5 9.22737V12.6718C20.5 13.4931 20.5 14.14 20.4575 14.6607C20.4141 15.1919 20.3239 15.6355 20.1185 16.0386C19.783 16.6971 19.2475 17.2326 18.589 17.5681C18.1859 17.7735 17.7423 17.8637 17.2111 17.9071C16.6905 17.9496 16.0435 17.9496 15.2222 17.9496H6.75C6.59262 17.9496 6.44443 18.0237 6.35 18.1496L5.21 19.6696C4.66222 20.4 3.5 20.0125 3.5 19.0996V9.22738V9.22737C3.5 8.4061 3.49999 7.75913 3.54253 7.23848C3.58593 6.7073 3.67609 6.26372 3.88148 5.86062C4.21703 5.20205 4.75247 4.66662 5.41103 4.33106C5.81414 4.12567 6.25771 4.03552 6.78889 3.99212C7.30954 3.94958 7.95652 3.94958 8.77778 3.94959H8.77779ZM7.70874 9.50003C7.70874 9.22389 7.9326 9.00003 8.20874 9.00003H15.7913C16.0674 9.00003 16.2913 9.22389 16.2913 9.50003C16.2913 9.77617 16.0674 10 15.7913 10H8.20874C7.9326 10 7.70874 9.77617 7.70874 9.50003ZM7.70874 12.5C7.70874 12.2239 7.9326 12 8.20874 12H13.6248C13.901 12 14.1248 12.2239 14.1248 12.5C14.1248 12.7762 13.901 13 13.6248 13H8.20874C7.9326 13 7.70874 12.7762 7.70874 12.5Z" fill="black"/>
</svg>
