<svg width="24" height="24" viewBox="0 0 24 24" fill="none" xmlns="http://www.w3.org/2000/svg">
<path fill-rule="evenodd" clip-rule="evenodd" d="M20.5 8.2V9.67506L13.0966 12.9655C12.5946 13.1886 12.4218 13.2614 12.2498 13.2904C12.0844 13.3183 11.9156 13.3183 11.7502 13.2904C11.5782 13.2614 11.4054 13.1886 10.9034 12.9655L3.5 9.67506V8.2C3.5 7.6317 3.50039 7.23554 3.52559 6.92712C3.55031 6.62454 3.5964 6.45069 3.66349 6.31901C3.8073 6.03677 4.03677 5.8073 4.31901 5.66349C4.45069 5.5964 4.62454 5.55031 4.92712 5.52559C5.23554 5.50039 5.6317 5.5 6.2 5.5H17.8C18.3683 5.5 18.7645 5.50039 19.0729 5.52559C19.3755 5.55031 19.5493 5.5964 19.681 5.66349C19.9632 5.8073 20.1927 6.03677 20.3365 6.31901C20.4036 6.45069 20.4497 6.62454 20.4744 6.92712C20.4996 7.23554 20.5 7.6317 20.5 8.2ZM10.4973 13.8793L3.5 10.7694V15.8C3.5 16.3683 3.50039 16.7645 3.52559 17.0729C3.55031 17.3755 3.5964 17.5493 3.66349 17.681C3.8073 17.9632 4.03677 18.1927 4.31901 18.3365C4.45069 18.4036 4.62454 18.4497 4.92712 18.4744C5.23554 18.4996 5.6317 18.5 6.2 18.5H17.8C18.3683 18.5 18.7645 18.4996 19.0729 18.4744C19.3755 18.4497 19.5493 18.4036 19.681 18.3365C19.9632 18.1927 20.1927 17.9632 20.3365 17.681C20.4036 17.5493 20.4497 17.3755 20.4744 17.0729C20.4996 16.7645 20.5 16.3683 20.5 15.8V10.7694L13.5027 13.8793L13.4468 13.9041C13.0221 14.0931 12.7282 14.2238 12.4163 14.2765C12.1407 14.323 11.8593 14.323 11.5837 14.2765C11.2718 14.2238 10.9779 14.0931 10.5532 13.9041L10.5532 13.9041L10.4973 13.8793Z" fill="black"/>
</svg>
