<svg width="24" height="24" viewBox="0 0 24 24" fill="none" xmlns="http://www.w3.org/2000/svg">
<path fill-rule="evenodd" clip-rule="evenodd" d="M12 2.5C8.96243 2.5 6.5 4.96243 6.5 8V10.5354C4.80385 10.7781 3.5 12.2368 3.5 14C3.5 14.2761 3.72386 14.5 4 14.5C4.27614 14.5 4.5 14.2761 4.5 14C4.5 12.7905 5.35888 11.7816 6.5 11.55V12.6218L7.35497 11.7599C8.5274 10.578 10.1823 9.8455 12 9.8455C13.8177 9.8455 15.4726 10.578 16.645 11.7599L17.5 12.6218V11.4646C19.1961 11.2219 20.5 9.76324 20.5 8C20.5 7.72386 20.2761 7.5 20 7.5C19.7239 7.5 19.5 7.72386 19.5 8C19.5 9.20948 18.6411 10.2184 17.5 10.45V8C17.5 4.96243 15.0376 2.5 12 2.5ZM12 10.8455C9.00649 10.8455 6.61698 13.1509 6.59223 15.9563L6.59179 16.0068L6.60142 16.0563C6.92915 17.7402 8.02467 19.1496 9.50903 19.9049C9.5031 19.9357 9.5 19.9675 9.5 20V22C9.5 22.2761 9.72386 22.5 10 22.5C10.2761 22.5 10.5 22.2761 10.5 22V20.293C10.9768 20.4278 11.48 20.5 12 20.5C12.52 20.5 13.0232 20.4278 13.5 20.293V22C13.5 22.2761 13.7239 22.5 14 22.5C14.2761 22.5 14.5 22.2761 14.5 22V20C14.5 19.9675 14.4969 19.9357 14.491 19.9049C15.9753 19.1496 17.0708 17.7402 17.3986 16.0563L17.4082 16.0068L17.4078 15.9563C17.383 13.1509 14.9935 10.8455 12 10.8455Z" fill="black"/>
</svg>
