<svg width="24" height="24" viewBox="0 0 24 24" fill="none" xmlns="http://www.w3.org/2000/svg">
<path fill-rule="evenodd" clip-rule="evenodd" d="M7.5 3.50067C6.39543 3.50067 5.5 4.3961 5.5 5.50067C5.5 6.43207 6.13668 7.21477 6.99856 7.43729V8.17415C6.8418 8.27142 6.68184 8.39428 6.47604 8.55233L6.43904 8.58074L5.94704 8.95842L5.89315 8.99977C5.48591 9.31217 5.20419 9.52827 4.99669 9.80622C4.8135 10.0516 4.67696 10.3286 4.59385 10.6233C4.49972 10.9571 4.49984 11.3122 4.50001 11.8255L4.50003 11.8934L4.50003 16.8207C4.50002 17.3626 4.50002 17.7997 4.52894 18.1536C4.55871 18.5181 4.62162 18.8382 4.77251 19.1343C5.0122 19.6047 5.39465 19.9872 5.86505 20.2269C6.1612 20.3777 6.48129 20.4407 6.84572 20.4704C7.19963 20.4993 7.63668 20.4993 8.17852 20.4993H8.17856H8.17861H15.8214H15.8215H15.8215C16.3634 20.4993 16.8004 20.4993 17.1543 20.4704C17.5188 20.4407 17.8389 20.3777 18.135 20.2269C18.6054 19.9872 18.9879 19.6047 19.2275 19.1343C19.3784 18.8382 19.4413 18.5181 19.4711 18.1536C19.5 17.7997 19.5 17.3627 19.5 16.8208V16.8208V11.8924L19.5 11.8245C19.5002 11.3116 19.5003 10.9567 19.4063 10.623C19.3233 10.3285 19.1869 10.0516 19.0039 9.8063C18.7966 9.52843 18.5151 9.31231 18.1083 8.99989L18.0544 8.95855L17.5642 8.58183L17.5272 8.55339C17.3201 8.39417 17.1594 8.27061 17.0016 8.17293V7.43725C17.8634 7.21466 18.5 6.43201 18.5 5.50067C18.5 4.3961 17.6046 3.50067 16.5 3.50067H7.5ZM16.5 6.50067C17.0523 6.50067 17.5 6.05296 17.5 5.50067C17.5 4.94839 17.0523 4.50067 16.5 4.50067H7.5C6.94772 4.50067 6.5 4.94839 6.5 5.50067C6.5 6.05296 6.94772 6.50067 7.5 6.50067H16.5ZM12.5 10.6509C12.5 10.3748 12.2761 10.1509 12 10.1509C11.7239 10.1509 11.5 10.3748 11.5 10.6509V13.1509H9C8.72386 13.1509 8.5 13.3748 8.5 13.6509C8.5 13.9271 8.72386 14.1509 9 14.1509H11.5V16.6509C11.5 16.9271 11.7239 17.1509 12 17.1509C12.2761 17.1509 12.5 16.9271 12.5 16.6509V14.1509H15C15.2761 14.1509 15.5 13.9271 15.5 13.6509C15.5 13.3748 15.2761 13.1509 15 13.1509H12.5V10.6509Z" fill="black"/>
</svg>
