<svg width="24" height="24" viewBox="0 0 24 24" fill="none" xmlns="http://www.w3.org/2000/svg">
<path fill-rule="evenodd" clip-rule="evenodd" d="M5.5 5.50067C5.5 4.3961 6.39543 3.50067 7.5 3.50067H16.5C17.6046 3.50067 18.5 4.3961 18.5 5.50067C18.5 6.43201 17.8634 7.21466 17.0016 7.43725V8.17293C17.1594 8.27061 17.3201 8.39416 17.5272 8.55339L17.5642 8.58183L18.0544 8.95855L18.1083 8.99989C18.5151 9.3123 18.7966 9.52842 19.0039 9.8063C19.1869 10.0516 19.3233 10.3285 19.4063 10.623C19.5003 10.9567 19.5002 11.3116 19.5 11.8245L19.5 11.8924V16.8207V16.8208C19.5 17.3627 19.5 17.7997 19.4711 18.1536C19.4413 18.5181 19.3784 18.8382 19.2275 19.1343C18.9879 19.6047 18.6054 19.9872 18.135 20.2268C17.8389 20.3777 17.5188 20.4406 17.1543 20.4704C16.8004 20.4993 16.3634 20.4993 15.8216 20.4993H15.8216H15.8214H8.17861H8.17846H8.17842C7.63662 20.4993 7.19961 20.4993 6.84572 20.4704C6.48129 20.4406 6.1612 20.3777 5.86505 20.2268C5.39465 19.9872 5.0122 19.6047 4.77251 19.1343C4.62162 18.8382 4.55871 18.5181 4.52894 18.1536C4.50002 17.7997 4.50002 17.3626 4.50003 16.8207L4.50003 11.8934L4.50001 11.8255C4.49984 11.3122 4.49972 10.9571 4.59385 10.6233C4.67696 10.3286 4.8135 10.0516 4.99669 9.80622C5.20419 9.52827 5.48591 9.31216 5.89315 8.99977L5.94704 8.95842L6.43904 8.58074L6.47604 8.55233C6.68184 8.39427 6.8418 8.27142 6.99856 8.17415V7.43729C6.13668 7.21477 5.5 6.43207 5.5 5.50067ZM16.0016 7.50067L7.99856 7.50067V8.47663C7.99856 8.67682 7.87915 8.85772 7.69506 8.9364C7.67007 8.94708 7.64535 8.95845 7.62094 8.97049C7.4986 9.03084 7.38301 9.11678 7.04796 9.37397L6.55596 9.75165C6.07418 10.1215 5.9124 10.2512 5.79803 10.4044C5.68811 10.5517 5.60619 10.7178 5.55632 10.8947C5.50444 11.0787 5.50003 11.286 5.50003 11.8934V16.7993C5.50003 17.3676 5.50042 17.7638 5.52562 18.0722C5.55034 18.3748 5.59643 18.5486 5.66352 18.6803C5.80733 18.9626 6.0368 19.192 6.31904 19.3358C6.45072 19.4029 6.62457 19.449 6.92715 19.4737C7.23557 19.4989 7.63173 19.4993 8.20003 19.4993H15.8C16.3683 19.4993 16.7645 19.4989 17.0729 19.4737C17.3755 19.449 17.5493 19.4029 17.681 19.3358C17.9633 19.192 18.1927 18.9626 18.3365 18.6803C18.4036 18.5486 18.4497 18.3748 18.4744 18.0722C18.4996 17.7638 18.5 17.3676 18.5 16.7993V11.8924C18.5 11.2854 18.4956 11.0782 18.4438 10.8943C18.394 10.7175 18.3121 10.5514 18.2023 10.4042C18.0881 10.2511 17.9265 10.1213 17.4451 9.75149L16.9549 9.37477C16.6197 9.11721 16.5041 9.03115 16.3816 8.97072C16.3566 8.95835 16.3313 8.9467 16.3056 8.93577C16.1213 8.85722 16.0016 8.67618 16.0016 8.4758V7.50067ZM6.5 5.50067C6.5 6.05215 6.94641 6.49936 7.49758 6.50067L7.5 6.50067H16.5C17.0523 6.50067 17.5 6.05296 17.5 5.50067C17.5 4.94839 17.0523 4.50067 16.5 4.50067H7.5C6.94772 4.50067 6.5 4.94839 6.5 5.50067ZM12 10.1509C12.2761 10.1509 12.5 10.3748 12.5 10.6509V13.1509H15C15.2761 13.1509 15.5 13.3748 15.5 13.6509C15.5 13.9271 15.2761 14.1509 15 14.1509H12.5V16.6509C12.5 16.9271 12.2761 17.1509 12 17.1509C11.7239 17.1509 11.5 16.9271 11.5 16.6509V14.1509H9C8.72386 14.1509 8.5 13.9271 8.5 13.6509C8.5 13.3748 8.72386 13.1509 9 13.1509H11.5V10.6509C11.5 10.3748 11.7239 10.1509 12 10.1509Z" fill="black"/>
</svg>
