<svg width="24" height="24" viewBox="0 0 24 24" fill="none" xmlns="http://www.w3.org/2000/svg">
<path fill-rule="evenodd" clip-rule="evenodd" d="M4.79995 2.70001C4.243 2.70001 3.70885 2.92126 3.31503 3.31509C2.9212 3.70891 2.69995 4.24306 2.69995 4.80001C2.69995 5.35697 2.9212 5.89111 3.31503 6.28494C3.70885 6.67876 4.243 6.90001 4.79995 6.90001C5.35691 6.90001 5.89105 6.67876 6.28488 6.28494C6.6787 5.89111 6.89995 5.35697 6.89995 4.80001C6.89995 4.24306 6.6787 3.70891 6.28488 3.31509C5.89105 2.92126 5.35691 2.70001 4.79995 2.70001ZM4.79995 9.89999C4.243 9.89999 3.70885 10.1212 3.31503 10.5151C2.9212 10.9089 2.69995 11.443 2.69995 12C2.69995 12.5569 2.9212 13.0911 3.31503 13.4849C3.70885 13.8787 4.243 14.1 4.79995 14.1C5.35691 14.1 5.89105 13.8787 6.28488 13.4849C6.6787 13.0911 6.89995 12.5569 6.89995 12C6.89995 11.443 6.6787 10.9089 6.28488 10.5151C5.89105 10.1212 5.35691 9.89999 4.79995 9.89999ZM4.79995 17.1C4.243 17.1 3.70885 17.3213 3.31503 17.7151C2.9212 18.1089 2.69995 18.6431 2.69995 19.2C2.69995 19.757 2.9212 20.2911 3.31503 20.6849C3.70885 21.0788 4.243 21.3 4.79995 21.3C5.35691 21.3 5.89105 21.0788 6.28488 20.6849C6.6787 20.2911 6.89995 19.757 6.89995 19.2C6.89995 18.6431 6.6787 18.1089 6.28488 17.7151C5.89105 17.3213 5.35691 17.1 4.79995 17.1ZM12 2.70001C11.4431 2.70001 10.9089 2.92126 10.5151 3.31509C10.1213 3.70891 9.90002 4.24306 9.90002 4.80001C9.90002 5.35697 10.1213 5.89111 10.5151 6.28494C10.9089 6.67876 11.4431 6.90001 12 6.90001C12.557 6.90001 13.0911 6.67876 13.4849 6.28494C13.8788 5.89111 14.1 5.35697 14.1 4.80001C14.1 4.24306 13.8788 3.70891 13.4849 3.31509C13.0911 2.92126 12.557 2.70001 12 2.70001ZM12 9.89999C11.4431 9.89999 10.9089 10.1212 10.5151 10.5151C10.1213 10.9089 9.90002 11.443 9.90002 12C9.90002 12.5569 10.1213 13.0911 10.5151 13.4849C10.9089 13.8787 11.4431 14.1 12 14.1C12.557 14.1 13.0911 13.8787 13.4849 13.4849C13.8788 13.0911 14.1 12.5569 14.1 12C14.1 11.443 13.8788 10.9089 13.4849 10.5151C13.0911 10.1212 12.557 9.89999 12 9.89999ZM12 17.1C11.4431 17.1 10.9089 17.3213 10.5151 17.7151C10.1213 18.1089 9.90002 18.6431 9.90002 19.2C9.90002 19.757 10.1213 20.2911 10.5151 20.6849C10.9089 21.0788 11.4431 21.3 12 21.3C12.557 21.3 13.0911 21.0788 13.4849 20.6849C13.8788 20.2911 14.1 19.757 14.1 19.2C14.1 18.6431 13.8788 18.1089 13.4849 17.7151C13.0911 17.3213 12.557 17.1 12 17.1ZM19.2 2.70001C18.643 2.70001 18.1089 2.92126 17.7151 3.31509C17.3212 3.70891 17.1 4.24306 17.1 4.80001C17.1 5.35697 17.3212 5.89111 17.7151 6.28494C18.1089 6.67876 18.643 6.90001 19.2 6.90001C19.7569 6.90001 20.2911 6.67876 20.6849 6.28494C21.0787 5.89111 21.3 5.35697 21.3 4.80001C21.3 4.24306 21.0787 3.70891 20.6849 3.31509C20.2911 2.92126 19.7569 2.70001 19.2 2.70001ZM19.2 9.89999C18.643 9.89999 18.1089 10.1212 17.7151 10.5151C17.3212 10.9089 17.1 11.443 17.1 12C17.1 12.5569 17.3212 13.0911 17.7151 13.4849C18.1089 13.8787 18.643 14.1 19.2 14.1C19.7569 14.1 20.2911 13.8787 20.6849 13.4849C21.0787 13.0911 21.3 12.5569 21.3 12C21.3 11.443 21.0787 10.9089 20.6849 10.5151C20.2911 10.1212 19.7569 9.89999 19.2 9.89999ZM19.2 17.1C18.643 17.1 18.1089 17.3213 17.7151 17.7151C17.3212 18.1089 17.1 18.6431 17.1 19.2C17.1 19.757 17.3212 20.2911 17.7151 20.6849C18.1089 21.0788 18.643 21.3 19.2 21.3C19.7569 21.3 20.2911 21.0788 20.6849 20.6849C21.0787 20.2911 21.3 19.757 21.3 19.2C21.3 18.6431 21.0787 18.1089 20.6849 17.7151C20.2911 17.3213 19.7569 17.1 19.2 17.1Z" fill="black"/>
</svg>
