<svg width="24" height="24" viewBox="0 0 24 24" fill="none" xmlns="http://www.w3.org/2000/svg">
<path fill-rule="evenodd" clip-rule="evenodd" d="M12 1.52856C12.5523 1.52856 13 1.97628 13 2.52856V4.56611C16.3422 5.01141 18.9886 7.6578 19.4339 11H21.4525C22.0048 11 22.4525 11.4477 22.4525 12C22.4525 12.5523 22.0048 13 21.4525 13H19.4339C18.9886 16.3422 16.3422 18.9886 13 19.4339V21.4715C13 22.0238 12.5523 22.4715 12 22.4715C11.4477 22.4715 11 22.0238 11 21.4715V19.4339C7.6578 18.9886 5.01141 16.3422 4.56611 13H2.54755C1.99526 13 1.54755 12.5523 1.54755 12C1.54755 11.4477 1.99526 11 2.54755 11H4.56611C5.01141 7.6578 7.6578 5.01141 11 4.56611V2.52856C11 1.97628 11.4477 1.52856 12 1.52856ZM12 16C14.2092 16 16 14.2092 16 12C16 9.79088 14.2092 8.00002 12 8.00002C9.79088 8.00002 8.00002 9.79088 8.00002 12C8.00002 14.2092 9.79088 16 12 16Z" fill="black"/>
</svg>
