<svg width="24" height="24" viewBox="0 0 24 24" fill="none" xmlns="http://www.w3.org/2000/svg">
<path fill-rule="evenodd" clip-rule="evenodd" d="M13.5791 2.53028C12.6451 1.82324 11.3549 1.82324 10.4209 2.53028C10.1745 2.71682 9.94273 2.9986 9.60049 3.41471L9.60048 3.41472L9.5507 3.47524C9.35861 3.70864 9.29176 3.78824 9.22303 3.85256C8.9453 4.11245 8.58266 4.26266 8.2025 4.27527C8.10843 4.27839 8.00487 4.26938 7.704 4.24016L7.62598 4.23257C7.08975 4.18034 6.72663 4.14496 6.42049 4.18731C5.26009 4.3478 4.3478 5.26009 4.18731 6.42049C4.14496 6.72663 4.18034 7.08975 4.23257 7.62597L4.23257 7.62598L4.24016 7.704C4.26938 8.00487 4.27839 8.10843 4.27527 8.2025C4.26266 8.58266 4.11245 8.9453 3.85256 9.22303C3.78824 9.29176 3.70864 9.35861 3.47524 9.5507L3.41471 9.60049C2.9986 9.94273 2.71682 10.1745 2.53028 10.4209C1.82324 11.3549 1.82324 12.6451 2.53028 13.5791C2.71681 13.8255 2.99858 14.0573 3.41469 14.3995L3.4147 14.3995L3.47524 14.4493C3.70864 14.6414 3.78824 14.7082 3.85256 14.777C4.11245 15.0547 4.26266 15.4173 4.27527 15.7975C4.27839 15.8916 4.26938 15.9951 4.24016 16.296L4.23257 16.374L4.23257 16.374C4.18033 16.9103 4.14496 17.2734 4.18731 17.5795C4.3478 18.7399 5.26009 19.6522 6.42049 19.8127C6.72663 19.855 7.08974 19.8197 7.62596 19.7674L7.704 19.7598C8.00487 19.7306 8.10843 19.7216 8.2025 19.7247C8.58266 19.7373 8.9453 19.8876 9.22303 20.1474C9.29176 20.2118 9.35861 20.2914 9.5507 20.5248L9.6005 20.5853C9.94273 21.0014 10.1745 21.2832 10.4209 21.4697C11.3549 22.1768 12.6451 22.1768 13.5791 21.4697C13.8255 21.2832 14.0573 21.0014 14.3995 20.5853L14.4493 20.5248C14.6414 20.2914 14.7082 20.2118 14.777 20.1474C15.0547 19.8876 15.4173 19.7373 15.7975 19.7247C15.8916 19.7216 15.9951 19.7306 16.296 19.7598L16.374 19.7674C16.9103 19.8197 17.2734 19.855 17.5795 19.8127C18.7399 19.6522 19.6522 18.7399 19.8127 17.5795C19.855 17.2734 19.8197 16.9103 19.7674 16.3741V16.374L19.7598 16.296C19.7306 15.9951 19.7216 15.8916 19.7247 15.7975C19.7373 15.4173 19.8876 15.0547 20.1474 14.777C20.2118 14.7082 20.2914 14.6414 20.5248 14.4493L20.5853 14.3995C21.0014 14.0573 21.2832 13.8255 21.4697 13.5791C22.1768 12.6451 22.1768 11.3549 21.4697 10.4209C21.2832 10.1745 21.0014 9.94273 20.5853 9.6005L20.5248 9.5507C20.2914 9.35861 20.2118 9.29176 20.1474 9.22303C19.8876 8.9453 19.7373 8.58266 19.7247 8.2025C19.7216 8.10843 19.7306 8.00487 19.7598 7.704L19.7674 7.62596V7.62595C19.8197 7.08974 19.855 6.72663 19.8127 6.42049C19.6522 5.26009 18.7399 4.3478 17.5795 4.18731C17.2734 4.14496 16.9103 4.18033 16.374 4.23257L16.374 4.23257L16.296 4.24016C15.9951 4.26938 15.8916 4.27839 15.7975 4.27527C15.4173 4.26266 15.0547 4.11245 14.777 3.85256C14.7082 3.78824 14.6414 3.70864 14.4493 3.47524L14.3995 3.4147L14.3995 3.41468C14.0573 2.99858 13.8255 2.71681 13.5791 2.53028ZM11.0525 3.36469C11.613 2.94047 12.387 2.94047 12.9475 3.36469C13.082 3.46653 13.2303 3.64094 13.6412 4.14025L13.6628 4.16651C13.8252 4.36386 13.9372 4.49996 14.0619 4.61669C14.5248 5.04984 15.1292 5.3002 15.7628 5.32122C15.9335 5.32688 16.109 5.30982 16.3633 5.28508L16.3972 5.28179C17.0408 5.21928 17.269 5.20084 17.4361 5.22396C18.1324 5.32026 18.6797 5.86763 18.776 6.56387C18.7992 6.73101 18.7807 6.95923 18.7182 7.60284L18.7149 7.6367L18.7149 7.63677C18.6902 7.89109 18.6731 8.06648 18.6788 8.2372C18.6998 8.8708 18.9502 9.47521 19.3833 9.93809C19.5 10.0628 19.6361 10.1748 19.8334 10.3371L19.8335 10.3371L19.8598 10.3588C20.3591 10.7697 20.5335 10.918 20.6353 11.0525C21.0595 11.613 21.0595 12.387 20.6353 12.9475C20.5335 13.082 20.3591 13.2303 19.8598 13.6412L19.8335 13.6629L19.8334 13.6629C19.6361 13.8252 19.5 13.9372 19.3833 14.0619C18.9502 14.5248 18.6998 15.1292 18.6788 15.7628C18.6731 15.9335 18.6902 16.1089 18.7149 16.3632L18.7149 16.3633L18.7182 16.3972C18.7807 17.0408 18.7992 17.269 18.776 17.4361C18.6797 18.1324 18.1324 18.6797 17.4361 18.776C17.269 18.7992 17.0408 18.7807 16.3972 18.7182L16.3633 18.7149L16.3632 18.7149C16.1089 18.6902 15.9335 18.6731 15.7628 18.6788C15.1292 18.6998 14.5248 18.9502 14.0619 19.3833C13.9372 19.5 13.8252 19.6361 13.6629 19.8334L13.6629 19.8335L13.6412 19.8598C13.2303 20.3591 13.082 20.5335 12.9475 20.6353C12.387 21.0595 11.613 21.0595 11.0525 20.6353C10.918 20.5335 10.7697 20.3591 10.3588 19.8598L10.3371 19.8335L10.3371 19.8334C10.1748 19.6361 10.0628 19.5 9.93809 19.3833C9.47521 18.9502 8.8708 18.6998 8.2372 18.6788C8.06648 18.6731 7.89109 18.6902 7.63678 18.7149L7.6367 18.7149L7.60284 18.7182C6.95923 18.7807 6.73101 18.7992 6.56387 18.776C5.86763 18.6797 5.32026 18.1324 5.22396 17.4361C5.20084 17.269 5.21928 17.0408 5.28179 16.3972L5.28508 16.3633C5.30982 16.109 5.32688 15.9335 5.32122 15.7628C5.3002 15.1292 5.04984 14.5248 4.61669 14.0619C4.49996 13.9372 4.36386 13.8252 4.16651 13.6628L4.14024 13.6412C3.64094 13.2303 3.46653 13.082 3.36469 12.9475C2.94047 12.387 2.94047 11.613 3.36469 11.0525C3.46653 10.918 3.64094 10.7697 4.14025 10.3588L4.16649 10.3372C4.36385 10.1748 4.49996 10.0628 4.61669 9.93809C5.04984 9.47521 5.3002 8.8708 5.32122 8.2372C5.32688 8.06646 5.30982 7.89105 5.28508 7.63668L5.28179 7.60284C5.21928 6.95923 5.20084 6.73101 5.22396 6.56387C5.32026 5.86763 5.86763 5.32026 6.56387 5.22396C6.73101 5.20084 6.95923 5.21928 7.60284 5.28179L7.63668 5.28508C7.89105 5.30982 8.06646 5.32688 8.2372 5.32122C8.8708 5.3002 9.47521 5.04984 9.93809 4.61669C10.0628 4.49996 10.1748 4.36386 10.3372 4.1665L10.3372 4.16649L10.3588 4.14024C10.7697 3.64094 10.918 3.46653 11.0525 3.36469ZM16.5583 9.12028C16.7393 8.89501 16.7034 8.56564 16.4781 8.38462C16.2529 8.2036 15.9235 8.23947 15.7425 8.46474L10.882 14.5133L8.15487 11.6851C7.95428 11.4771 7.62302 11.4711 7.41499 11.6717C7.20697 11.8723 7.20094 12.2035 7.40154 12.4116L10.5411 15.6674C10.6454 15.7756 10.7912 15.8337 10.9414 15.8269C11.0915 15.8201 11.2315 15.7491 11.3257 15.632L16.5583 9.12028Z" fill="black"/>
</svg>
