<svg width="24" height="24" viewBox="0 0 24 24" fill="none" xmlns="http://www.w3.org/2000/svg">
<path fill-rule="evenodd" clip-rule="evenodd" d="M10.4209 2.53028C11.3549 1.82324 12.6451 1.82324 13.5791 2.53028C13.8255 2.71681 14.0573 2.99858 14.3995 3.41467L14.3995 3.41468L14.3995 3.4147L14.4493 3.47524C14.6414 3.70864 14.7082 3.78824 14.777 3.85256C15.0547 4.11245 15.4173 4.26266 15.7975 4.27527C15.8916 4.27839 15.9951 4.26938 16.296 4.24016L16.374 4.23257L16.374 4.23257C16.9103 4.18033 17.2734 4.14496 17.5795 4.18731C18.7399 4.3478 19.6522 5.26009 19.8127 6.42049C19.855 6.72663 19.8197 7.08973 19.7674 7.62595V7.62596L19.7598 7.704C19.7306 8.00487 19.7216 8.10842 19.7247 8.2025C19.7373 8.58265 19.8876 8.9453 20.1474 9.22303C20.2118 9.29176 20.2914 9.35861 20.5248 9.5507L20.5853 9.6005C21.0014 9.94273 21.2832 10.1745 21.4697 10.4209C22.1768 11.3549 22.1768 12.6451 21.4697 13.5791C21.2832 13.8255 21.0014 14.0573 20.5853 14.3995L20.5248 14.4493C20.2914 14.6414 20.2118 14.7082 20.1474 14.777C19.8876 15.0547 19.7373 15.4173 19.7247 15.7975C19.7216 15.8916 19.7306 15.9951 19.7598 16.296L19.7674 16.374V16.3741V16.3741C19.8197 16.9103 19.855 17.2734 19.8127 17.5795C19.6522 18.7399 18.7399 19.6522 17.5795 19.8127C17.2734 19.855 16.9103 19.8197 16.374 19.7674L16.296 19.7598C15.9951 19.7306 15.8916 19.7216 15.7975 19.7247C15.4173 19.7373 15.0547 19.8876 14.777 20.1474C14.7082 20.2118 14.6414 20.2914 14.4493 20.5248L14.3995 20.5853C14.0573 21.0014 13.8255 21.2832 13.5791 21.4697C12.6451 22.1768 11.3549 22.1768 10.4209 21.4697C10.1745 21.2832 9.94273 21.0014 9.6005 20.5853L9.5507 20.5248C9.35861 20.2914 9.29176 20.2118 9.22303 20.1474C8.9453 19.8876 8.58265 19.7373 8.2025 19.7247C8.10842 19.7216 8.00487 19.7306 7.704 19.7598L7.62596 19.7674C7.08974 19.8197 6.72663 19.855 6.42049 19.8127C5.26009 19.6522 4.3478 18.7399 4.18731 17.5795C4.14496 17.2734 4.18033 16.9103 4.23257 16.374L4.23257 16.374L4.24016 16.296C4.26938 15.9951 4.27839 15.8916 4.27527 15.7975C4.26266 15.4173 4.11245 15.0547 3.85256 14.777C3.78824 14.7082 3.70864 14.6414 3.47524 14.4493L3.4147 14.3995L3.41469 14.3995C2.99858 14.0573 2.71681 13.8255 2.53028 13.5791C1.82324 12.6451 1.82324 11.3549 2.53028 10.4209C2.71682 10.1745 2.9986 9.94273 3.41471 9.60049L3.47524 9.5507C3.70864 9.35861 3.78824 9.29176 3.85256 9.22303C4.11245 8.9453 4.26266 8.58265 4.27527 8.2025C4.27839 8.10843 4.26938 8.00487 4.24016 7.704L4.23257 7.62598L4.23257 7.62597L4.23257 7.62596C4.18033 7.08974 4.14496 6.72663 4.18731 6.42049C4.3478 5.26009 5.26009 4.3478 6.42049 4.18731C6.72663 4.14496 7.08975 4.18033 7.62598 4.23257L7.704 4.24016C8.00487 4.26938 8.10843 4.27839 8.2025 4.27527C8.58265 4.26266 8.9453 4.11245 9.22303 3.85256C9.29176 3.78824 9.35861 3.70864 9.5507 3.47524L9.60048 3.41472L9.60049 3.41471C9.94273 2.9986 10.1745 2.71682 10.4209 2.53028ZM16.9661 9.16241C17.3282 8.71187 17.2564 8.05315 16.8059 7.69111C16.3554 7.32907 15.6966 7.40081 15.3346 7.85135L10.8463 13.4368L8.53152 11.0363C8.13032 10.6202 7.46781 10.6082 7.05176 11.0094C6.63571 11.4106 6.62366 12.0731 7.02486 12.4892L10.1644 15.745C10.3731 15.9614 10.6647 16.0776 10.965 16.064C11.2653 16.0505 11.5452 15.9084 11.7335 15.6741L16.9661 9.16241Z" fill="black"/>
</svg>
