<svg width="24" height="24" viewBox="0 0 24 24" fill="none" xmlns="http://www.w3.org/2000/svg">
<path fill-rule="evenodd" clip-rule="evenodd" d="M17.688 3.5002C17.6981 3.50007 17.7083 3.5 17.7185 3.5C17.7189 3.5 17.7194 3.5 17.7198 3.5C19.0236 3.50074 20.0803 4.55788 20.0803 5.86182L20.0802 5.87209L20.0803 5.87933V8.50638H15.3592V5.85923C15.3592 4.6004 16.3452 3.57184 17.587 3.50361C17.6204 3.50177 17.6541 3.50062 17.688 3.5002ZM17.7184 2.5H7.3857H7.38568H7.38567H7.38566C6.47396 2.49999 5.7391 2.49998 5.16114 2.57768C4.56106 2.65836 4.05581 2.83096 3.65454 3.23223C3.25326 3.63351 3.08066 4.13876 2.99999 4.73883C2.92228 5.3168 2.92229 6.05167 2.9223 6.96339V6.9634V6.96341V6.96342V21C2.9223 21.162 3.00081 21.314 3.13294 21.4078C3.26507 21.5015 3.43444 21.5254 3.58737 21.472L6.28154 20.5297L8.9757 21.472C9.08257 21.5093 9.19897 21.5093 9.30584 21.472L12 20.5297L14.6942 21.472C14.8471 21.5254 15.0165 21.5015 15.1486 21.4078C15.2807 21.314 15.3592 21.162 15.3592 21L15.3592 9.50638H20.5803C20.8564 9.50638 21.0803 9.28252 21.0803 9.00638V5.87422L21.0802 5.87L21.0803 5.86182C21.0803 4.00514 19.5751 2.5 17.7184 2.5ZM5.38013 7C5.38013 6.72386 5.60398 6.5 5.88013 6.5H11.2378C11.5139 6.5 11.7378 6.72386 11.7378 7C11.7378 7.27614 11.5139 7.5 11.2378 7.5L5.88013 7.5C5.60398 7.5 5.38013 7.27614 5.38013 7ZM7.71954 11C7.71954 11.2761 7.49569 11.5 7.21954 11.5H5.88013C5.60398 11.5 5.38013 11.2761 5.38013 11C5.38013 10.7239 5.60398 10.5 5.88013 10.5H7.21954C7.49569 10.5 7.71954 10.7239 7.71954 11ZM5.88013 14.5C5.60398 14.5 5.38013 14.7239 5.38013 15C5.38013 15.2761 5.60398 15.5 5.88013 15.5H9.89838C10.1745 15.5 10.3984 15.2761 10.3984 15C10.3984 14.7239 10.1745 14.5 9.89838 14.5H5.88013Z" fill="black"/>
</svg>
