<svg width="24" height="24" viewBox="0 0 24 24" fill="none" xmlns="http://www.w3.org/2000/svg">
<path fill-rule="evenodd" clip-rule="evenodd" d="M3.51754 11.3792L3.49426 11.4025C3.18083 11.7159 2.91076 11.9859 2.72358 12.2313C2.52298 12.4942 2.37109 12.7866 2.37109 13.147C2.37109 13.5074 2.52298 13.7998 2.72358 14.0627C2.91076 14.308 3.18081 14.5781 3.49424 14.8915L3.49426 14.8915L3.51754 14.9147L9.11232 20.5095L9.11236 20.5096C9.42575 20.823 9.69577 21.093 9.94108 21.2802C10.204 21.4808 10.4964 21.6327 10.8568 21.6327C11.2172 21.6327 11.5096 21.4808 11.7725 21.2802C12.0179 21.093 12.2879 20.823 12.6013 20.5095L12.6013 20.5095L20.2679 12.8429C20.4408 12.6701 20.5939 12.517 20.7106 12.3762C20.8372 12.2236 20.9445 12.0587 21.0068 11.853C21.0691 11.6472 21.0713 11.4505 21.0506 11.2533C21.0315 11.0714 20.9891 10.8591 20.9411 10.6195L20.9411 10.6194L20.0037 5.93224C19.9445 5.63605 19.8924 5.37562 19.8257 5.16428C19.7535 4.93555 19.6517 4.72037 19.4676 4.53623C19.2834 4.35209 19.0682 4.25029 18.8395 4.1781C18.6282 4.1114 18.3677 4.05933 18.0716 4.00011L18.0715 4.0001L13.3843 3.06266L13.3843 3.06265C13.1446 3.01471 12.9323 2.97224 12.7505 2.95318C12.5533 2.93251 12.3566 2.93467 12.1508 2.99696C11.945 3.05926 11.7802 3.16658 11.6275 3.29318C11.4868 3.40992 11.3337 3.56301 11.1609 3.73585L3.51754 11.3792ZM14.657 9.34682C14.0713 8.76104 14.0713 7.81129 14.657 7.2255C15.2428 6.63972 16.1926 6.63972 16.7784 7.2255C17.3641 7.81129 17.3641 8.76104 16.7784 9.34682C16.1926 9.93261 15.2428 9.93261 14.657 9.34682Z" fill="black"/>
</svg>
