<svg width="24" height="24" viewBox="0 0 24 24" fill="none" xmlns="http://www.w3.org/2000/svg">
<path fill-rule="evenodd" clip-rule="evenodd" d="M5 10C5 5.80336 8.38213 3 12 3C15.746 3 19 5.79781 19 10C19 12.7607 17.7106 14.8984 16.1256 16.689C15.3395 17.5771 14.4913 18.3681 13.6986 19.1074L13.6746 19.1297C13.0662 19.6971 12.4801 20.2439 12.0012 20.7727C11.5218 20.2404 10.9349 19.6913 10.3256 19.1225L10.2803 19.0802L10.2802 19.0801C9.49338 18.3456 8.65337 17.5614 7.8742 16.6822C6.28918 14.8937 5 12.7605 5 10ZM12 2C7.88589 2 4 5.19664 4 10C4 13.1055 5.46082 15.4667 7.1258 17.3454C7.93682 18.2605 8.80673 19.0726 9.58619 19.8002L9.64316 19.8534C10.4486 20.6054 11.1352 21.2517 11.6062 21.8538C11.7008 21.9748 11.8456 22.0455 11.9992 22.0458C12.1527 22.046 12.2978 21.9758 12.3928 21.8552C12.8641 21.2568 13.5509 20.6125 14.3566 19.861L14.3934 19.8268C15.1783 19.0948 16.0562 18.2761 16.8744 17.3518C18.5394 15.4708 20 13.1053 20 10C20 5.20219 16.254 2 12 2ZM8.5 10C8.5 8.067 10.067 6.5 12 6.5C13.933 6.5 15.5 8.067 15.5 10C15.5 11.933 13.933 13.5 12 13.5C10.067 13.5 8.5 11.933 8.5 10ZM12 5.5C9.51472 5.5 7.5 7.51472 7.5 10C7.5 12.4853 9.51472 14.5 12 14.5C14.4853 14.5 16.5 12.4853 16.5 10C16.5 7.51472 14.4853 5.5 12 5.5Z" fill="black"/>
</svg>
