<svg width="24" height="24" viewBox="0 0 24 24" fill="none" xmlns="http://www.w3.org/2000/svg">
<path fill-rule="evenodd" clip-rule="evenodd" d="M12 3.5C7.79306 3.5 4.5 6.47078 4.5 10C4.5 13.5292 7.79306 16.5 12 16.5C16.2069 16.5 19.5 13.5292 19.5 10C19.5 6.47078 16.2069 3.5 12 3.5ZM12 2.5C7.37038 2.5 3.5 5.79724 3.5 10V14C3.5 18.2028 7.37038 21.5 12 21.5C16.6296 21.5 20.5 18.2028 20.5 14V10C20.5 5.79724 16.6296 2.5 12 2.5ZM19.5 14V13.5384C18.0577 15.9133 15.2115 17.5 12 17.5C8.78847 17.5 5.94229 15.9133 4.5 13.5384V14C4.5 17.5292 7.79306 20.5 12 20.5C16.2069 20.5 19.5 17.5292 19.5 14ZM7.5 10C7.5 8.16535 9.40484 6.5 12 6.5C14.5952 6.5 16.5 8.16535 16.5 10C16.5 11.8346 14.5952 13.5 12 13.5C9.40484 13.5 7.5 11.8346 7.5 10ZM12 5.5C9.07232 5.5 6.5 7.41637 6.5 10C6.5 12.5836 9.07232 14.5 12 14.5C14.9277 14.5 17.5 12.5836 17.5 10C17.5 7.41637 14.9277 5.5 12 5.5Z" fill="black"/>
</svg>
