<svg width="24" height="24" viewBox="0 0 24 24" fill="none" xmlns="http://www.w3.org/2000/svg">
<path fill-rule="evenodd" clip-rule="evenodd" d="M3.9223 7C3.9223 6.04306 3.92336 5.37565 3.99107 4.87208C4.05684 4.3829 4.17713 4.12385 4.36164 3.93934C4.54615 3.75483 4.8052 3.63453 5.29438 3.56877C5.79795 3.50106 6.46536 3.5 7.4223 3.5L15.3271 3.5C14.7286 4.10659 14.3592 4.93977 14.3592 5.85923L14.3592 20.2954L12.1651 19.528C12.0582 19.4906 11.9418 19.4906 11.8349 19.528L9.14077 20.4703L6.4466 19.528C6.33973 19.4906 6.22334 19.4906 6.11647 19.528L3.9223 20.2954L3.9223 7ZM15.3592 5.85923C15.3592 4.55626 16.4155 3.5 17.7185 3.5C19.0214 3.5 20.0777 4.55626 20.0777 5.85923V8.14285C20.0777 8.3198 20.0771 8.41668 20.0705 8.48572L20.0698 8.4921L20.0634 8.49275C19.9944 8.49944 19.8975 8.49999 19.7206 8.49999L15.3592 8.49999V5.85923ZM15.3592 21L15.3592 9.49999L19.7397 9.49999H19.7397C19.8902 9.50002 20.0367 9.50004 20.16 9.48808C20.2962 9.47487 20.4558 9.44346 20.6097 9.34672C20.7369 9.26679 20.8445 9.15923 20.9244 9.03202C21.0212 8.87806 21.0526 8.71846 21.0658 8.58225C21.0777 8.45895 21.0777 8.31245 21.0777 8.16195V5.85923C21.0777 4.00398 19.5737 2.5 17.7185 2.5H7.3857H7.38568C6.47397 2.49999 5.73911 2.49998 5.16113 2.57768C4.56106 2.65836 4.05581 2.83096 3.65454 3.23223C3.25326 3.63351 3.08066 4.13876 2.99998 4.73883C2.92228 5.31681 2.92229 6.05169 2.9223 6.96341V6.96342V21C2.9223 21.162 3.00081 21.314 3.13294 21.4078C3.26507 21.5015 3.43444 21.5254 3.58737 21.472L6.28154 20.5297L8.9757 21.472C9.08257 21.5093 9.19897 21.5093 9.30584 21.472L12 20.5297L14.6942 21.472C14.8471 21.5254 15.0165 21.5015 15.1486 21.4078C15.2807 21.314 15.3592 21.162 15.3592 21ZM5.88013 6.5C5.60399 6.5 5.38013 6.72385 5.38013 7C5.38013 7.27614 5.60399 7.5 5.88013 7.5L11.2378 7.5C11.5139 7.5 11.7378 7.27614 11.7378 7C11.7378 6.72385 11.5139 6.5 11.2378 6.5L5.88013 6.5ZM7.71954 11C7.71954 11.2761 7.49569 11.5 7.21954 11.5H5.88013C5.60399 11.5 5.38013 11.2761 5.38013 11C5.38013 10.7239 5.60399 10.5 5.88013 10.5H7.21954C7.49569 10.5 7.71954 10.7239 7.71954 11ZM5.88013 14.5C5.60399 14.5 5.38013 14.7239 5.38013 15C5.38013 15.2761 5.60399 15.5 5.88013 15.5H9.89838C10.1745 15.5 10.3984 15.2761 10.3984 15C10.3984 14.7239 10.1745 14.5 9.89838 14.5H5.88013Z" fill="black"/>
</svg>
