<svg width="24" height="24" viewBox="0 0 24 24" fill="none" xmlns="http://www.w3.org/2000/svg">
<path fill-rule="evenodd" clip-rule="evenodd" d="M7.99827 3.2912C7.44691 2.73985 6.55298 2.73985 6.00163 3.2912C3.90046 5.39237 3.66406 8.7188 5.44696 11.096L6.62852 12.6714C7.9646 14.4529 9.54709 16.0353 11.3285 17.3714L12.9039 18.553C15.2811 20.3359 18.6076 20.0995 20.7087 17.9983C21.2601 17.447 21.2601 16.553 20.7087 16.0017L18.0606 13.3535C17.4748 12.7678 16.5251 12.7678 15.9393 13.3535L14.9181 14.3747C14.908 14.3848 14.8926 14.3873 14.8798 14.3809C12.6033 13.2426 10.7573 11.3967 9.61903 9.12012C9.61264 9.10734 9.61514 9.0919 9.62525 9.0818L10.6464 8.06065C11.2322 7.47486 11.2322 6.52512 10.6464 5.93933L7.99827 3.2912Z" fill="black"/>
</svg>
