<svg width="24" height="24" viewBox="0 0 24 24" fill="none" xmlns="http://www.w3.org/2000/svg">
<path fill-rule="evenodd" clip-rule="evenodd" d="M10.5993 2.59745C11.4606 1.99388 12.6075 1.99388 13.4688 2.59745C13.631 2.71115 13.7905 2.86548 14.0244 3.0918L14.0573 3.12369C14.2048 3.26639 14.2559 3.31506 14.3062 3.35538C14.5914 3.58395 14.9502 3.70053 15.3152 3.68324C15.3796 3.68019 15.4495 3.67082 15.6528 3.64208L15.6982 3.63565C16.0204 3.59001 16.2401 3.55888 16.4382 3.56226C17.4897 3.58021 18.4176 4.25435 18.7596 5.24889C18.8241 5.43622 18.8624 5.65479 18.9185 5.97527L18.9185 5.9753L18.9185 5.97535L18.9264 6.02055C18.9619 6.22271 18.9746 6.29208 18.9916 6.35427C19.088 6.70681 19.3097 7.01204 19.6152 7.21263C19.6691 7.24801 19.7312 7.28151 19.9125 7.37771L19.953 7.39919L19.953 7.39921C20.2405 7.55167 20.4366 7.65564 20.5948 7.77481C21.435 8.40741 21.7894 9.4982 21.4815 10.5038C21.4235 10.6933 21.3261 10.8926 21.1831 11.1849L21.1629 11.2262C21.0728 11.4106 21.0423 11.4741 21.0195 11.5344C20.8902 11.8763 20.8902 12.2536 21.0195 12.5954C21.0423 12.6557 21.0728 12.7193 21.1629 12.9037L21.1831 12.945C21.326 13.2373 21.4235 13.4366 21.4815 13.626C21.7894 14.6317 21.435 15.7225 20.5948 16.3551C20.4366 16.4742 20.2405 16.5782 19.953 16.7307L19.953 16.7307L19.9125 16.7522C19.7312 16.8484 19.6691 16.8819 19.6152 16.9172C19.3097 17.1178 19.088 17.4231 18.9916 17.7756C18.9746 17.8378 18.9619 17.9072 18.9264 18.1093L18.9185 18.1545C18.8624 18.475 18.8241 18.6936 18.7596 18.881C18.4176 19.8755 17.4897 20.5497 16.4382 20.5676C16.2401 20.571 16.0204 20.5399 15.6982 20.4942L15.6982 20.4942L15.6528 20.4878C15.4495 20.459 15.3796 20.4497 15.3152 20.4466C14.9502 20.4293 14.5914 20.5459 14.3062 20.7745C14.2559 20.8148 14.2048 20.8635 14.0573 21.0062L14.0244 21.0381L14.0243 21.0381L14.0243 21.0381C13.7905 21.2644 13.631 21.4187 13.4688 21.5324C12.6075 22.136 11.4606 22.136 10.5993 21.5324C10.4371 21.4187 10.2776 21.2644 10.0438 21.0381L10.0438 21.0381L10.0438 21.0381L10.0108 21.0062C9.8633 20.8635 9.81226 20.8148 9.76195 20.7745C9.47677 20.5459 9.11796 20.4293 8.7529 20.4466C8.6885 20.4497 8.6186 20.459 8.41538 20.4878L8.36996 20.4942L8.36989 20.4942L8.36982 20.4942C8.04769 20.5399 7.828 20.571 7.62994 20.5676C6.57839 20.5497 5.65051 19.8755 5.30849 18.881C5.24407 18.6936 5.20577 18.475 5.14961 18.1545L5.14169 18.1093C5.10623 17.9072 5.09354 17.8378 5.07654 17.7756C4.98017 17.4231 4.75841 17.1178 4.45291 16.9172C4.39902 16.8819 4.33696 16.8484 4.15565 16.7522L4.11514 16.7307L4.11511 16.7307L4.11506 16.7306C3.82761 16.5782 3.63157 16.4742 3.47331 16.3551C2.63314 15.7225 2.27872 14.6317 2.5866 13.626C2.64459 13.4366 2.74209 13.2372 2.88506 12.9449L2.90521 12.9037C2.99535 12.7193 3.02587 12.6557 3.04867 12.5954C3.17792 12.2536 3.17792 11.8763 3.04867 11.5344C3.02587 11.4741 2.99535 11.4106 2.90521 11.2262L2.88506 11.1849C2.74209 10.8926 2.64459 10.6933 2.5866 10.5038C2.27872 9.4982 2.63314 8.40741 3.47331 7.77481C3.63158 7.65564 3.82763 7.55167 4.11512 7.39921L4.15565 7.37771C4.33696 7.28151 4.39902 7.24801 4.45291 7.21263C4.75841 7.01204 4.98017 6.70681 5.07654 6.35427C5.09354 6.29208 5.10623 6.22271 5.14169 6.02055L5.14961 5.97536L5.14961 5.97536L5.14961 5.97535C5.20577 5.65482 5.24407 5.43624 5.30849 5.24889C5.65051 4.25435 6.57839 3.58021 7.62994 3.56226C7.82803 3.55888 8.04775 3.59001 8.36995 3.63564L8.41538 3.64208C8.6186 3.67082 8.6885 3.68019 8.7529 3.68324C9.11796 3.70053 9.47677 3.58395 9.76195 3.35538C9.81226 3.31506 9.8633 3.26639 10.0108 3.12369L10.0438 3.0918L10.0438 3.09177L10.0438 3.09176C10.2776 2.86547 10.4371 2.71114 10.5993 2.59745ZM16.7023 7.29774C16.9562 7.55158 16.9562 7.96314 16.7023 8.21698L8.21704 16.7023C7.9632 16.9561 7.55164 16.9561 7.2978 16.7023C7.04396 16.4484 7.04396 16.0369 7.2978 15.783L15.7831 7.29774C16.0369 7.0439 16.4485 7.0439 16.7023 7.29774ZM9.00747 10.2574C9.69783 10.2574 10.2575 9.69773 10.2575 9.00737C10.2575 8.31702 9.69783 7.75737 9.00747 7.75737C8.31712 7.75737 7.75747 8.31702 7.75747 9.00737C7.75747 9.69773 8.31712 10.2574 9.00747 10.2574ZM14.9927 16.2427C15.6831 16.2427 16.2427 15.683 16.2427 14.9927C16.2427 14.3023 15.6831 13.7427 14.9927 13.7427C14.3023 13.7427 13.7427 14.3023 13.7427 14.9927C13.7427 15.683 14.3023 16.2427 14.9927 16.2427Z" fill="black"/>
</svg>
