<svg width="24" height="24" viewBox="0 0 24 24" fill="none" xmlns="http://www.w3.org/2000/svg">
<path fill-rule="evenodd" clip-rule="evenodd" d="M13.4689 2.59745C12.6076 1.99388 11.4607 1.99388 10.5994 2.59745C10.4372 2.71114 10.2777 2.86547 10.0439 3.09177L10.0438 3.0918L10.0109 3.12369C9.86336 3.26639 9.81232 3.31506 9.76201 3.35538C9.47683 3.58395 9.11802 3.70053 8.75296 3.68324C8.68856 3.68019 8.61866 3.67082 8.41544 3.64208L8.37001 3.63565C8.04781 3.59001 7.82809 3.55888 7.63 3.56226C6.57845 3.58021 5.65057 4.25435 5.30856 5.24889C5.24413 5.43624 5.20583 5.65483 5.14967 5.97536L5.14967 5.97536L5.14175 6.02055C5.10629 6.22271 5.0936 6.29208 5.0766 6.35427C4.98023 6.70681 4.75847 7.01204 4.45297 7.21263C4.39908 7.24801 4.33702 7.28151 4.15571 7.37771L4.11518 7.39921C3.8277 7.55167 3.63164 7.65564 3.47337 7.77481C2.6332 8.40741 2.27878 9.4982 2.58666 10.5038C2.64465 10.6933 2.74215 10.8926 2.88512 11.1849L2.90528 11.2262C2.99541 11.4106 3.02593 11.4741 3.04873 11.5344C3.17798 11.8763 3.17798 12.2536 3.04873 12.5954C3.02593 12.6557 2.99541 12.7193 2.90528 12.9037L2.88512 12.9449C2.74215 13.2372 2.64465 13.4366 2.58666 13.626C2.27878 14.6317 2.6332 15.7225 3.47337 16.3551C3.63164 16.4742 3.82769 16.5782 4.11517 16.7307L4.1152 16.7307L4.15571 16.7522C4.33702 16.8484 4.39908 16.8819 4.45297 16.9172C4.75847 17.1178 4.98023 17.4231 5.0766 17.7756C5.0936 17.8378 5.10629 17.9072 5.14175 18.1093L5.14967 18.1545C5.20583 18.475 5.24413 18.6936 5.30856 18.881C5.65057 19.8755 6.57845 20.5497 7.63 20.5676C7.82807 20.571 8.04779 20.5399 8.36995 20.4942L8.37002 20.4942L8.41544 20.4878C8.61866 20.459 8.68856 20.4497 8.75296 20.4466C9.11802 20.4293 9.47683 20.5459 9.76201 20.7745C9.81232 20.8148 9.86336 20.8635 10.0109 21.0062L10.0438 21.0381L10.0438 21.0381C10.2777 21.2644 10.4372 21.4187 10.5994 21.5324C11.4607 22.136 12.6076 22.136 13.4689 21.5324C13.6311 21.4187 13.7906 21.2644 14.0244 21.0381L14.0244 21.0381L14.0574 21.0062C14.2049 20.8635 14.2559 20.8148 14.3062 20.7745C14.5914 20.5459 14.9502 20.4293 15.3153 20.4466C15.3797 20.4497 15.4496 20.459 15.6528 20.4878L15.6982 20.4942L15.6983 20.4942C16.0205 20.5399 16.2402 20.571 16.4382 20.5676C17.4898 20.5497 18.4177 19.8755 18.7597 18.881C18.8241 18.6936 18.8624 18.475 18.9186 18.1545L18.9265 18.1093C18.962 17.9072 18.9747 17.8378 18.9917 17.7756C19.088 17.4231 19.3098 17.1178 19.6153 16.9172C19.6692 16.8819 19.7312 16.8484 19.9125 16.7522L19.953 16.7307L19.9531 16.7307C20.2406 16.5782 20.4366 16.4742 20.5949 16.3551C21.4351 15.7225 21.7895 14.6317 21.4816 13.626C21.4236 13.4366 21.3261 13.2373 21.1832 12.945L21.163 12.9037C21.0728 12.7193 21.0423 12.6557 21.0195 12.5954C20.8903 12.2536 20.8903 11.8763 21.0195 11.5344C21.0423 11.4741 21.0728 11.4106 21.163 11.2262L21.1832 11.1849C21.3261 10.8926 21.4236 10.6933 21.4816 10.5038C21.7895 9.4982 21.4351 8.40741 20.5949 7.77481C20.4366 7.65564 20.2406 7.55167 19.9531 7.39921L19.953 7.39919L19.9125 7.37771C19.7312 7.28151 19.6692 7.24801 19.6153 7.21263C19.3098 7.01204 19.088 6.70681 18.9917 6.35427C18.9747 6.29208 18.962 6.22271 18.9265 6.02055L18.9186 5.97535L18.9186 5.9753C18.8624 5.6548 18.8241 5.43623 18.7597 5.24889C18.4177 4.25435 17.4898 3.58021 16.4382 3.56226C16.2402 3.55888 16.0204 3.59001 15.6982 3.63565L15.6528 3.64208C15.4496 3.67082 15.3797 3.68019 15.3153 3.68324C14.9502 3.70053 14.5914 3.58395 14.3062 3.35538C14.2559 3.31506 14.2049 3.26639 14.0574 3.12369L14.0244 3.0918C13.7906 2.86548 13.6311 2.71115 13.4689 2.59745ZM11.1733 3.41638C11.6901 3.05424 12.3782 3.05424 12.895 3.41638C12.9838 3.47866 13.0828 3.57222 13.3621 3.84241L13.3786 3.85839C13.5034 3.97919 13.5896 4.06254 13.6808 4.13569C14.1561 4.51663 14.7542 4.71094 15.3626 4.68212C15.4794 4.67659 15.5981 4.65979 15.7701 4.63544L15.7929 4.63222C16.1776 4.5778 16.3127 4.56027 16.4212 4.56212C17.0521 4.57289 17.6088 4.97737 17.8141 5.5741C17.8493 5.67672 17.8744 5.81057 17.9415 6.19333L17.9455 6.21592C17.9755 6.38705 17.9962 6.50513 18.027 6.61795C18.1877 7.20551 18.5573 7.71422 19.0664 8.04854C19.1642 8.11274 19.2701 8.16891 19.4236 8.25031L19.4438 8.26107C19.7871 8.4432 19.9067 8.5084 19.9934 8.57368C20.4975 8.95324 20.7101 9.60771 20.5254 10.2111C20.4936 10.3149 20.4352 10.4379 20.2646 10.787L20.2545 10.8076L20.2544 10.8077C20.1782 10.9637 20.1255 11.0714 20.0842 11.1808C19.8687 11.7505 19.8687 12.3793 20.0842 12.9491C20.1255 13.0585 20.1782 13.1661 20.2544 13.3222L20.2545 13.3222L20.2646 13.3429C20.4352 13.692 20.4936 13.815 20.5254 13.9188C20.7101 14.5222 20.4975 15.1766 19.9934 15.5562C19.9067 15.6215 19.7871 15.6867 19.4438 15.8688L19.4236 15.8795L19.4235 15.8796C19.2701 15.961 19.1642 16.0171 19.0664 16.0813C18.5573 16.4156 18.1877 16.9244 18.027 17.5119C17.9962 17.6247 17.9755 17.7428 17.9455 17.9139L17.9415 17.9365C17.8744 18.3193 17.8493 18.4531 17.8141 18.5558C17.6088 19.1525 17.0521 19.557 16.4212 19.5677C16.3127 19.5696 16.1776 19.5521 15.7929 19.4976L15.7701 19.4944L15.7701 19.4944C15.5981 19.4701 15.4794 19.4533 15.3626 19.4477C14.7542 19.4189 14.1561 19.6132 13.6808 19.9942C13.5896 20.0673 13.5035 20.1506 13.3787 20.2714L13.3787 20.2714L13.3621 20.2875C13.0828 20.5576 12.9838 20.6512 12.895 20.7135C12.3782 21.0756 11.6901 21.0756 11.1733 20.7135C11.0844 20.6512 10.9855 20.5576 10.7062 20.2875L10.6896 20.2714C10.5648 20.1507 10.4787 20.0673 10.3874 19.9942C9.91211 19.6132 9.31409 19.4189 8.70565 19.4477C8.58883 19.4533 8.47015 19.4701 8.29815 19.4944L8.27539 19.4976C7.89062 19.5521 7.75558 19.5696 7.64707 19.5677C7.01614 19.557 6.45941 19.1525 6.2542 18.5558C6.21891 18.4531 6.19385 18.3193 6.12671 17.9365L6.12274 17.9139L6.12274 17.9139C6.09275 17.7428 6.07205 17.6247 6.04121 17.5119C5.8806 16.9244 5.511 16.4156 5.00183 16.0813C4.90408 16.0171 4.7982 15.961 4.64477 15.8796L4.64473 15.8796L4.6244 15.8688C4.28113 15.6867 4.16157 15.6215 4.07488 15.5562C3.57077 15.1766 3.35812 14.5222 3.54285 13.9188C3.57462 13.815 3.63302 13.692 3.80368 13.3429L3.81378 13.3222L3.81379 13.3222C3.89009 13.1661 3.94274 13.0585 3.9841 12.9491C4.19952 12.3793 4.19952 11.7505 3.9841 11.1808C3.94274 11.0714 3.89009 10.9637 3.81379 10.8077L3.81378 10.8077L3.80368 10.787C3.63302 10.4379 3.57462 10.3149 3.54285 10.2111C3.35812 9.60771 3.57077 8.95324 4.07488 8.57368C4.16157 8.5084 4.28113 8.4432 4.6244 8.26107L4.64471 8.2503C4.79818 8.1689 4.90406 8.11273 5.00183 8.04854C5.511 7.71422 5.8806 7.20551 6.04121 6.61795C6.07205 6.50514 6.09275 6.38707 6.12274 6.21596L6.12671 6.19333C6.19385 5.81058 6.21891 5.67672 6.2542 5.5741C6.45941 4.97737 7.01614 4.57289 7.64707 4.56212C7.75558 4.56027 7.89062 4.5778 8.27539 4.63222L8.29815 4.63544L8.29815 4.63544C8.47015 4.65979 8.58883 4.67659 8.70565 4.68212C9.31409 4.71094 9.91211 4.51663 10.3874 4.13569C10.4787 4.06255 10.5648 3.9792 10.6896 3.85841L10.7062 3.84241C10.9855 3.57222 11.0844 3.47866 11.1733 3.41638ZM16.7023 7.29774C16.9562 7.55158 16.9562 7.96314 16.7023 8.21698L8.21704 16.7023C7.9632 16.9561 7.55164 16.9561 7.2978 16.7023C7.04396 16.4484 7.04396 16.0369 7.2978 15.783L15.7831 7.29774C16.0369 7.0439 16.4485 7.0439 16.7023 7.29774ZM9.00747 10.2574C9.69783 10.2574 10.2575 9.69773 10.2575 9.00737C10.2575 8.31702 9.69783 7.75737 9.00747 7.75737C8.31712 7.75737 7.75747 8.31702 7.75747 9.00737C7.75747 9.69773 8.31712 10.2574 9.00747 10.2574ZM14.9927 16.2427C15.6831 16.2427 16.2427 15.683 16.2427 14.9927C16.2427 14.3023 15.6831 13.7427 14.9927 13.7427C14.3023 13.7427 13.7427 14.3023 13.7427 14.9927C13.7427 15.683 14.3023 16.2427 14.9927 16.2427Z" fill="black"/>
</svg>
