<svg width="24" height="24" viewBox="0 0 24 24" fill="none" xmlns="http://www.w3.org/2000/svg">
<path fill-rule="evenodd" clip-rule="evenodd" d="M7.29116 3.99831C7.13033 3.83748 6.86957 3.83748 6.70873 3.99831C4.95946 5.74758 4.76265 8.51693 6.24696 10.496L7.42852 12.0714C8.70774 13.777 10.2229 15.2922 11.9285 16.5714L13.5039 17.753C15.483 19.2373 18.2524 19.0405 20.0016 17.2912C20.1625 17.1304 20.1625 16.8696 20.0016 16.7088L17.3535 14.0606C17.1582 13.8654 16.8417 13.8654 16.6464 14.0606L15.6252 15.0818C15.3108 15.3963 14.8304 15.4742 14.4326 15.2753C11.9625 14.0403 9.95965 12.0374 8.7246 9.56733C8.52572 9.16956 8.60368 8.68915 8.91814 8.37469L9.93929 7.35354C10.1346 7.15828 10.1346 6.8417 9.93929 6.64644L7.29116 3.99831ZM6.00163 3.2912C6.55298 2.73985 7.44691 2.73985 7.99827 3.2912L10.6464 5.93933C11.2322 6.52511 11.2322 7.47486 10.6464 8.06065L9.62525 9.0818C9.61514 9.0919 9.61264 9.10734 9.61903 9.12012C10.7573 11.3967 12.6033 13.2426 14.8798 14.3809C14.8926 14.3873 14.908 14.3848 14.9181 14.3747L15.9393 13.3535C16.5251 12.7678 17.4748 12.7678 18.0606 13.3535L20.7087 16.0017C21.2601 16.553 21.2601 17.447 20.7087 17.9983C18.6076 20.0995 15.2811 20.3359 12.9039 18.553L11.3285 17.3714C9.54709 16.0353 7.9646 14.4529 6.62852 12.6714L5.44696 11.096C3.66406 8.7188 3.90046 5.39237 6.00163 3.2912Z" fill="black"/>
</svg>
