<svg width="24" height="24" viewBox="0 0 24 24" fill="none" xmlns="http://www.w3.org/2000/svg">
<path fill-rule="evenodd" clip-rule="evenodd" d="M3.51859 12.8379C3.38586 13.0119 3.37108 13.0932 3.37108 13.147C3.37108 13.2009 3.38586 13.2822 3.51859 13.4562C3.66013 13.6417 3.8813 13.8644 4.22463 14.2077L9.79614 19.7792C10.1395 20.1225 10.3621 20.3437 10.5477 20.4852C10.7216 20.618 10.803 20.6328 10.8568 20.6328C10.9106 20.6328 10.992 20.618 11.1659 20.4852C11.3514 20.3437 11.5741 20.1225 11.9175 19.7792L19.5463 12.1504C19.738 11.9586 19.8575 11.8385 19.9409 11.7379C20.0177 11.6453 20.0394 11.5975 20.0497 11.5633C20.0601 11.529 20.0686 11.4773 20.056 11.3576C20.0424 11.2276 20.0097 11.0614 19.9565 10.7955L19.0279 6.1526C18.9624 5.82506 18.9204 5.61863 18.872 5.46531C18.8273 5.32365 18.7904 5.27334 18.7604 5.24339C18.7305 5.21343 18.6802 5.17649 18.5385 5.13179C18.3852 5.0834 18.1788 5.04141 17.8512 4.97591L13.2083 4.04732C12.9425 3.99415 12.7762 3.96141 12.6462 3.94779C12.5266 3.93525 12.4748 3.94374 12.4406 3.95411C12.4063 3.96448 12.3586 3.98612 12.2659 4.06293C12.1654 4.14636 12.0452 4.26582 11.8535 4.45753L4.22463 12.0864C3.8813 12.4297 3.66013 12.6524 3.51859 12.8379ZM3.49425 11.4025C3.50198 11.3948 3.50974 11.3871 3.51753 11.3793L11.1609 3.7359C11.3337 3.56306 11.4868 3.40997 11.6275 3.29323C11.7802 3.16663 11.945 3.05931 12.1508 2.99702C12.3565 2.93472 12.5532 2.93256 12.7505 2.95323C12.9323 2.97229 13.1446 3.01476 13.3843 3.06271L18.0715 4.00016C18.3677 4.05938 18.6281 4.11145 18.8395 4.17815C19.0682 4.25034 19.2834 4.35214 19.4675 4.53628C19.6517 4.72042 19.7535 4.9356 19.8257 5.16433C19.8924 5.37568 19.9444 5.63611 20.0037 5.93229L20.9411 10.6195C20.9891 10.8592 21.0315 11.0715 21.0506 11.2534C21.0713 11.4506 21.0691 11.6473 21.0068 11.853C20.9445 12.0588 20.8372 12.2237 20.7106 12.3763C20.5939 12.517 20.4408 12.6701 20.2679 12.8429L12.6013 20.5096C12.2879 20.823 12.0179 21.0931 11.7725 21.2803C11.5096 21.4809 11.2172 21.6328 10.8568 21.6328C10.4964 21.6328 10.204 21.4809 9.94107 21.2803C9.69574 21.0931 9.42571 20.823 9.1123 20.5096L3.51753 14.9148C3.50974 14.907 3.50198 14.8993 3.49425 14.8915C3.18081 14.5781 2.91075 14.3081 2.72357 14.0628C2.52297 13.7998 2.37108 13.5074 2.37108 13.147C2.37108 12.7866 2.52297 12.4942 2.72357 12.2313C2.91075 11.986 3.18081 11.7159 3.49425 11.4025ZM14.657 7.22555C14.0712 7.81134 14.0712 8.76109 14.657 9.34687C15.2428 9.93266 16.1926 9.93266 16.7783 9.34687C17.3641 8.76109 17.3641 7.81134 16.7783 7.22555C16.1926 6.63977 15.2428 6.63977 14.657 7.22555ZM13.9499 10.054C12.9736 9.07767 12.9736 7.49476 13.9499 6.51845C14.9262 5.54214 16.5091 5.54214 17.4855 6.51845C18.4618 7.49476 18.4618 9.07767 17.4855 10.054C16.5091 11.0303 14.9262 11.0303 13.9499 10.054Z" fill="black"/>
</svg>
