<svg width="24" height="24" viewBox="0 0 24 24" fill="none" xmlns="http://www.w3.org/2000/svg">
<path fill-rule="evenodd" clip-rule="evenodd" d="M4 10C4 5.19664 7.88589 2 12 2C16.254 2 20 5.20219 20 10C20 13.1053 18.5394 15.4708 16.8744 17.3518C16.0562 18.2761 15.1783 19.0948 14.3934 19.8268L14.3566 19.861C13.5509 20.6125 12.8641 21.2568 12.3928 21.8552C12.2978 21.9758 12.1527 22.046 11.9992 22.0458C11.8456 22.0455 11.7008 21.9748 11.6062 21.8538C11.1352 21.2517 10.4486 20.6054 9.64316 19.8534L9.58619 19.8002C8.80673 19.0726 7.93682 18.2605 7.1258 17.3454C5.46082 15.4667 4 13.1055 4 10ZM12 14C14.2091 14 16 12.2091 16 10C16 7.79086 14.2091 6 12 6C9.79086 6 8 7.79086 8 10C8 12.2091 9.79086 14 12 14Z" fill="black"/>
</svg>
