<svg width="24" height="24" viewBox="0 0 24 24" fill="none" xmlns="http://www.w3.org/2000/svg">
<path fill-rule="evenodd" clip-rule="evenodd" d="M12 3.5C7.30558 3.5 3.5 7.30558 3.5 12C3.5 16.6944 7.30558 20.5 12 20.5C16.6944 20.5 20.5 16.6944 20.5 12C20.5 7.30558 16.6944 3.5 12 3.5ZM2.5 12C2.5 6.75329 6.75329 2.5 12 2.5C17.2467 2.5 21.5 6.75329 21.5 12C21.5 17.2467 17.2467 21.5 12 21.5C6.75329 21.5 2.5 17.2467 2.5 12ZM12.6 17.1342C12.6 17.4656 12.3314 17.7342 12 17.7342C11.6687 17.7342 11.4 17.4656 11.4 17.1342C11.4 16.8028 11.6687 16.5342 12 16.5342C12.3314 16.5342 12.6 16.8028 12.6 17.1342ZM12 5.76562C10.067 5.76562 8.5 7.33263 8.5 9.26562C8.5 9.54177 8.72386 9.76562 9 9.76562C9.27614 9.76562 9.5 9.54177 9.5 9.26562C9.5 7.88491 10.6193 6.76562 12 6.76562H12.2308C13.484 6.76562 14.5 7.78159 14.5 9.03486V9.21376C14.5 9.70373 14.2551 10.1613 13.8474 10.4331L12.7227 11.1829C11.9588 11.6922 11.5 12.5494 11.5 13.4675V14.7656C11.5 15.0418 11.7239 15.2656 12 15.2656C12.2761 15.2656 12.5 15.0418 12.5 14.7656V13.4675C12.5 12.8838 12.7917 12.3387 13.2774 12.015L14.4021 11.2651C15.088 10.8079 15.5 10.0381 15.5 9.21376V9.03486C15.5 7.22931 14.0363 5.76562 12.2308 5.76562H12Z" fill="black"/>
</svg>
