<svg width="24" height="24" viewBox="0 0 24 24" fill="none" xmlns="http://www.w3.org/2000/svg">
<path fill-rule="evenodd" clip-rule="evenodd" d="M12 2.50012C6.75329 2.50012 2.5 6.75342 2.5 12.0001C2.5 17.2468 6.75329 21.5001 12 21.5001C17.2467 21.5001 21.5 17.2468 21.5 12.0001C21.5 6.75342 17.2467 2.50012 12 2.50012ZM8.5 9.26575C8.5 7.33275 10.067 5.76575 12 5.76575H12.2308C14.0363 5.76575 15.5 7.22943 15.5 9.03498V9.21388C15.5 10.0382 15.088 10.808 14.4021 11.2652L13.2774 12.0151C12.7917 12.3389 12.5 12.8839 12.5 13.4676V14.7657C12.5 15.0419 12.2761 15.2657 12 15.2657C11.7239 15.2657 11.5 15.0419 11.5 14.7657V13.4676C11.5 12.5496 11.9588 11.6923 12.7227 11.1831L13.8474 10.4332C14.2551 10.1614 14.5 9.70385 14.5 9.21388V9.03498C14.5 7.78172 13.484 6.76575 12.2308 6.76575H12C10.6193 6.76575 9.5 7.88504 9.5 9.26575C9.5 9.54189 9.27614 9.76575 9 9.76575C8.72386 9.76575 8.5 9.54189 8.5 9.26575ZM11.4984 17.1343C11.4984 16.8573 11.7229 16.6327 12 16.6327C12.277 16.6327 12.5016 16.8573 12.5016 17.1343C12.5016 17.4113 12.277 17.6359 12 17.6359C11.7229 17.6359 11.4984 17.4113 11.4984 17.1343Z" fill="black"/>
</svg>
