<svg width="24" height="24" viewBox="0 0 24 24" fill="none" xmlns="http://www.w3.org/2000/svg">
<path fill-rule="evenodd" clip-rule="evenodd" d="M19.2598 5.82349C19.2598 4.31219 18.0346 3.08704 16.5233 3.08704C15.012 3.08704 13.7869 4.31219 13.7869 5.82349C13.7869 7.33479 15.012 8.55994 16.5233 8.55994C18.0346 8.55994 19.2598 7.33479 19.2598 5.82349ZM16.5233 2.08704C18.5869 2.08704 20.2598 3.7599 20.2598 5.82349C20.2598 7.88708 18.5869 9.55994 16.5233 9.55994C15.367 9.55994 14.3334 9.03471 13.648 8.20982L10.0449 10.4613C10.2572 10.9306 10.3754 11.4515 10.3754 12C10.3754 12.5485 10.2572 13.0694 10.0449 13.5387L13.648 15.7902C14.3334 14.9652 15.367 14.44 16.5233 14.44C18.5869 14.44 20.2598 16.1129 20.2598 18.1765C20.2598 20.24 18.5869 21.9129 16.5233 21.9129C14.4597 21.9129 12.7869 20.24 12.7869 18.1765C12.7869 17.6279 12.9051 17.107 13.1174 16.6378L9.51423 14.3863C8.82886 15.2112 7.79523 15.7364 6.63892 15.7364C4.57533 15.7364 2.90247 14.0636 2.90247 12C2.90247 9.93639 4.57533 8.26352 6.63892 8.26352C7.79524 8.26352 8.82888 8.78878 9.51426 9.61371L13.1174 7.36222C12.9051 6.89297 12.7869 6.37204 12.7869 5.82349C12.7869 3.7599 14.4597 2.08704 16.5233 2.08704ZM6.63892 9.26352C8.15022 9.26352 9.37537 10.4887 9.37537 12C9.37537 13.5113 8.15022 14.7364 6.63892 14.7364C5.12762 14.7364 3.90247 13.5113 3.90247 12C3.90247 10.4887 5.12762 9.26352 6.63892 9.26352ZM16.5233 15.44C18.0346 15.44 19.2598 16.6652 19.2598 18.1765C19.2598 19.6878 18.0346 20.9129 16.5233 20.9129C15.012 20.9129 13.7869 19.6878 13.7869 18.1765C13.7869 16.6652 15.012 15.44 16.5233 15.44Z" fill="black"/>
</svg>
