<svg width="24" height="24" viewBox="0 0 24 24" fill="none" xmlns="http://www.w3.org/2000/svg">
<path fill-rule="evenodd" clip-rule="evenodd" d="M8.77779 3.94959H15.2222H15.2222C16.0435 3.94958 16.6905 3.94958 17.2111 3.99212C17.7423 4.03552 18.1859 4.12567 18.589 4.33106C19.2475 4.66662 19.783 5.20205 20.1185 5.86062C20.3239 6.26372 20.4141 6.7073 20.4575 7.23848C20.5 7.75913 20.5 8.4061 20.5 9.22737V12.6718C20.5 13.4931 20.5 14.14 20.4575 14.6607C20.4141 15.1919 20.3239 15.6355 20.1185 16.0386C19.783 16.6971 19.2475 17.2326 18.589 17.5681C18.1859 17.7735 17.7423 17.8637 17.2111 17.9071C16.6905 17.9496 16.0435 17.9496 15.2222 17.9496H6.75C6.59262 17.9496 6.44443 18.0237 6.35 18.1496L5.21 19.6696C4.66222 20.4 3.5 20.0125 3.5 19.0996V9.22738V9.22737C3.5 8.4061 3.49999 7.75913 3.54253 7.23848C3.58593 6.7073 3.67609 6.26372 3.88148 5.86062C4.21703 5.20205 4.75247 4.66662 5.41103 4.33106C5.81414 4.12567 6.25771 4.03552 6.78889 3.99212C7.30954 3.94958 7.95652 3.94958 8.77778 3.94959H8.77779ZM7.36779 13.1596C7.1998 13.1596 7.0278 13.1456 6.8518 13.1176C6.6798 13.0936 6.5138 13.0576 6.3538 13.0096C6.1978 12.9616 6.0578 12.9016 5.9338 12.8296C5.8458 12.7816 5.7838 12.7196 5.7478 12.6436C5.7118 12.5636 5.6978 12.4836 5.7058 12.4036C5.7178 12.3236 5.7478 12.2536 5.7958 12.1936C5.8478 12.1296 5.9118 12.0896 5.9878 12.0736C6.0678 12.0536 6.1558 12.0676 6.2518 12.1156C6.4158 12.2076 6.5938 12.2756 6.7858 12.3196C6.9818 12.3636 7.1758 12.3856 7.36779 12.3856C7.6598 12.3856 7.86779 12.3416 7.9918 12.2536C8.1158 12.1616 8.1778 12.0476 8.1778 11.9116C8.1778 11.7956 8.1338 11.7036 8.0458 11.6356C7.9578 11.5676 7.8038 11.5096 7.5838 11.4616L6.9058 11.3176C6.5218 11.2376 6.2358 11.1016 6.0478 10.9096C5.8638 10.7136 5.7718 10.4576 5.7718 10.1416C5.7718 9.94161 5.8138 9.75961 5.89779 9.59561C5.9818 9.43161 6.0998 9.28961 6.2518 9.16961C6.4038 9.04961 6.5838 8.95761 6.7918 8.89361C7.0038 8.82961 7.2358 8.79761 7.4878 8.79761C7.71179 8.79761 7.9318 8.82561 8.14779 8.88161C8.3638 8.93361 8.55379 9.01161 8.7178 9.11561C8.7978 9.16361 8.8518 9.22561 8.8798 9.30161C8.9118 9.37361 8.92179 9.44761 8.9098 9.52361C8.9018 9.59561 8.87179 9.65961 8.81979 9.71561C8.7718 9.77161 8.70979 9.80761 8.6338 9.82361C8.5578 9.83961 8.4658 9.82161 8.3578 9.76961C8.2258 9.70161 8.0858 9.65161 7.9378 9.61961C7.78979 9.58761 7.63779 9.57161 7.4818 9.57161C7.3138 9.57161 7.1698 9.59361 7.0498 9.63761C6.9338 9.68161 6.8438 9.74361 6.7798 9.82361C6.71979 9.90361 6.6898 9.99561 6.6898 10.0996C6.6898 10.2156 6.7318 10.3096 6.81579 10.3816C6.8998 10.4536 7.04579 10.5116 7.2538 10.5556L7.9318 10.6996C8.3238 10.7836 8.6158 10.9196 8.8078 11.1076C8.99979 11.2916 9.09579 11.5356 9.09579 11.8396C9.09579 12.0396 9.05579 12.2216 8.97579 12.3856C8.89579 12.5456 8.7798 12.6836 8.6278 12.7996C8.4758 12.9156 8.2938 13.0056 8.0818 13.0696C7.8698 13.1296 7.63179 13.1596 7.36779 13.1596ZM10.2315 13.1476C10.0955 13.1476 9.99155 13.1096 9.91955 13.0336C9.84755 12.9576 9.81155 12.8516 9.81155 12.7156V9.24161C9.81155 9.10561 9.84955 8.99961 9.92555 8.92361C10.0055 8.84761 10.1135 8.80961 10.2495 8.80961C10.3695 8.80961 10.4635 8.83361 10.5315 8.88161C10.6035 8.92561 10.6695 9.00361 10.7295 9.11561L12.0135 11.4613L13.2975 9.11561C13.3575 9.00361 13.4215 8.92561 13.4895 8.88161C13.5615 8.83361 13.6555 8.80961 13.7715 8.80961C13.9075 8.80961 14.0115 8.84761 14.0835 8.92361C14.1595 8.99961 14.1975 9.10561 14.1975 9.24161V12.7156C14.1975 12.8516 14.1615 12.9576 14.0895 13.0336C14.0175 13.1096 13.9135 13.1476 13.7775 13.1476C13.6415 13.1476 13.5355 13.1096 13.4595 13.0336C13.3875 12.9576 13.3515 12.8516 13.3515 12.7156V10.5219L12.3675 12.2836C12.3195 12.3596 12.2675 12.4176 12.2115 12.4576C12.1595 12.4936 12.0895 12.5116 12.0015 12.5116C11.9135 12.5116 11.8415 12.4916 11.7855 12.4516C11.7295 12.4116 11.6795 12.3556 11.6355 12.2836L10.6515 10.5354V12.7156C10.6515 12.8516 10.6155 12.9576 10.5435 13.0336C10.4755 13.1096 10.3715 13.1476 10.2315 13.1476ZM16.1514 13.1176C16.3274 13.1456 16.4994 13.1596 16.6674 13.1596C16.9314 13.1596 17.1694 13.1296 17.3814 13.0696C17.5934 13.0056 17.7754 12.9156 17.9274 12.7996C18.0794 12.6836 18.1954 12.5456 18.2754 12.3856C18.3554 12.2216 18.3954 12.0396 18.3954 11.8396C18.3954 11.5356 18.2994 11.2916 18.1074 11.1076C17.9154 10.9196 17.6234 10.7836 17.2314 10.6996L16.5534 10.5556C16.3454 10.5116 16.1994 10.4536 16.1154 10.3816C16.0314 10.3096 15.9894 10.2156 15.9894 10.0996C15.9894 9.99561 16.0194 9.90361 16.0794 9.82361C16.1434 9.74361 16.2334 9.68161 16.3494 9.63761C16.4694 9.59361 16.6134 9.57161 16.7814 9.57161C16.9374 9.57161 17.0894 9.58761 17.2374 9.61961C17.3854 9.65161 17.5254 9.70161 17.6574 9.76961C17.7654 9.82161 17.8574 9.83961 17.9334 9.82361C18.0094 9.80761 18.0714 9.77161 18.1194 9.71561C18.1714 9.65961 18.2014 9.59561 18.2094 9.52361C18.2214 9.44761 18.2114 9.37361 18.1794 9.30161C18.1514 9.22561 18.0974 9.16361 18.0174 9.11561C17.8534 9.01161 17.6634 8.93361 17.4474 8.88161C17.2314 8.82561 17.0114 8.79761 16.7874 8.79761C16.5354 8.79761 16.3034 8.82961 16.0914 8.89361C15.8834 8.95761 15.7034 9.04961 15.5514 9.16961C15.3994 9.28961 15.2814 9.43161 15.1974 9.59561C15.1134 9.75961 15.0714 9.94161 15.0714 10.1416C15.0714 10.4576 15.1634 10.7136 15.3474 10.9096C15.5354 11.1016 15.8214 11.2376 16.2054 11.3176L16.8834 11.4616C17.1034 11.5096 17.2574 11.5676 17.3454 11.6356C17.4334 11.7036 17.4774 11.7956 17.4774 11.9116C17.4774 12.0476 17.4154 12.1616 17.2914 12.2536C17.1674 12.3416 16.9594 12.3856 16.6674 12.3856C16.4754 12.3856 16.2814 12.3636 16.0854 12.3196C15.8934 12.2756 15.7154 12.2076 15.5514 12.1156C15.4554 12.0676 15.3674 12.0536 15.2874 12.0736C15.2114 12.0896 15.1474 12.1296 15.0954 12.1936C15.0474 12.2536 15.0174 12.3236 15.0054 12.4036C14.9974 12.4836 15.0114 12.5636 15.0474 12.6436C15.0834 12.7196 15.1454 12.7816 15.2334 12.8296C15.3574 12.9016 15.4974 12.9616 15.6534 13.0096C15.8134 13.0576 15.9794 13.0936 16.1514 13.1176Z" fill="black"/>
</svg>
