<svg width="24" height="24" viewBox="0 0 24 24" fill="none" xmlns="http://www.w3.org/2000/svg">
<path fill-rule="evenodd" clip-rule="evenodd" d="M12.6002 2.83464C12.2175 2.66759 11.7826 2.66759 11.3999 2.83464C11.131 2.95205 10.9371 3.16498 10.7715 3.39055C10.6082 3.613 10.4288 3.91125 10.2132 4.26948L8.465 7.17437C8.32353 7.40945 8.29287 7.4539 8.26021 7.48677C8.22247 7.52475 8.17887 7.55642 8.13109 7.58058C8.08973 7.60148 8.03799 7.61691 7.7707 7.67881L4.46771 8.44379L4.46769 8.44379C4.06041 8.53811 3.72132 8.61664 3.45932 8.70317C3.19364 8.79091 2.9312 8.90953 2.73643 9.12903C2.45931 9.44134 2.32489 9.85502 2.36552 10.2706C2.39408 10.5626 2.53667 10.8129 2.70004 11.04C2.86114 11.264 3.0893 11.5268 3.36335 11.8425L3.36338 11.8426L5.58592 14.4029C5.76577 14.6101 5.79857 14.653 5.81973 14.6942C5.8442 14.7418 5.86085 14.7931 5.86906 14.846C5.87616 14.8918 5.87483 14.9458 5.85111 15.2191L5.55797 18.5968C5.52181 19.0133 5.49171 19.3601 5.49304 19.636C5.49439 19.9158 5.52611 20.202 5.67468 20.4551C5.88607 20.8152 6.23796 21.0708 6.64573 21.1606C6.93232 21.2237 7.21436 21.1654 7.48088 21.0802C7.74371 20.9962 8.06419 20.8605 8.44914 20.6974L11.571 19.3748C11.8236 19.2678 11.8745 19.2498 11.9203 19.2424C11.9731 19.2339 12.027 19.2339 12.0799 19.2424C12.1256 19.2498 12.1765 19.2678 12.4292 19.3748L15.551 20.6974C15.9359 20.8605 16.2564 20.9962 16.5192 21.0802C16.7858 21.1654 17.0678 21.2237 17.3544 21.1606C17.7622 21.0708 18.1141 20.8152 18.3254 20.4551C18.474 20.202 18.5057 19.9158 18.5071 19.636C18.5084 19.3601 18.4783 19.0133 18.4422 18.5968L18.4421 18.5967L18.149 15.2191C18.1253 14.9458 18.124 14.8918 18.1311 14.846C18.1393 14.7931 18.1559 14.7418 18.1804 14.6942C18.2016 14.653 18.2344 14.6101 18.4142 14.4029L20.6367 11.8426L20.6367 11.8426C20.9108 11.5269 21.139 11.264 21.3001 11.04C21.4635 10.8129 21.606 10.5626 21.6346 10.2706C21.6752 9.85502 21.5408 9.44134 21.2637 9.12903C21.0689 8.90953 20.8065 8.79091 20.5408 8.70317C20.2788 8.61664 19.9397 8.53811 19.5324 8.4438L19.5324 8.44379L16.2294 7.67881C15.9621 7.61691 15.9104 7.60148 15.869 7.58058C15.8212 7.55642 15.7776 7.52475 15.7399 7.48677C15.7072 7.4539 15.6766 7.40945 15.5351 7.17437L13.7869 4.26948C13.5714 3.91124 13.3919 3.613 13.2286 3.39055C13.0631 3.16499 12.8691 2.95205 12.6002 2.83464ZM12 3.70935C12.0682 3.70934 12.1363 3.72326 12.2001 3.75111C12.2234 3.7613 12.2887 3.80007 12.4224 3.98223C12.5553 4.16324 12.7113 4.42155 12.9425 4.80577L14.6783 7.69001L14.7003 7.72652C14.8073 7.90475 14.9016 8.06187 15.0305 8.1916C15.1438 8.30555 15.2745 8.40057 15.4179 8.47304C15.5811 8.55554 15.7597 8.59672 15.9623 8.64344L16.0038 8.65302L19.2832 9.41255C19.7201 9.51373 20.014 9.58231 20.2272 9.65272C20.4418 9.72358 20.4988 9.77371 20.5157 9.79275C20.6081 9.89685 20.6529 10.0347 20.6393 10.1733C20.6369 10.1986 20.6202 10.2727 20.4882 10.4561C20.3571 10.6384 20.1597 10.8666 19.8657 11.2053L17.659 13.7474L17.6311 13.7795L17.6311 13.7795C17.4947 13.9364 17.3744 14.0747 17.2908 14.2373C17.2175 14.3802 17.1675 14.534 17.1429 14.6927C17.1149 14.8734 17.1309 15.056 17.149 15.2631L17.1528 15.3056L17.4438 18.6592C17.4826 19.106 17.5082 19.4067 17.5071 19.6312C17.506 19.8571 17.476 19.9269 17.4631 19.9488C17.3926 20.0689 17.2753 20.1541 17.1394 20.184C17.1145 20.1895 17.0389 20.1965 16.8237 20.1277C16.6098 20.0594 16.3317 19.9421 15.9188 19.7672L12.8192 18.454L12.78 18.4374L12.78 18.4374C12.5887 18.3561 12.42 18.2845 12.2395 18.2553C12.1602 18.2424 12.0801 18.236 12 18.236V3.70935Z" fill="black"/>
</svg>
