<svg width="24" height="24" viewBox="0 0 24 24" fill="none" xmlns="http://www.w3.org/2000/svg">
<path fill-rule="evenodd" clip-rule="evenodd" d="M5.9651 3.28864H18.0348H18.0348C18.3711 3.28862 18.6654 3.2886 18.9075 3.31681C19.1691 3.34729 19.4216 3.41525 19.6509 3.58637C19.8803 3.75749 20.0173 3.98016 20.1211 4.2222C20.2171 4.44621 20.3009 4.72833 20.3966 5.05069L20.3967 5.05075L21.5783 9.02715C21.6495 9.26675 21.7097 9.46956 21.7479 9.63757C21.7873 9.81067 21.8141 9.98988 21.7922 10.1754C21.7295 10.7078 21.3875 11.1663 20.895 11.378C20.7478 11.4413 20.5949 11.469 20.4427 11.4829C20.4438 11.6581 20.4437 11.8428 20.4437 12.0381L20.4436 12.1627V16.7102V16.7489V16.749C20.4437 17.7272 20.4437 18.5149 20.3556 19.1342C20.2638 19.779 20.0679 20.314 19.6223 20.7352C19.1807 21.1525 18.6264 21.3325 17.9578 21.4175C17.3083 21.5 16.4797 21.5 15.4397 21.5H15.4044L14.5 21.5H9.5L8.59564 21.5H8.56037C7.5204 21.5 6.69183 21.5 6.04225 21.4175C5.37372 21.3325 4.81938 21.1525 4.37776 20.7352C3.93215 20.314 3.73626 19.779 3.64451 19.1342C3.55641 18.5149 3.55642 17.7272 3.55644 16.749V16.7489V16.7102V12.1627L3.55642 12.0381L3.55642 12.038C3.55637 11.8428 3.55632 11.6581 3.55741 11.4829C3.40507 11.469 3.25211 11.4413 3.10488 11.378C2.6124 11.1663 2.27035 10.7078 2.20766 10.1754C2.18581 9.98988 2.21259 9.81067 2.25195 9.63757C2.29016 9.46955 2.35043 9.26673 2.42163 9.02712L3.59557 5.07653L3.60323 5.05074C3.699 4.72836 3.78282 4.44622 3.87882 4.2222C3.98254 3.98016 4.11961 3.75749 4.34897 3.58637C4.57833 3.41525 4.83082 3.34729 5.09238 3.31681C5.33446 3.2886 5.62877 3.28862 5.96506 3.28864H5.9651ZM4.55832 11.5C4.55674 11.6992 4.55644 11.9189 4.55644 12.1627V16.7102C4.55644 17.7363 4.55762 18.4526 4.63455 18.9933C4.70899 19.5166 4.84548 19.8013 5.06461 20.0084C5.28774 20.2192 5.60073 20.3533 6.16829 20.4255C6.74747 20.499 7.51236 20.5 8.59564 20.5H9V17.5C9 15.8431 10.3431 14.5 12 14.5C13.6569 14.5 15 15.8431 15 17.5V20.5H15.4044C16.4877 20.5 17.2526 20.499 17.8318 20.4255C18.3993 20.3533 18.7123 20.2192 18.9355 20.0084C19.1546 19.8013 19.2911 19.5166 19.3655 18.9933C19.4425 18.4526 19.4436 17.7363 19.4436 16.7102V12.1627C19.4436 11.9189 19.4433 11.6992 19.4418 11.5L19.4121 11.5C19.0228 11.5001 18.756 11.5002 18.5151 11.4526C17.7938 11.31 17.1773 10.8587 16.8215 10.2268C16.4266 10.9281 15.7092 11.4078 14.8858 11.4882C14.7643 11.5 14.6315 11.5 14.4375 11.5H14.3839C14.1899 11.5 14.0571 11.5 13.9356 11.4882C13.1121 11.4078 12.3948 10.9282 11.9999 10.2269C11.605 10.9282 10.8877 11.4078 10.0643 11.4882C9.9428 11.5 9.81001 11.5 9.61602 11.5H9.56239C9.3684 11.5 9.23561 11.5 9.11408 11.4882C8.29064 11.4078 7.57331 10.9281 7.17842 10.2268C6.82262 10.8587 6.20608 11.31 5.48479 11.4526C5.24391 11.5002 4.97712 11.5001 4.5878 11.5H4.58779H4.58778L4.55832 11.5ZM14 20.5V17.5C14 16.3954 13.1046 15.5 12 15.5C10.8954 15.5 10 16.3954 10 17.5V20.5H14ZM5.20812 4.31009C5.04383 4.32923 4.98363 4.36051 4.94695 4.38788C4.91026 4.41525 4.86313 4.46405 4.79799 4.61608C4.72767 4.78017 4.65985 5.00562 4.55414 5.36137L3.38482 9.29646C3.30778 9.55572 3.25714 9.72699 3.22706 9.85929C3.19732 9.99011 3.19857 10.0395 3.2008 10.0585C3.2217 10.2359 3.33571 10.3887 3.49987 10.4593C3.51738 10.4669 3.5644 10.4821 3.69828 10.4909C3.83366 10.4997 4.01226 10.5 4.28272 10.5H4.53397C4.9976 10.5 5.15869 10.4977 5.29091 10.4715C5.78407 10.3741 6.19562 10.036 6.38706 9.57122C6.43839 9.4466 6.47198 9.28903 6.56207 8.83424L6.56342 8.82746C6.57279 8.78011 6.58206 8.73333 6.59054 8.69667C6.59503 8.6773 6.60154 8.65075 6.61038 8.62297C6.61648 8.60379 6.63595 8.54276 6.67851 8.47861C6.91584 8.1209 7.4411 8.1209 7.67843 8.47861C7.72099 8.54276 7.74046 8.60379 7.74656 8.62297C7.7554 8.65075 7.76191 8.6773 7.7664 8.69667C7.77487 8.73329 7.78413 8.78 7.79349 8.8273L7.7935 8.82732L7.79351 8.82738L7.84029 9.06355C7.88516 9.29002 7.90136 9.36882 7.92071 9.43299C8.09625 10.0152 8.60595 10.4338 9.21119 10.4929C9.2779 10.4994 9.35833 10.5 9.58921 10.5C9.82008 10.5 9.90052 10.4994 9.96723 10.4929C10.5725 10.4338 11.0822 10.0152 11.2577 9.43299C11.2771 9.36882 11.2933 9.29002 11.3381 9.06355L11.3849 8.82736C11.3943 8.78005 11.4035 8.73331 11.412 8.69667C11.4165 8.6773 11.423 8.65075 11.4319 8.62297C11.438 8.60379 11.4574 8.54276 11.5 8.47861C11.7373 8.1209 12.2626 8.1209 12.4999 8.47861C12.5425 8.54276 12.5619 8.60379 12.568 8.62297C12.5769 8.65075 12.5834 8.6773 12.5879 8.69667C12.5963 8.73331 12.6056 8.78006 12.615 8.82737L12.615 8.82747L12.615 8.82755L12.6618 9.06355C12.7066 9.29002 12.7228 9.36882 12.7422 9.43299C12.9177 10.0152 13.4274 10.4338 14.0327 10.4929C14.0994 10.4994 14.1798 10.5 14.4107 10.5C14.6416 10.5 14.722 10.4994 14.7887 10.4929C15.3939 10.4338 15.9036 10.0152 16.0792 9.43299C16.0985 9.36882 16.1147 9.29002 16.1596 9.06355L16.2063 8.82757C16.2157 8.78018 16.225 8.73336 16.2335 8.69667C16.238 8.6773 16.2445 8.65075 16.2533 8.62297C16.2594 8.60379 16.2789 8.54276 16.3215 8.47861C16.5588 8.1209 17.084 8.1209 17.3214 8.47861C17.3639 8.54276 17.3834 8.60379 17.3895 8.62297C17.3983 8.65075 17.4049 8.6773 17.4093 8.69667C17.4178 8.73331 17.4271 8.78006 17.4365 8.82737L17.4378 8.83424C17.5279 9.28903 17.5615 9.4466 17.6128 9.57122C17.8043 10.036 18.2158 10.3741 18.709 10.4715C18.8412 10.4977 19.0023 10.5 19.4659 10.5H19.7172C19.9876 10.5 20.1662 10.4997 20.3016 10.4909C20.4355 10.4821 20.4825 10.4669 20.5 10.4593C20.6642 10.3887 20.7782 10.2359 20.7991 10.0585C20.8013 10.0395 20.8026 9.99011 20.7728 9.85929C20.7427 9.72699 20.6921 9.55572 20.6151 9.29646L19.4457 5.36137C19.34 5.00562 19.2722 4.78017 19.2019 4.61608C19.1368 4.46405 19.0896 4.41525 19.0529 4.38788C19.0163 4.36051 18.9561 4.32923 18.7918 4.31009C18.6144 4.28943 18.379 4.28864 18.0079 4.28864H5.992C5.62087 4.28864 5.38544 4.28943 5.20812 4.31009Z" fill="black"/>
</svg>
