<svg width="24" height="24" viewBox="0 0 24 24" fill="none" xmlns="http://www.w3.org/2000/svg">
<path fill-rule="evenodd" clip-rule="evenodd" d="M5.86502 5.22207C6.10366 5.10048 6.40099 5.02714 6.87032 4.9888C7.34549 4.94997 7.95167 4.94959 8.8 4.94959H15.2C16.0483 4.94959 16.6545 4.94997 17.1297 4.9888C17.599 5.02714 17.8963 5.10048 18.135 5.22207C18.6054 5.46175 18.9878 5.8442 19.2275 6.31461C19.3491 6.55324 19.4224 6.85057 19.4608 7.31991C19.4996 7.79508 19.5 8.40126 19.5 9.24959V12.6496C19.5 13.4979 19.4996 14.1041 19.4608 14.5793C19.4224 15.0486 19.3491 15.3459 19.2275 15.5846C18.9878 16.055 18.6054 16.4374 18.135 16.6771C17.8963 16.7987 17.599 16.872 17.1297 16.9104C16.6545 16.9492 16.0483 16.9496 15.2 16.9496H6.75C6.27786 16.9496 5.83328 17.1719 5.55 17.5496L4.5 18.9496V9.24959C4.5 8.40126 4.50039 7.79508 4.53921 7.31991C4.57756 6.85057 4.65089 6.55324 4.77248 6.31461C5.01217 5.8442 5.39462 5.46175 5.86502 5.22207ZM15.2222 3.94958H8.77779H8.77778C7.95652 3.94958 7.30954 3.94958 6.78889 3.99212C6.25771 4.03552 5.81414 4.12567 5.41103 4.33106C4.75247 4.66662 4.21703 5.20205 3.88148 5.86062C3.67609 6.26372 3.58593 6.7073 3.54253 7.23848C3.49999 7.75913 3.5 8.4061 3.5 9.22737V9.22738V19.0996C3.5 20.0125 4.66222 20.4 5.21 19.6696L6.35 18.1496C6.44443 18.0237 6.59262 17.9496 6.75 17.9496H15.2222C16.0435 17.9496 16.6905 17.9496 17.2111 17.9071C17.7423 17.8637 18.1859 17.7735 18.589 17.5681C19.2475 17.2326 19.783 16.6971 20.1185 16.0386C20.3239 15.6355 20.4141 15.1919 20.4575 14.6607C20.5 14.14 20.5 13.4931 20.5 12.6718V9.22737C20.5 8.4061 20.5 7.75913 20.4575 7.23848C20.4141 6.7073 20.3239 6.26372 20.1185 5.86062C19.783 5.20205 19.2475 4.66662 18.589 4.33106C18.1859 4.12567 17.7423 4.03552 17.2111 3.99212C16.6905 3.94958 16.0435 3.94958 15.2222 3.94958H15.2222ZM7.36779 13.4325C7.1998 13.4325 7.0278 13.4185 6.8518 13.3905C6.6798 13.3665 6.5138 13.3305 6.3538 13.2825C6.1978 13.2345 6.0578 13.1745 5.9338 13.1025C5.8458 13.0545 5.7838 12.9925 5.7478 12.9165C5.7118 12.8365 5.6978 12.7565 5.7058 12.6765C5.7178 12.5965 5.7478 12.5265 5.7958 12.4665C5.8478 12.4025 5.9118 12.3625 5.9878 12.3465C6.0678 12.3265 6.1558 12.3405 6.2518 12.3885C6.4158 12.4805 6.5938 12.5485 6.7858 12.5925C6.9818 12.6365 7.1758 12.6585 7.36779 12.6585C7.6598 12.6585 7.86779 12.6145 7.9918 12.5265C8.1158 12.4345 8.1778 12.3205 8.1778 12.1845C8.1778 12.0685 8.1338 11.9765 8.0458 11.9085C7.9578 11.8405 7.8038 11.7825 7.5838 11.7345L6.9058 11.5905C6.5218 11.5105 6.2358 11.3745 6.0478 11.1825C5.8638 10.9865 5.7718 10.7305 5.7718 10.4145C5.7718 10.2145 5.8138 10.0325 5.89779 9.8685C5.9818 9.7045 6.0998 9.5625 6.2518 9.4425C6.4038 9.3225 6.5838 9.2305 6.7918 9.1665C7.0038 9.1025 7.2358 9.0705 7.4878 9.0705C7.71179 9.0705 7.9318 9.0985 8.14779 9.1545C8.3638 9.2065 8.55379 9.2845 8.7178 9.3885C8.7978 9.4365 8.8518 9.4985 8.8798 9.5745C8.9118 9.6465 8.92179 9.7205 8.9098 9.7965C8.9018 9.8685 8.87179 9.9325 8.81979 9.9885C8.7718 10.0445 8.70979 10.0805 8.6338 10.0965C8.5578 10.1125 8.4658 10.0945 8.3578 10.0425C8.2258 9.9745 8.0858 9.9245 7.9378 9.8925C7.78979 9.8605 7.63779 9.8445 7.4818 9.8445C7.3138 9.8445 7.1698 9.8665 7.0498 9.9105C6.9338 9.9545 6.8438 10.0165 6.7798 10.0965C6.71979 10.1765 6.6898 10.2685 6.6898 10.3725C6.6898 10.4885 6.7318 10.5825 6.81579 10.6545C6.8998 10.7265 7.04579 10.7845 7.2538 10.8285L7.9318 10.9725C8.3238 11.0565 8.6158 11.1925 8.8078 11.3805C8.99979 11.5645 9.09579 11.8085 9.09579 12.1125C9.09579 12.3125 9.05579 12.4945 8.97579 12.6585C8.89579 12.8185 8.7798 12.9565 8.6278 13.0725C8.4758 13.1885 8.2938 13.2785 8.0818 13.3425C7.8698 13.4025 7.63179 13.4325 7.36779 13.4325ZM10.2315 13.4205C10.0955 13.4205 9.99155 13.3825 9.91955 13.3065C9.84755 13.2305 9.81155 13.1245 9.81155 12.9885V9.5145C9.81155 9.3785 9.84955 9.2725 9.92555 9.1965C10.0055 9.1205 10.1135 9.0825 10.2495 9.0825C10.3695 9.0825 10.4635 9.1065 10.5315 9.1545C10.6035 9.1985 10.6695 9.2765 10.7295 9.3885L12.0135 11.7342L13.2975 9.3885C13.3575 9.2765 13.4215 9.1985 13.4895 9.1545C13.5615 9.1065 13.6555 9.0825 13.7715 9.0825C13.9075 9.0825 14.0115 9.1205 14.0835 9.1965C14.1595 9.2725 14.1975 9.3785 14.1975 9.5145V12.9885C14.1975 13.1245 14.1615 13.2305 14.0895 13.3065C14.0175 13.3825 13.9135 13.4205 13.7775 13.4205C13.6415 13.4205 13.5355 13.3825 13.4595 13.3065C13.3875 13.2305 13.3515 13.1245 13.3515 12.9885V10.7948L12.3675 12.5565C12.3195 12.6325 12.2675 12.6905 12.2115 12.7305C12.1595 12.7665 12.0895 12.7845 12.0015 12.7845C11.9135 12.7845 11.8415 12.7645 11.7855 12.7245C11.7295 12.6845 11.6795 12.6285 11.6355 12.5565L10.6515 10.8083V12.9885C10.6515 13.1245 10.6155 13.2305 10.5435 13.3065C10.4755 13.3825 10.3715 13.4205 10.2315 13.4205ZM16.1514 13.3905C16.3274 13.4185 16.4994 13.4325 16.6674 13.4325C16.9314 13.4325 17.1694 13.4025 17.3814 13.3425C17.5934 13.2785 17.7754 13.1885 17.9274 13.0725C18.0794 12.9565 18.1954 12.8185 18.2754 12.6585C18.3554 12.4945 18.3954 12.3125 18.3954 12.1125C18.3954 11.8085 18.2994 11.5645 18.1074 11.3805C17.9154 11.1925 17.6234 11.0565 17.2314 10.9725L16.5534 10.8285C16.3454 10.7845 16.1994 10.7265 16.1154 10.6545C16.0314 10.5825 15.9894 10.4885 15.9894 10.3725C15.9894 10.2685 16.0194 10.1765 16.0794 10.0965C16.1434 10.0165 16.2334 9.9545 16.3494 9.9105C16.4694 9.8665 16.6134 9.8445 16.7814 9.8445C16.9374 9.8445 17.0894 9.8605 17.2374 9.8925C17.3854 9.9245 17.5254 9.9745 17.6574 10.0425C17.7654 10.0945 17.8574 10.1125 17.9334 10.0965C18.0094 10.0805 18.0714 10.0445 18.1194 9.9885C18.1714 9.9325 18.2014 9.8685 18.2094 9.7965C18.2214 9.7205 18.2114 9.6465 18.1794 9.5745C18.1514 9.4985 18.0974 9.4365 18.0174 9.3885C17.8534 9.2845 17.6634 9.2065 17.4474 9.1545C17.2314 9.0985 17.0114 9.0705 16.7874 9.0705C16.5354 9.0705 16.3034 9.1025 16.0914 9.1665C15.8834 9.2305 15.7034 9.3225 15.5514 9.4425C15.3994 9.5625 15.2814 9.7045 15.1974 9.8685C15.1134 10.0325 15.0714 10.2145 15.0714 10.4145C15.0714 10.7305 15.1634 10.9865 15.3474 11.1825C15.5354 11.3745 15.8214 11.5105 16.2054 11.5905L16.8834 11.7345C17.1034 11.7825 17.2574 11.8405 17.3454 11.9085C17.4334 11.9765 17.4774 12.0685 17.4774 12.1845C17.4774 12.3205 17.4154 12.4345 17.2914 12.5265C17.1674 12.6145 16.9594 12.6585 16.6674 12.6585C16.4754 12.6585 16.2814 12.6365 16.0854 12.5925C15.8934 12.5485 15.7154 12.4805 15.5514 12.3885C15.4554 12.3405 15.3674 12.3265 15.2874 12.3465C15.2114 12.3625 15.1474 12.4025 15.0954 12.4665C15.0474 12.5265 15.0174 12.5965 15.0054 12.6765C14.9974 12.7565 15.0114 12.8365 15.0474 12.9165C15.0834 12.9925 15.1454 13.0545 15.2334 13.1025C15.3574 13.1745 15.4974 13.2345 15.6534 13.2825C15.8134 13.3305 15.9794 13.3665 16.1514 13.3905Z" fill="black"/>
</svg>
