<svg width="24" height="24" viewBox="0 0 24 24" fill="none" xmlns="http://www.w3.org/2000/svg">
<path fill-rule="evenodd" clip-rule="evenodd" d="M2.49047 5.45704C2 6.41965 2 7.67976 2 10.2V17.8C2 18.9201 2 19.4802 2.21799 19.908C2.40973 20.2843 2.71569 20.5903 3.09202 20.782C3.51984 21 4.0799 21 5.2 21H14.7055C12.8136 20.1304 11.5 18.2186 11.5 16C11.5 12.9624 13.9624 10.5 17 10.5C19.2186 10.5 21.1304 11.8136 22 13.7055V10.2C22 7.67976 22 6.41965 21.5095 5.45704C21.0781 4.61031 20.3897 3.9219 19.543 3.49047C18.5804 3 17.3202 3 14.8 3H9.2C6.67976 3 5.41965 3 4.45704 3.49047C3.61031 3.9219 2.9219 4.61031 2.49047 5.45704ZM7 9C6.44772 9 6 9.44772 6 10C6 10.5523 6.44772 11 7 11H13C13.5523 11 14 10.5523 14 10C14 9.44772 13.5523 9 13 9H7ZM7 13C6.44772 13 6 13.4477 6 14C6 14.5523 6.44772 15 7 15H10C10.5523 15 11 14.5523 11 14C11 13.4477 10.5523 13 10 13H7ZM17 17.5C17.8284 17.5 18.5 16.8284 18.5 16C18.5 15.1716 17.8284 14.5 17 14.5C16.1716 14.5 15.5 15.1716 15.5 16C15.5 16.8284 16.1716 17.5 17 17.5ZM17 19.5C17.6028 19.5 18.1699 19.3476 18.6651 19.0793L20.2929 20.7071C20.6834 21.0976 21.3166 21.0976 21.7071 20.7071C22.0976 20.3166 22.0976 19.6834 21.7071 19.2929L20.0793 17.6651C20.3476 17.1699 20.5 16.6028 20.5 16C20.5 14.067 18.933 12.5 17 12.5C15.067 12.5 13.5 14.067 13.5 16C13.5 17.933 15.067 19.5 17 19.5Z" fill="black"/>
</svg>
