<svg width="24" height="24" viewBox="0 0 24 24" fill="none" xmlns="http://www.w3.org/2000/svg">
<path fill-rule="evenodd" clip-rule="evenodd" d="M15.4184 4.39082C16.3877 4.23059 17.0831 4.11609 17.6303 4.07362C18.1728 4.0315 18.5164 4.06574 18.7923 4.16852C19.3397 4.37239 19.7983 4.76148 20.0887 5.26824C20.2352 5.52372 20.325 5.85714 20.3719 6.39926C20.4192 6.94606 20.4197 7.6508 20.4197 8.63325V15.3667C20.4197 16.3492 20.4192 17.0539 20.3719 17.6007C20.325 18.1429 20.2352 18.4763 20.0887 18.7318C19.7983 19.2385 19.3397 19.6276 18.7923 19.8315C18.5164 19.9343 18.1728 19.9685 17.6303 19.9264C17.0831 19.8839 16.3877 19.7694 15.4184 19.6092L12.7597 19.1697C12.2766 19.0898 11.9416 19.0341 11.6818 18.9707C11.428 18.9088 11.2818 18.8474 11.1706 18.7735C10.9345 18.6169 10.7477 18.3966 10.6316 18.1382C10.5769 18.0164 10.5402 17.8622 10.5205 17.6017C10.5003 17.335 10.5 16.9955 10.5 16.5058V15.6697C10.5 15.3935 10.2761 15.1697 10 15.1697C9.72386 15.1697 9.5 15.3935 9.5 15.6697L9.5 16.5252V16.5252C9.5 16.9909 9.49999 17.3683 9.52337 17.6772C9.54754 17.9966 9.59858 18.2788 9.71942 18.5479C9.91283 18.9786 10.2242 19.3457 10.6176 19.6068C10.8633 19.7698 11.1335 19.8662 11.4447 19.9422C11.7456 20.0156 12.118 20.0772 12.5775 20.1531L15.279 20.5997C16.2194 20.7552 16.9574 20.8772 17.5529 20.9234C18.158 20.9703 18.6689 20.9446 19.1414 20.7686C19.9076 20.4831 20.5498 19.9384 20.9564 19.229C21.2071 18.7915 21.3158 18.2917 21.3682 17.687C21.4197 17.092 21.4197 16.344 21.4197 15.3909V15.3908V8.60916V8.60912C21.4197 7.65598 21.4197 6.90799 21.3682 6.31301C21.3158 5.70834 21.2071 5.2085 20.9564 4.77102C20.5498 4.06156 19.9076 3.51684 19.1414 3.23142C18.6689 3.05542 18.158 3.02964 17.5529 3.07661C16.9574 3.12283 16.2195 3.24483 15.2791 3.40028L12.5774 3.84687C12.118 3.92282 11.7456 3.98437 11.4447 4.05781C11.1335 4.13375 10.8633 4.23014 10.6176 4.39324C10.2242 4.65429 9.91283 5.0214 9.71942 5.45208C9.59858 5.72114 9.54754 6.00337 9.52337 6.32279C9.49999 6.63165 9.5 7.00909 9.5 7.47477V7.47479L9.5 8.50893C9.5 8.78507 9.72386 9.00893 10 9.00893C10.2761 9.00893 10.5 8.78507 10.5 8.50893V7.49417C10.5 7.00452 10.5003 6.66495 10.5205 6.39825C10.5402 6.13782 10.5769 5.98355 10.6316 5.86175C10.7477 5.60334 10.9345 5.38308 11.1706 5.22644C11.2818 5.15261 11.428 5.09122 11.6818 5.0293C11.9416 4.96589 12.2766 4.91018 12.7597 4.83032L15.4184 4.39082ZM7.39043 7.31234C7.56294 7.09671 7.52798 6.78207 7.31235 6.60956C7.09672 6.43706 6.78207 6.47202 6.60957 6.68765L2.60957 11.6876C2.46348 11.8703 2.46348 12.1297 2.60957 12.3123L6.60957 17.3123C6.78207 17.528 7.09672 17.5629 7.31235 17.3904C7.52798 17.2179 7.56294 16.9033 7.39043 16.6876L4.04031 12.5H17C17.2761 12.5 17.5 12.2761 17.5 12C17.5 11.7239 17.2761 11.5 17 11.5H4.04031L7.39043 7.31234Z" fill="black"/>
</svg>
