<svg width="24" height="24" viewBox="0 0 24 24" fill="none" xmlns="http://www.w3.org/2000/svg">
<path fill-rule="evenodd" clip-rule="evenodd" d="M6.99997 8H6.05743L9.49997 3.61859L12.9425 8H12C11.4477 8 11 8.44772 11 9L11 14H9.41146C8.41015 14 7.84925 15.154 8.46788 15.9414L13.7137 22.6178C13.9032 22.8591 14.1931 23 14.5 23C14.8068 23 15.0967 22.8591 15.2863 22.6178L20.5321 15.9414C21.1507 15.154 20.5898 14 19.5885 14H18V11C18 10.4477 17.5523 10 17 10C16.4477 10 16 10.4477 16 11V15C16 15.5523 16.4477 16 17 16H17.9425L14.5 20.3814L11.0574 16H12C12.5523 16 13 15.5523 13 15V10L14.5885 10C15.5898 10 16.1507 8.84597 15.5321 8.05861L10.2863 1.38218C10.0967 1.14089 9.80683 1 9.49997 1C9.19311 1 8.90324 1.14089 8.71365 1.38218L3.46788 8.05861C2.84925 8.84597 3.41014 10 4.41146 10H5.99997L5.99997 13C5.99997 13.5523 6.44768 14 6.99997 14C7.55225 14 7.99997 13.5523 7.99997 13V9C7.99997 8.44772 7.55225 8 6.99997 8Z" fill="black"/>
</svg>
