<svg width="24" height="24" viewBox="0 0 24 24" fill="none" xmlns="http://www.w3.org/2000/svg">
<path fill-rule="evenodd" clip-rule="evenodd" d="M19.8648 5.94849C19.8648 3.8849 18.1919 2.21204 16.1283 2.21204C14.0647 2.21204 12.3918 3.8849 12.3918 5.94849C12.3918 6.31681 12.4451 6.67268 12.5444 7.00881L8.76712 9.36914C8.10234 8.76014 7.21652 8.38852 6.2439 8.38852C4.18031 8.38852 2.50745 10.0614 2.50745 12.125C2.50745 14.1886 4.18031 15.8614 6.2439 15.8614C7.21651 15.8614 8.10233 15.4898 8.76711 14.8808L12.5444 17.2411C12.4451 17.5773 12.3918 17.9331 12.3918 18.3015C12.3918 20.365 14.0647 22.0379 16.1283 22.0379C18.1919 22.0379 19.8648 20.365 19.8648 18.3015C19.8648 16.2379 18.1919 14.565 16.1283 14.565C15.1557 14.565 14.2699 14.9366 13.6051 15.5456L9.82778 13.1852C9.92707 12.8491 9.98035 12.4933 9.98035 12.125C9.98035 11.7567 9.92707 11.4008 9.82779 11.0647L13.6051 8.70437C14.2699 9.31334 15.1557 9.68494 16.1283 9.68494C18.1919 9.68494 19.8648 8.01208 19.8648 5.94849Z" fill="black"/>
</svg>
