<svg width="24" height="24" viewBox="0 0 24 24" fill="none" xmlns="http://www.w3.org/2000/svg">
<path fill-rule="evenodd" clip-rule="evenodd" d="M17.9827 2.66364H6.01741H6.01738C5.66976 2.66362 5.36602 2.6636 5.1169 2.69321C4.84791 2.72519 4.58851 2.79657 4.35548 2.97659C4.12245 3.15662 3.98788 3.38958 3.88902 3.64178C3.79746 3.87536 3.72077 4.16927 3.63301 4.50565L3.62604 4.53237L2.34602 9.43733C2.28168 9.68383 2.2271 9.89299 2.19427 10.0663C2.16034 10.2454 2.14027 10.43 2.17168 10.6198C2.18617 10.7075 2.20826 10.7928 2.23732 10.875H4.53403C4.99765 10.875 5.15875 10.8727 5.29097 10.8465C5.78413 10.7491 6.19568 10.4111 6.38712 9.94623C6.43823 9.82214 6.47175 9.66537 6.561 9.21499L6.562 9.20923L6.56347 9.20249L6.56348 9.20245C6.57285 9.15511 6.58212 9.10834 6.5906 9.07168C6.59508 9.05232 6.6016 9.02576 6.61044 8.99798C6.61654 8.97881 6.63601 8.91777 6.67857 8.85362C6.9159 8.49592 7.44116 8.49592 7.67849 8.85362C7.72105 8.91777 7.74052 8.97881 7.74662 8.99798C7.75546 9.02576 7.76197 9.05231 7.76645 9.07168C7.77493 9.10831 7.78419 9.15504 7.79356 9.20234L7.79356 9.20236L7.79357 9.20241L7.79358 9.20244L7.84035 9.43856C7.88522 9.66504 7.90142 9.74383 7.92076 9.808C8.09631 10.3902 8.606 10.8089 9.21124 10.8679C9.27795 10.8744 9.35839 10.875 9.58926 10.875C9.82014 10.875 9.90058 10.8744 9.96728 10.8679C10.5725 10.8089 11.0822 10.3902 11.2578 9.808C11.2771 9.74383 11.2933 9.66503 11.3382 9.43856L11.3809 9.22272L11.3836 9.20925L11.385 9.20237L11.385 9.2022L11.385 9.20215C11.3944 9.15491 11.4036 9.10825 11.4121 9.07167C11.4166 9.05231 11.4231 9.02576 11.4319 8.99798C11.438 8.9788 11.4575 8.91777 11.5 8.85363C11.7374 8.49593 12.2626 8.49592 12.5 8.85362C12.5425 8.91776 12.562 8.9788 12.5681 8.99798C12.5769 9.02576 12.5834 9.05231 12.5879 9.07168C12.5964 9.10825 12.6056 9.15491 12.615 9.20215L12.615 9.2022L12.615 9.20237L12.6164 9.20923L12.6191 9.2227L12.6618 9.43856L12.6636 9.44772C12.7071 9.66718 12.7232 9.7447 12.7422 9.80799C12.9178 10.3902 13.4275 10.8089 14.0327 10.8679C14.0994 10.8744 14.1799 10.875 14.4107 10.875C14.6416 10.875 14.722 10.8744 14.7888 10.8679C15.394 10.8089 15.9037 10.3902 16.0792 9.80799C16.0985 9.7441 16.1146 9.66571 16.1591 9.44145L16.1596 9.43856L16.2026 9.22179L16.2051 9.20925L16.2064 9.20237L16.2064 9.20232C16.2158 9.15502 16.2251 9.10829 16.2335 9.07167C16.238 9.05231 16.2445 9.02576 16.2534 8.99798C16.2595 8.9788 16.279 8.91776 16.3215 8.85362C16.5588 8.49592 17.0841 8.49592 17.3214 8.85362C17.364 8.91776 17.3835 8.9788 17.3896 8.99798C17.3984 9.02576 17.4049 9.05231 17.4094 9.07167C17.4179 9.10826 17.4271 9.15494 17.4365 9.20219L17.4379 9.20923L17.4399 9.21964L17.4404 9.22209C17.5286 9.66701 17.562 9.82279 17.6129 9.94623C17.8043 10.4111 18.2159 10.7491 18.709 10.8465C18.8413 10.8727 19.0023 10.875 19.466 10.875H21.7628C21.7918 10.7928 21.8139 10.7075 21.8284 10.6198C21.8598 10.43 21.8398 10.2454 21.8058 10.0663C21.773 9.89299 21.7184 9.68383 21.6541 9.43733L21.6541 9.4373L20.3671 4.50564C20.2793 4.16927 20.2026 3.87536 20.1111 3.64178C20.0122 3.38958 19.8776 3.15662 19.6446 2.97659C19.4116 2.79657 19.1522 2.72519 18.8832 2.69321C18.6341 2.6636 18.3303 2.66362 17.9827 2.66364H17.9827ZM3.55629 12.4131C3.55625 12.2241 3.5562 12.0452 3.55719 11.875H4.53403L4.58784 11.875C4.97716 11.8751 5.24396 11.8752 5.48485 11.8276C6.20613 11.685 6.82268 11.2337 7.17848 10.6018C7.57337 11.3032 8.2907 11.7828 9.11414 11.8632C9.23567 11.875 9.36846 11.875 9.56245 11.875H9.61608C9.81007 11.875 9.94286 11.875 10.0644 11.8632C10.8878 11.7828 11.6051 11.3032 12 10.6019C12.3949 11.3032 13.1122 11.7828 13.9356 11.8632C14.0571 11.875 14.1899 11.875 14.3839 11.875H14.4375C14.6315 11.875 14.7643 11.875 14.8859 11.8632C15.7093 11.7828 16.4266 11.3031 16.8215 10.6018C17.1773 11.2337 17.7939 11.685 18.5152 11.8276C18.756 11.8752 19.0228 11.8751 19.4122 11.875L19.466 11.875H20.4426C20.4436 12.0447 20.4436 12.2231 20.4435 12.4114V12.4127V12.4131L20.4435 12.5377V17.1239C20.4435 18.1022 20.4435 18.8899 20.3554 19.5092C20.2637 20.154 20.0678 20.6891 19.6222 21.1102C19.1806 21.5275 18.6262 21.7075 17.9577 21.7925C17.3081 21.875 16.4796 21.875 15.4396 21.875H8.56025C7.52028 21.875 6.6917 21.875 6.04212 21.7925C5.37359 21.7075 4.81926 21.5275 4.37764 21.1102C3.93203 20.6891 3.73613 20.154 3.64439 19.5092C3.55629 18.8899 3.5563 18.1022 3.55631 17.124V17.1239V12.5377L3.55629 12.4131L3.55629 12.4131ZM12 15.6078C10.8954 15.6078 10 16.5033 10 17.6078V20.6078H14V17.6078C14 16.5033 13.1046 15.6078 12 15.6078Z" fill="black"/>
</svg>
