<svg width="24" height="24" viewBox="0 0 24 24" fill="none" xmlns="http://www.w3.org/2000/svg">
<path fill-rule="evenodd" clip-rule="evenodd" d="M7.17479 8.62234L5.27244 8.62234L9.58739 3.13059L13.9023 8.62234H12C11.7335 8.62234 11.5175 8.83837 11.5175 9.10486L11.5175 14.4126H9.502C8.93832 14.4126 8.62257 15.0622 8.97082 15.5055L14.0332 21.9485C14.1247 22.0649 14.2645 22.1329 14.4126 22.1329C14.5607 22.1329 14.7005 22.0649 14.792 21.9485L19.8544 15.5055C20.2027 15.0622 19.8869 14.4126 19.3232 14.4126H17.3077V11.035C17.3077 10.7685 17.0917 10.5524 16.8252 10.5524C16.5587 10.5524 16.3427 10.7685 16.3427 11.035L16.3427 14.8951C16.3427 15.1616 16.5587 15.3776 16.8252 15.3776H18.7276L14.4126 20.8694L10.0977 15.3776H12C12.2665 15.3776 12.4825 15.1616 12.4825 14.8951L12.4825 9.58738H14.498C15.0617 9.58738 15.3774 8.93772 15.0292 8.49449L9.96681 2.05147C9.87533 1.93505 9.73546 1.86707 9.58739 1.86707C9.43933 1.86707 9.29946 1.93505 9.20798 2.05147L4.14561 8.49449C3.79735 8.93773 4.1131 9.58738 4.67678 9.58738L6.69227 9.58738L6.69227 12.965C6.69227 13.2315 6.90831 13.4475 7.17479 13.4475C7.44128 13.4475 7.65731 13.2315 7.65731 12.965V9.10486C7.65731 8.83837 7.44128 8.62234 7.17479 8.62234Z" fill="black"/>
</svg>
