<svg width="24" height="24" viewBox="0 0 24 24" fill="none" xmlns="http://www.w3.org/2000/svg">
<path fill-rule="evenodd" clip-rule="evenodd" d="M12.8956 2.71986C12.3086 2.56449 11.6914 2.56449 11.1044 2.71986L4.61616 4.43733C3.95822 4.61149 3.5 5.20679 3.5 5.88739V12.4816C3.5 14.6628 4.59395 16.6985 6.41287 17.9022L11.1722 21.0518C11.6741 21.3839 12.3259 21.3839 12.8278 21.0518L17.5871 17.9022C19.4061 16.6985 20.5 14.6628 20.5 12.4816V5.88739C20.5 5.20679 20.0418 4.61149 19.3838 4.43733L12.8956 2.71986ZM11.3603 3.68657C11.7795 3.57559 12.2205 3.57559 12.6397 3.68657L19.1279 5.40404C19.3473 5.46209 19.5 5.66053 19.5 5.88739V12.4816C19.5 14.3272 18.5744 16.0498 17.0353 17.0683L12.2759 20.2178C12.1086 20.3285 11.8914 20.3285 11.7241 20.2178L6.96473 17.0683C5.42565 16.0498 4.5 14.3272 4.5 12.4816V5.88739C4.5 5.66052 4.65274 5.46209 4.87205 5.40404L11.3603 3.68657ZM16.3897 8.31321C16.5627 8.09796 16.5284 7.78324 16.3132 7.61026C16.0979 7.43729 15.7832 7.47157 15.6102 7.68682L10.9658 13.4665L8.3599 10.7641C8.16822 10.5653 7.85169 10.5595 7.65291 10.7512C7.45413 10.9429 7.44838 11.2594 7.64006 11.4582L10.6401 14.5693C10.7397 14.6727 10.8791 14.7282 11.0226 14.7217C11.166 14.7153 11.2998 14.6474 11.3897 14.5354L16.3897 8.31321Z" fill="black"/>
</svg>
