<svg width="24" height="24" viewBox="0 0 24 24" fill="none" xmlns="http://www.w3.org/2000/svg">
<path fill-rule="evenodd" clip-rule="evenodd" d="M7 4.5C5.067 4.5 3.5 6.067 3.5 8V19C3.5 19.2761 3.72386 19.5 4 19.5H11.4615C11.7377 19.5 11.9615 19.7239 11.9615 20C11.9615 20.2761 11.7377 20.5 11.4615 20.5H4C3.17157 20.5 2.5 19.8284 2.5 19V8C2.5 5.51472 4.51472 3.5 7 3.5H17C19.4853 3.5 21.5 5.51472 21.5 8V11.3846C21.5 11.6608 21.2761 11.8846 21 11.8846C20.7239 11.8846 20.5 11.6608 20.5 11.3846V8C20.5 6.067 18.933 4.5 17 4.5H7ZM6.5 14C6.5 13.7239 6.72386 13.5 7 13.5H10C10.2761 13.5 10.5 13.7239 10.5 14C10.5 14.2761 10.2761 14.5 10 14.5H7C6.72386 14.5 6.5 14.2761 6.5 14ZM7 9.5C6.72386 9.5 6.5 9.72386 6.5 10C6.5 10.2761 6.72386 10.5 7 10.5H13C13.2761 10.5 13.5 10.2761 13.5 10C13.5 9.72386 13.2761 9.5 13 9.5H7ZM16.5 12.5C14.8431 12.5 13.5 13.8431 13.5 15.5C13.5 17.1569 14.8431 18.5 16.5 18.5C18.1569 18.5 19.5 17.1569 19.5 15.5C19.5 13.8431 18.1569 12.5 16.5 12.5ZM12.5 15.5C12.5 13.2909 14.2909 11.5 16.5 11.5C18.7091 11.5 20.5 13.2909 20.5 15.5C20.5 16.4244 20.1865 17.2755 19.6599 17.9528L21.8535 20.1464C22.0488 20.3417 22.0488 20.6583 21.8535 20.8535C21.6583 21.0488 21.3417 21.0488 21.1464 20.8535L18.9528 18.6599C18.2755 19.1865 17.4244 19.5 16.5 19.5C14.2909 19.5 12.5 17.7091 12.5 15.5Z" fill="#222222"/>
</svg>
