<svg width="24" height="24" viewBox="0 0 24 24" fill="none" xmlns="http://www.w3.org/2000/svg">
<path fill-rule="evenodd" clip-rule="evenodd" d="M20.2702 4.77102C19.8637 4.06156 19.2215 3.51684 18.4552 3.23142C17.9827 3.05542 17.4718 3.02964 16.8667 3.07661C16.2713 3.12283 15.5333 3.24483 14.5929 3.40028L14.5929 3.40028L11.8913 3.84687L11.8913 3.84687C11.4318 3.92282 11.0595 3.98437 10.7585 4.05781C10.4473 4.13375 10.1772 4.23014 9.93146 4.39324C9.53809 4.65429 9.22669 5.0214 9.03328 5.45208C8.91245 5.72114 8.86141 6.00337 8.83723 6.32279C8.81386 6.63165 8.81386 7.00909 8.81386 7.47476V7.47477V7.47478V7.47479V11.5H3.31384C3.0377 11.5 2.81384 11.7239 2.81384 12C2.81384 12.2761 3.0377 12.5 3.31384 12.5H8.81386V16.5252V16.5252V16.5253C8.81386 16.9909 8.81386 17.3683 8.83723 17.6772C8.86141 17.9966 8.91245 18.2788 9.03328 18.5479C9.22669 18.9786 9.53809 19.3457 9.93146 19.6068C10.1772 19.7698 10.4473 19.8662 10.7585 19.9422C11.0595 20.0156 11.4319 20.0772 11.8913 20.1531L11.9509 20.163L14.5929 20.5997C15.5333 20.7552 16.2713 20.8772 16.8667 20.9234C17.4718 20.9703 17.9827 20.9446 18.4552 20.7686C19.2215 20.4831 19.8637 19.9384 20.2702 19.229C20.5209 18.7915 20.6297 18.2917 20.682 17.687C20.7335 17.092 20.7335 16.344 20.7335 15.3909V15.3908V8.60916V8.60912C20.7335 7.65598 20.7335 6.90799 20.682 6.31301C20.6297 5.70834 20.5209 5.2085 20.2702 4.77102ZM8.84316 12.4995C8.85085 12.4998 8.85858 12.5 8.86635 12.5H16.2735L12.9234 16.6876C12.7509 16.9033 12.7859 17.2179 13.0015 17.3904C13.2171 17.5629 13.5318 17.528 13.7043 17.3123L17.7043 12.3123C17.8504 12.1297 17.8504 11.8703 17.7043 11.6876L13.7043 6.68765C13.5318 6.47202 13.2171 6.43705 13.0015 6.60956C12.7859 6.78206 12.7509 7.09671 12.9234 7.31234L16.2735 11.5H8.86635C8.85858 11.5 8.85085 11.5002 8.84316 11.5005V12.4995Z" fill="black"/>
</svg>
