<svg width="24" height="24" viewBox="0 0 24 24" fill="none" xmlns="http://www.w3.org/2000/svg">
<path fill-rule="evenodd" clip-rule="evenodd" d="M4.06226 10.7418C4.06226 7.05098 7.05428 4.05896 10.7451 4.05896C14.436 4.05896 17.428 7.05098 17.428 10.7418C17.428 14.4327 14.436 17.4247 10.7451 17.4247C7.05428 17.4247 4.06226 14.4327 4.06226 10.7418ZM10.7451 3.05896C6.50199 3.05896 3.06226 6.49869 3.06226 10.7418C3.06226 14.985 6.50199 18.4247 10.7451 18.4247C12.7025 18.4247 14.4889 17.6927 15.8456 16.4875L20.1185 20.7604C20.3137 20.9556 20.6303 20.9556 20.8256 20.7604C21.0208 20.5651 21.0208 20.2485 20.8256 20.0533L16.5487 15.7764C17.7194 14.428 18.428 12.6677 18.428 10.7418C18.428 6.49869 14.9882 3.05896 10.7451 3.05896Z" fill="black"/>
</svg>
