<svg width="24" height="24" viewBox="0 0 24 24" fill="none" xmlns="http://www.w3.org/2000/svg">
<path fill-rule="evenodd" clip-rule="evenodd" d="M11.3999 2.83104C11.7826 2.66399 12.2175 2.66399 12.6002 2.83104C12.8691 2.94845 13.0631 3.16138 13.2286 3.38695C13.3919 3.6094 13.5714 3.90764 13.7869 4.26587L15.5351 7.17077C15.6766 7.40585 15.7072 7.45029 15.7399 7.48316C15.7776 7.52115 15.8212 7.55282 15.869 7.57698C15.9104 7.59788 15.9621 7.6133 16.2294 7.67521L19.5324 8.44019C19.9397 8.53451 20.2788 8.61303 20.5408 8.69956C20.8065 8.78731 21.0689 8.90593 21.2637 9.12543C21.5408 9.43774 21.6752 9.85142 21.6346 10.267C21.606 10.559 21.4635 10.8093 21.3001 11.0364C21.139 11.2604 20.9108 11.5233 20.6367 11.839L18.4142 14.3993C18.2344 14.6065 18.2016 14.6494 18.1804 14.6906C18.1559 14.7382 18.1393 14.7895 18.1311 14.8424C18.124 14.8882 18.1253 14.9422 18.149 15.2155L18.4421 18.5931C18.4783 19.0097 18.5084 19.3565 18.5071 19.6324C18.5057 19.9122 18.474 20.1984 18.3254 20.4515C18.1141 20.8116 17.7622 21.0672 17.3544 21.157C17.0678 21.2201 16.7858 21.1618 16.5192 21.0766C16.2564 20.9926 15.9359 20.8569 15.551 20.6938L12.4292 19.3712C12.1765 19.2642 12.1256 19.2462 12.0799 19.2388C12.027 19.2303 11.9731 19.2303 11.9203 19.2388C11.8745 19.2462 11.8236 19.2642 11.571 19.3712L8.44914 20.6938C8.06419 20.8569 7.74371 20.9926 7.48088 21.0766C7.21436 21.1618 6.93232 21.2201 6.64573 21.157C6.23796 21.0672 5.88607 20.8116 5.67468 20.4515C5.52611 20.1984 5.49439 19.9122 5.49304 19.6324C5.49171 19.3565 5.52181 19.0097 5.55797 18.5932L5.85111 15.2155C5.87483 14.9422 5.87616 14.8882 5.86906 14.8424C5.86085 14.7895 5.8442 14.7382 5.81973 14.6906C5.79857 14.6494 5.76577 14.6065 5.58592 14.3993L3.36338 11.839C3.08932 11.5233 2.86114 11.2604 2.70004 11.0364C2.53667 10.8093 2.39408 10.559 2.36552 10.267C2.32489 9.85142 2.45931 9.43774 2.73643 9.12543C2.9312 8.90593 3.19364 8.78731 3.45932 8.69956C3.72133 8.61303 4.06042 8.53451 4.46771 8.44019L7.7707 7.67521C8.03799 7.6133 8.08973 7.59788 8.13109 7.57698C8.17887 7.55282 8.22247 7.52115 8.26021 7.48316C8.29287 7.45029 8.32353 7.40585 8.465 7.17077L10.2132 4.26588C10.4288 3.90764 10.6082 3.6094 10.7715 3.38695C10.9371 3.16138 11.131 2.94845 11.3999 2.83104ZM12.2001 3.74751C12.0726 3.69183 11.9276 3.69183 11.8 3.74751C11.7767 3.7577 11.7114 3.79647 11.5777 3.97863C11.4448 4.15964 11.2888 4.41794 11.0576 4.80216L9.32181 7.68641C9.31442 7.69868 9.30711 7.71085 9.29986 7.72293C9.19284 7.90115 9.09848 8.05827 8.96959 8.188C8.85637 8.30195 8.72557 8.39697 8.58221 8.46944C8.41901 8.55194 8.24042 8.59312 8.03784 8.63984C8.02412 8.643 8.01028 8.64619 7.99633 8.64942L4.71687 9.40895C4.28 9.51013 3.98613 9.57871 3.77292 9.64912C3.55837 9.71998 3.50131 9.77011 3.48441 9.78915C3.39204 9.89325 3.34723 10.0311 3.36078 10.1697C3.36325 10.195 3.37995 10.2691 3.51188 10.4525C3.64298 10.6348 3.84042 10.863 4.13438 11.2017L6.34108 13.7438C6.35046 13.7546 6.35978 13.7653 6.36902 13.7759C6.50545 13.9328 6.62573 14.0711 6.70928 14.2337C6.78266 14.3766 6.83262 14.5304 6.85724 14.6891C6.88527 14.8698 6.86925 15.0524 6.85108 15.2595C6.84985 15.2735 6.84861 15.2877 6.84737 15.302L6.55631 18.6556C6.51754 19.1024 6.49195 19.403 6.49303 19.6276C6.49412 19.8535 6.52417 19.9233 6.53705 19.9452C6.60752 20.0653 6.72481 20.1505 6.86074 20.1804C6.8856 20.1859 6.96122 20.1929 7.17645 20.1241C7.39033 20.0558 7.66839 19.9385 8.08129 19.7636L11.1809 18.4504C11.194 18.4448 11.2071 18.4393 11.2201 18.4338C11.4114 18.3525 11.5801 18.2809 11.7607 18.2517C11.9192 18.226 12.0809 18.226 12.2395 18.2517C12.42 18.2809 12.5887 18.3525 12.78 18.4338C12.793 18.4393 12.8061 18.4448 12.8192 18.4504L15.9188 19.7636C16.3317 19.9385 16.6098 20.0558 16.8237 20.1241C17.0389 20.1929 17.1145 20.1859 17.1394 20.1804C17.2753 20.1505 17.3926 20.0653 17.4631 19.9452C17.476 19.9233 17.506 19.8535 17.5071 19.6276C17.5082 19.403 17.4826 19.1024 17.4438 18.6556L17.1528 15.302C17.1515 15.2877 17.1503 15.2735 17.149 15.2595C17.1309 15.0524 17.1149 14.8698 17.1429 14.6891C17.1675 14.5304 17.2175 14.3766 17.2908 14.2337C17.3744 14.0711 17.4947 13.9328 17.6311 13.7759C17.6403 13.7653 17.6497 13.7546 17.659 13.7438L19.8657 11.2017C20.1597 10.863 20.3571 10.6348 20.4882 10.4525C20.6202 10.2691 20.6369 10.195 20.6393 10.1697C20.6529 10.0311 20.6081 9.89325 20.5157 9.78915C20.4988 9.77011 20.4418 9.71998 20.2272 9.64912C20.014 9.57871 19.7201 9.51013 19.2832 9.40895L16.0038 8.64942C15.9898 8.64619 15.976 8.643 15.9623 8.63984C15.7597 8.59312 15.5811 8.55194 15.4179 8.46944C15.2745 8.39697 15.1438 8.30195 15.0305 8.188C14.9016 8.05827 14.8073 7.90114 14.7003 7.72292C14.693 7.71084 14.6857 7.69867 14.6783 7.68641L12.9425 4.80217C12.7113 4.41794 12.5553 4.15964 12.4224 3.97863C12.2887 3.79647 12.2234 3.7577 12.2001 3.74751Z" fill="black"/>
</svg>
