<svg width="24" height="24" viewBox="0 0 24 24" fill="none" xmlns="http://www.w3.org/2000/svg">
<path fill-rule="evenodd" clip-rule="evenodd" d="M11.1044 2.71986C11.6914 2.56449 12.3087 2.56449 12.8956 2.71986L19.3838 4.43733C20.0418 4.61149 20.5 5.20679 20.5 5.88739V12.4816C20.5 14.6628 19.4061 16.6985 17.5871 17.9022L12.8278 21.0518C12.3259 21.3839 11.6741 21.3839 11.1722 21.0518L6.41287 17.9022C4.59395 16.6985 3.5 14.6628 3.5 12.4816V5.88739C3.5 5.20679 3.95822 4.61149 4.61616 4.43733L11.1044 2.71986ZM16.7795 8.62637C17.1254 8.19585 17.0569 7.56641 16.6264 7.22047C16.1958 6.87452 15.5664 6.94307 15.2205 7.37358L10.9317 12.7107L8.71981 10.417C8.33645 10.0194 7.70339 10.0079 7.30583 10.3912C6.90827 10.7746 6.89676 11.4077 7.28012 11.8052L10.2801 14.9163C10.4795 15.1231 10.7582 15.2341 11.0451 15.2212C11.332 15.2082 11.5996 15.0725 11.7795 14.8486L16.7795 8.62637Z" fill="black"/>
</svg>
