<svg width="24" height="24" viewBox="0 0 24 24" fill="none" xmlns="http://www.w3.org/2000/svg">
<path fill-rule="evenodd" clip-rule="evenodd" d="M4.56226 10.7418C4.56226 7.32712 7.33042 4.55896 10.7451 4.55896C14.1598 4.55896 16.928 7.32712 16.928 10.7418C16.928 14.1565 14.1598 16.9247 10.7451 16.9247C7.33042 16.9247 4.56226 14.1565 4.56226 10.7418ZM10.7451 2.55896C6.22585 2.55896 2.56226 6.22255 2.56226 10.7418C2.56226 15.2611 6.22585 18.9247 10.7451 18.9247C12.6602 18.9247 14.4216 18.2668 15.8157 17.1647L19.7649 21.1139C20.1554 21.5044 20.7886 21.5044 21.1791 21.1139C21.5696 20.7234 21.5696 20.0902 21.1791 19.6997L17.2223 15.743C18.2917 14.36 18.928 12.6252 18.928 10.7418C18.928 6.22255 15.2644 2.55896 10.7451 2.55896Z" fill="black"/>
</svg>
