<svg width="24" height="24" viewBox="0 0 24 24" fill="none" xmlns="http://www.w3.org/2000/svg">
<path fill-rule="evenodd" clip-rule="evenodd" d="M14.7322 4.39082C15.7015 4.23059 16.3969 4.11609 16.9441 4.07362C17.4866 4.0315 17.8302 4.06574 18.1062 4.16852C18.6535 4.37239 19.1122 4.76148 19.4026 5.26824C19.549 5.52372 19.6388 5.85714 19.6857 6.39926C19.7331 6.94606 19.7335 7.6508 19.7335 8.63325V15.3667C19.7335 16.3492 19.7331 17.0539 19.6857 17.6007C19.6388 18.1429 19.549 18.4763 19.4026 18.7318C19.1122 19.2385 18.6535 19.6276 18.1062 19.8315C17.8302 19.9343 17.4866 19.9685 16.9441 19.9264C16.3969 19.8839 15.7015 19.7694 14.7322 19.6092L12.0735 19.1697C11.5904 19.0898 11.2554 19.0341 10.9956 18.9707C10.7419 18.9088 10.5957 18.8474 10.4844 18.7735C10.2484 18.6169 10.0615 18.3966 9.94549 18.1382C9.89079 18.0164 9.85407 17.8622 9.83436 17.6017C9.81417 17.335 9.81384 16.9955 9.81384 16.5058V15.6697C9.81384 15.3935 9.58999 15.1697 9.31384 15.1697C9.0377 15.1697 8.81384 15.3935 8.81384 15.6697V16.5058V16.5252C8.81384 16.9909 8.81383 17.3683 8.83721 17.6772C8.86138 17.9966 8.91243 18.2788 9.03326 18.5479C9.22667 18.9786 9.53807 19.3457 9.93144 19.6068C10.1772 19.7698 10.4473 19.8662 10.7585 19.9422C11.0595 20.0156 11.4319 20.0772 11.8913 20.1531L11.9104 20.1563L14.5691 20.5958L14.5929 20.5997C15.5333 20.7552 16.2713 20.8772 16.8667 20.9234C17.4718 20.9703 17.9827 20.9446 18.4552 20.7686C19.2215 20.4831 19.8636 19.9384 20.2702 19.229C20.5209 18.7915 20.6297 18.2917 20.682 17.687C20.7335 17.092 20.7335 16.344 20.7335 15.3909V15.3908V15.3667V8.63325V8.60916V8.60912C20.7335 7.65598 20.7335 6.90799 20.682 6.31301C20.6297 5.70834 20.5209 5.2085 20.2702 4.77102C19.8636 4.06156 19.2215 3.51684 18.4552 3.23142C17.9827 3.05542 17.4718 3.02964 16.8667 3.07661C16.2713 3.12283 15.5333 3.24483 14.5929 3.40028L14.5691 3.40421L11.9104 3.84371L11.8913 3.84687L11.8913 3.84687C11.4318 3.92282 11.0594 3.98437 10.7585 4.05781C10.4473 4.13375 10.1772 4.23014 9.93144 4.39324C9.53807 4.65429 9.22667 5.0214 9.03326 5.45208C8.91243 5.72114 8.86138 6.00337 8.83721 6.32279C8.81383 6.63166 8.81384 7.0091 8.81384 7.47479V7.49417V8.50893C8.81384 8.78507 9.0377 9.00893 9.31384 9.00893C9.58999 9.00893 9.81384 8.78507 9.81384 8.50893V7.49417C9.81384 7.00452 9.81417 6.66495 9.83436 6.39825C9.85407 6.13782 9.89079 5.98355 9.94549 5.86175C10.0615 5.60334 10.2484 5.38308 10.4844 5.22644C10.5957 5.15261 10.7419 5.09122 10.9956 5.0293C11.2554 4.96589 11.5904 4.91018 12.0735 4.83032L14.7322 4.39082ZM12.9234 7.31233C12.7509 7.0967 12.7859 6.78205 13.0015 6.60955C13.2171 6.43704 13.5318 6.472 13.7043 6.68763L17.7043 11.6876C17.8504 11.8702 17.8504 12.1297 17.7043 12.3123L13.7043 17.3123C13.5318 17.528 13.2171 17.5629 13.0015 17.3904C12.7859 17.2179 12.7509 16.9033 12.9234 16.6876L16.2735 12.5H3.31384C3.0377 12.5 2.81384 12.2761 2.81384 12C2.81384 11.7238 3.0377 11.5 3.31384 11.5H16.2735L12.9234 7.31233Z" fill="black"/>
</svg>
