<svg width="24" height="24" viewBox="0 0 24 24" fill="none" xmlns="http://www.w3.org/2000/svg">
<path fill-rule="evenodd" clip-rule="evenodd" d="M12.6472 1.5H11.3527H11.3527C11.148 1.49999 10.9703 1.49999 10.8225 1.50986C10.6659 1.52032 10.5097 1.54331 10.3536 1.60501C10.016 1.73847 9.73818 1.98987 9.57179 2.31256C9.49485 2.46177 9.45643 2.61489 9.43046 2.76962C9.40592 2.91578 9.38825 3.09252 9.36789 3.29621L9.36788 3.29624L9.36635 3.31155C9.32448 3.73026 9.29566 4.01474 9.25799 4.22413C9.21945 4.43828 9.1828 4.49938 9.17149 4.51422C9.06252 4.6571 8.88526 4.73052 8.70718 4.70654C8.6887 4.70405 8.61957 4.68676 8.44085 4.56255C8.26613 4.44111 8.04455 4.26029 7.71882 3.99378L7.70689 3.98403L7.70687 3.98401C7.54836 3.85431 7.41083 3.74178 7.29008 3.65575C7.16225 3.56467 7.02675 3.48354 6.86678 3.43243C6.52105 3.32199 6.14701 3.34065 5.81398 3.48494C5.65989 3.55171 5.53315 3.64591 5.41502 3.74925C5.30343 3.84687 5.17779 3.97252 5.03298 4.11733L4.11789 5.03242L4.11788 5.03244C3.97302 5.17728 3.84733 5.30297 3.74969 5.41459C3.64632 5.53277 3.55209 5.65956 3.48532 5.81371C3.34112 6.14663 3.32247 6.52052 3.43283 6.86614C3.48393 7.02617 3.56508 7.16171 3.65618 7.28959C3.74223 7.41038 3.8548 7.54795 3.98453 7.7065L3.98454 7.70651L3.9943 7.71844C4.26093 8.04432 4.44182 8.26599 4.5633 8.4408C4.68756 8.61959 4.70484 8.68875 4.70732 8.70725C4.73124 8.88524 4.65786 9.06238 4.5151 9.17132C4.50026 9.18265 4.43914 9.21933 4.22487 9.25789C4.01538 9.2956 3.73074 9.32443 3.31181 9.36633L3.2965 9.36786L3.29648 9.36786C3.09266 9.38823 2.91582 9.40591 2.76957 9.43047C2.61476 9.45647 2.46156 9.49492 2.31229 9.57193C1.98981 9.73829 1.73858 10.0159 1.60513 10.3533C1.54335 10.5095 1.52034 10.6658 1.50987 10.8224C1.49999 10.9704 1.49999 11.1481 1.5 11.3529V11.3529V12.6472V12.6472C1.49999 12.852 1.49999 13.0296 1.50987 13.1776C1.52033 13.3341 1.54333 13.4904 1.60507 13.6465C1.73852 13.9841 1.98984 14.2618 2.31242 14.4281C2.46166 14.5051 2.61482 14.5435 2.7696 14.5695C2.9158 14.5941 3.0926 14.6118 3.29636 14.6321L3.31168 14.6337C3.73051 14.6755 4.01507 14.7044 4.2245 14.7421C4.43872 14.7806 4.49983 14.8173 4.51466 14.8286C4.65749 14.9376 4.73089 15.1148 4.70694 15.2928C4.70445 15.3113 4.68717 15.3804 4.56295 15.5592C4.4415 15.7339 4.26067 15.9555 3.99413 16.2813L3.98439 16.2932C3.8547 16.4517 3.74217 16.5892 3.65614 16.71C3.56507 16.8378 3.48395 16.9733 3.43285 17.1332C3.3224 17.479 3.34106 17.853 3.48536 18.186C3.55212 18.3401 3.64632 18.4669 3.74966 18.585C3.84728 18.6966 3.97294 18.8222 4.11776 18.967L5.0329 19.8822C5.17772 20.027 5.30338 20.1527 5.41498 20.2503C5.5331 20.3536 5.65985 20.4479 5.81394 20.5146C6.14696 20.6589 6.521 20.6776 6.86673 20.5671C7.0267 20.516 7.16218 20.4349 7.29001 20.3438C7.41074 20.2578 7.54825 20.1453 7.70672 20.0156L7.70675 20.0156L7.71917 20.0054C8.0447 19.7391 8.26617 19.5584 8.44084 19.437C8.61958 19.3128 8.68873 19.2955 8.70722 19.293C8.88525 19.2691 9.06244 19.3425 9.17139 19.4853C9.18271 19.5001 9.21938 19.5612 9.25793 19.7754C9.29563 19.9849 9.32445 20.2695 9.36634 20.6883L9.36787 20.7036L9.36788 20.7037C9.38824 20.9074 9.40592 21.0842 9.43047 21.2304C9.45645 21.3852 9.49489 21.5384 9.57187 21.6876C9.73824 22.0102 10.0159 22.2615 10.3534 22.3949C10.5096 22.4567 10.6658 22.4797 10.8224 22.4901C10.9704 22.5 11.148 22.5 11.3528 22.5H11.3528H12.6471H12.6471C12.8519 22.5 13.0296 22.5 13.1776 22.4901C13.3342 22.4797 13.4905 22.4566 13.6467 22.3949C13.9841 22.2614 14.2617 22.0102 14.4281 21.6877C14.5051 21.5385 14.5435 21.3852 14.5695 21.2304C14.5941 21.0841 14.6118 20.9073 14.6322 20.7034L14.6322 20.7033L14.6337 20.6881C14.6756 20.2692 14.7044 19.9846 14.7421 19.7751C14.7807 19.5608 14.8173 19.4997 14.8286 19.4849C14.9376 19.3421 15.1148 19.2687 15.2928 19.2926C15.3113 19.2951 15.3805 19.3124 15.5592 19.4366C15.7339 19.558 15.9555 19.7389 16.2813 20.0054L16.2835 20.0072L16.2932 20.0152C16.4517 20.1448 16.5892 20.2573 16.7099 20.3434C16.8378 20.4344 16.9732 20.5156 17.1332 20.5667C17.4789 20.6771 17.853 20.6585 18.1861 20.5141C18.3401 20.4474 18.4669 20.3532 18.585 20.2498C18.6966 20.1522 18.8222 20.0266 18.967 19.8818L19.8824 18.9664C20.0272 18.8217 20.1527 18.6961 20.2503 18.5846C20.3536 18.4665 20.4478 18.3398 20.5145 18.1858C20.6589 17.8526 20.6776 17.4784 20.5671 17.1326C20.5159 16.9727 20.4348 16.8372 20.3438 16.7095C20.2578 16.5888 20.1454 16.4513 20.0158 16.2929L20.0157 16.2929L20.006 16.281C19.7395 15.9553 19.5588 15.7338 19.4373 15.5591C19.3132 15.3805 19.2959 15.3113 19.2934 15.2929C19.2694 15.1148 19.3428 14.9375 19.4857 14.8285C19.5006 14.8172 19.5617 14.7806 19.7758 14.742C19.9852 14.7043 20.2697 14.6755 20.6884 14.6337L20.6894 14.6336L20.7037 14.6321C20.9074 14.6118 21.0842 14.5941 21.2304 14.5695C21.3851 14.5436 21.5383 14.5051 21.6875 14.4282C22.0101 14.2618 22.2615 13.984 22.395 13.6464C22.4567 13.4903 22.4797 13.3341 22.4901 13.1775C22.5 13.0297 22.5 12.8521 22.5 12.6474V12.6473V11.3528V11.3528C22.5 11.148 22.5 10.9704 22.4901 10.8224C22.4797 10.6658 22.4567 10.5096 22.3949 10.3534C22.2615 10.0159 22.0102 9.73824 21.6876 9.57187C21.5384 9.49489 21.3852 9.45645 21.2304 9.43046C21.0842 9.40592 20.9074 9.38824 20.7036 9.36787L20.6883 9.36634C20.2694 9.32445 19.9849 9.29562 19.7754 9.25793C19.5612 9.21938 19.5001 9.18271 19.4853 9.1714C19.3424 9.06244 19.2691 8.88525 19.293 8.70721C19.2955 8.68872 19.3128 8.61958 19.437 8.44084C19.5584 8.2661 19.7393 8.0445 20.0058 7.71872L20.0156 7.70679C20.1452 7.54831 20.2578 7.4108 20.3438 7.29006C20.4348 7.16224 20.516 7.02676 20.5671 6.86679C20.6775 6.52106 20.6589 6.147 20.5146 5.81396C20.4478 5.65988 20.3536 5.53314 20.2503 5.41502C20.1527 5.30345 20.027 5.17782 19.8822 5.03305L18.967 4.11777C18.8222 3.97297 18.6965 3.84732 18.5849 3.74971C18.4668 3.64638 18.3401 3.55218 18.186 3.48541C17.853 3.3411 17.4789 3.32244 17.1332 3.4329C16.9732 3.484 16.8377 3.56512 16.7099 3.65619C16.5892 3.74221 16.4516 3.85473 16.2932 3.98441L16.2813 3.99415C15.9555 4.26069 15.7339 4.44152 15.5592 4.56296C15.3804 4.68717 15.3113 4.70446 15.2928 4.70694C15.1148 4.73089 14.9376 4.65749 14.8286 4.51467C14.8173 4.49983 14.7806 4.43872 14.7421 4.22451C14.7044 4.01507 14.6755 3.73051 14.6337 3.31169L14.6321 3.29637V3.29636C14.6118 3.0926 14.5941 2.9158 14.5695 2.7696C14.5435 2.61482 14.5051 2.46166 14.4281 2.31242C14.2618 1.98984 13.9841 1.73853 13.6465 1.60507C13.4904 1.54333 13.3341 1.52033 13.1776 1.50987C13.0296 1.49999 12.852 1.49999 12.6472 1.5H12.6472ZM8.5 12C8.5 10.067 10.067 8.5 12 8.5C13.933 8.5 15.5 10.067 15.5 12C15.5 13.933 13.933 15.5 12 15.5C10.067 15.5 8.5 13.933 8.5 12Z" fill="black"/>
</svg>
