<svg width="24" height="24" viewBox="0 0 24 24" fill="none" xmlns="http://www.w3.org/2000/svg">
<path fill-rule="evenodd" clip-rule="evenodd" d="M3.27557 3.5C2.99943 3.5 2.77557 3.72386 2.77557 4C2.77557 4.27614 2.99943 4.5 3.27557 4.5L20.7245 4.5C21.0006 4.5 21.2245 4.27614 21.2245 4C21.2245 3.72386 21.0006 3.5 20.7245 3.5H3.27557ZM2.77557 12C2.77557 11.7239 2.99943 11.5 3.27557 11.5L20.7245 11.5C21.0006 11.5 21.2245 11.7239 21.2245 12C21.2245 12.2761 21.0006 12.5 20.7245 12.5L3.27557 12.5C2.99943 12.5 2.77557 12.2761 2.77557 12ZM2.77557 20C2.77557 19.7239 2.99943 19.5 3.27557 19.5L20.7245 19.5C21.0006 19.5 21.2245 19.7239 21.2245 20C21.2245 20.2761 21.0006 20.5 20.7245 20.5H3.27557C2.99943 20.5 2.77557 20.2761 2.77557 20Z" fill="black"/>
</svg>
