<svg width="24" height="24" viewBox="0 0 24 24" fill="none" xmlns="http://www.w3.org/2000/svg">
<path fill-rule="evenodd" clip-rule="evenodd" d="M12.0001 2.49084C13.4794 2.49084 14.4371 3.11521 15.0163 3.75821L14.7332 5.37105L14.7334 5.37189L14.7338 5.37302L14.731 5.36464C14.7278 5.35537 14.7221 5.33904 14.7134 5.31664C14.6961 5.27174 14.6674 5.20315 14.6252 5.11877C14.5402 4.94908 14.4035 4.72139 14.1991 4.49446C13.8004 4.05198 13.1283 3.59084 12.0001 3.59084C10.8718 3.59084 10.1997 4.05207 9.80109 4.49467C9.59666 4.72166 9.45989 4.94943 9.37497 5.11916C9.33273 5.20357 9.30404 5.27219 9.2867 5.3171C9.27806 5.3395 9.2723 5.35585 9.26914 5.36513L9.26638 5.37341L9.26635 5.37351L9.26635 5.37353C9.1778 5.66257 8.87227 5.82616 8.58235 5.73913C8.29142 5.65179 8.12638 5.34514 8.21372 5.05421L8.7405 5.21235C8.21372 5.05421 8.21381 5.05392 8.2139 5.05362L8.21409 5.05297L8.21453 5.05153L8.2156 5.04805L8.21855 5.0387C8.22087 5.03142 8.22393 5.02208 8.22777 5.01081C8.23543 4.98828 8.24623 4.95797 8.2605 4.921C8.289 4.84715 8.33161 4.74612 8.39123 4.62695C8.51003 4.38953 8.69922 4.07442 8.98372 3.75853C9.56296 3.11538 10.5206 2.49084 12.0001 2.49084ZM15.0163 3.75821L14.7338 5.37304C14.8223 5.66208 15.1279 5.82565 15.4178 5.73859C15.7087 5.65123 15.8737 5.34457 15.7864 5.05365L15.2596 5.21183C15.7864 5.05365 15.7863 5.05336 15.7862 5.05306L15.786 5.05241L15.7856 5.05098L15.7845 5.04749L15.7815 5.03814C15.7792 5.03086 15.7762 5.02152 15.7723 5.01025C15.7647 4.98772 15.7539 4.95742 15.7396 4.92045C15.7111 4.84662 15.6685 4.7456 15.6088 4.62646C15.49 4.38908 15.3008 4.07404 15.0163 3.75821ZM4 7.93469C3.72386 7.93469 3.5 8.15855 3.5 8.43469C3.5 8.71083 3.72386 8.93469 4 8.93469H5.17554L5.17554 17.4713C5.17552 18.383 5.17551 19.1179 5.25322 19.6959C5.3339 20.2959 5.50649 20.8012 5.90777 21.2025C6.30905 21.6037 6.8143 21.7763 7.41437 21.857C7.99235 21.9347 8.72724 21.9347 9.63897 21.9347H14.361C15.2728 21.9347 16.0077 21.9347 16.5856 21.857C17.1857 21.7763 17.691 21.6037 18.0922 21.2025C18.4935 20.8012 18.6661 20.2959 18.7468 19.6959C18.8245 19.1179 18.8245 18.383 18.8245 17.4713V8.93469H20C20.2761 8.93469 20.5 8.71083 20.5 8.43469C20.5 8.15855 20.2761 7.93469 20 7.93469H18.3245H5.67554H4ZM6.17554 17.4347V8.93469H17.8245V17.4347C17.8245 18.3916 17.8234 19.059 17.7557 19.5626C17.6899 20.0518 17.5696 20.3108 17.3851 20.4954C17.2006 20.6799 16.9416 20.8002 16.4524 20.8659C15.9488 20.9336 15.2814 20.9347 14.3245 20.9347H9.67554C8.71859 20.9347 8.05118 20.9336 7.54762 20.8659C7.05843 20.8002 6.79939 20.6799 6.61488 20.4954C6.43037 20.3108 6.31007 20.0518 6.2443 19.5626C6.1766 19.059 6.17554 18.3916 6.17554 17.4347ZM9.5 18.4182C9.22386 18.4182 9 18.1944 9 17.9182V11.9512C9 11.675 9.22386 11.4512 9.5 11.4512C9.77614 11.4512 10 11.675 10 11.9512V17.9182C10 18.1944 9.77614 18.4182 9.5 18.4182ZM14.5 18.4182C14.2239 18.4182 14 18.1944 14 17.9182V11.9512C14 11.675 14.2239 11.4512 14.5 11.4512C14.7761 11.4512 15 11.675 15 11.9512V17.9182C15 18.1944 14.7761 18.4182 14.5 18.4182Z" fill="black"/>
</svg>
