<svg width="24" height="24" viewBox="0 0 24 24" fill="none" xmlns="http://www.w3.org/2000/svg">
<path fill-rule="evenodd" clip-rule="evenodd" d="M12 1.99084C13.639 1.99084 14.7264 2.6894 15.3878 3.42356C15.7087 3.77979 15.9218 4.13454 16.056 4.40268C16.1235 4.53762 16.1724 4.65338 16.206 4.74037C16.2229 4.78396 16.2359 4.82061 16.2457 4.84916C16.2505 4.86345 16.2545 4.87574 16.2578 4.8859L16.2621 4.89952L16.2638 4.9051L16.2646 4.90758L16.2649 4.90874C16.2651 4.9093 16.2652 4.90985 15.2767 5.20668L16.2652 4.90985C16.432 5.46525 16.117 6.05069 15.5616 6.21747C15.01 6.38308 14.4289 6.07357 14.2575 5.52537C14.2563 5.5218 14.2528 5.51196 14.247 5.49672C14.2347 5.46498 14.2123 5.41113 14.178 5.34254C14.1085 5.20363 13.9956 5.01563 13.8276 4.82912C13.5111 4.47778 12.9687 4.09084 12 4.09084C11.0315 4.09084 10.4891 4.47783 10.1726 4.82929C10.0046 5.01586 9.89164 5.20392 9.82211 5.34289C9.78778 5.41151 9.76541 5.46538 9.75315 5.49714C9.74726 5.5124 9.74382 5.52226 9.7426 5.52583C9.57125 6.07404 8.99012 6.38359 8.43858 6.21801C7.88317 6.05127 7.56809 5.46585 7.73483 4.91044L8.74049 5.21235C7.73483 4.91044 7.73499 4.90989 7.73516 4.90934L7.73551 4.90817L7.73626 4.9057L7.73798 4.90011L7.74227 4.88649C7.74551 4.87634 7.74954 4.86404 7.75441 4.84976C7.76412 4.8212 7.7772 4.78454 7.79403 4.74095C7.82761 4.65395 7.87655 4.53818 7.94408 4.40322C8.07826 4.13503 8.29129 3.78021 8.61219 3.42391C9.27352 2.68961 10.361 1.99084 12 1.99084ZM3 8.42242C3 7.87014 3.44772 7.42242 4 7.42242H20C20.5523 7.42242 21 7.87014 21 8.42242C21 8.97471 20.5523 9.42242 20 9.42242H18.8245V17.459C18.8245 18.3707 18.8245 19.1056 18.7468 19.6836C18.6661 20.2837 18.4935 20.7889 18.0922 21.1902C17.691 21.5915 17.1857 21.7641 16.5856 21.8447C16.0077 21.9224 15.2728 21.9224 14.361 21.9224H9.63897C8.72724 21.9224 7.99235 21.9224 7.41437 21.8447C6.8143 21.7641 6.30905 21.5915 5.90777 21.1902C5.50649 20.7889 5.3339 20.2837 5.25322 19.6836C5.17551 19.1056 5.17552 18.3708 5.17554 17.459V17.459V17.459V9.42242H4C3.44772 9.42242 3 8.97471 3 8.42242ZM9.5 18.406C9.22386 18.406 9 18.1821 9 17.906V11.9389C9 11.6627 9.22386 11.4389 9.5 11.4389C9.77614 11.4389 10 11.6627 10 11.9389V17.906C10 18.1821 9.77614 18.406 9.5 18.406ZM14 17.906C14 18.1821 14.2239 18.406 14.5 18.406C14.7761 18.406 15 18.1821 15 17.906V11.9389C15 11.6627 14.7761 11.4389 14.5 11.4389C14.2239 11.4389 14 11.6627 14 11.9389V17.906Z" fill="black"/>
</svg>
