<svg width="24" height="24" viewBox="0 0 24 24" fill="none" xmlns="http://www.w3.org/2000/svg">
<path fill-rule="evenodd" clip-rule="evenodd" d="M13.6349 3.96665L12.2594 9.10022C12.2577 9.10647 12.256 9.11281 12.2543 9.11924C12.2283 9.21575 12.1975 9.33066 12.1843 9.43307C12.1683 9.55668 12.1671 9.73323 12.2696 9.91081C12.3721 10.0884 12.5257 10.1756 12.6407 10.2236C12.736 10.2633 12.8509 10.2941 12.9475 10.3199C12.9539 10.3216 12.9602 10.3233 12.9665 10.325L16.144 11.1764C16.9101 11.3816 17.4287 11.522 17.7799 11.6743C18.1273 11.8249 18.1724 11.9294 18.187 11.9844C18.2015 12.0395 18.2137 12.1527 17.9857 12.455C17.7552 12.7605 17.3731 13.1383 16.8078 13.6945L10.3651 20.0334L11.7407 14.8998C11.7423 14.8935 11.744 14.8872 11.7458 14.8808C11.7717 14.7843 11.8026 14.6694 11.8158 14.567C11.8317 14.4433 11.833 14.2668 11.7304 14.0892C11.6279 13.9116 11.4744 13.8245 11.3594 13.7764C11.2641 13.7367 11.1491 13.7059 11.0526 13.6801C11.0462 13.6784 11.0398 13.6767 11.0335 13.6751L7.85598 12.8236C7.08994 12.6184 6.5713 12.478 6.22015 12.3258C5.87275 12.1751 5.82758 12.0706 5.81307 12.0156C5.79856 11.9605 5.78636 11.8474 6.01436 11.5451C6.24482 11.2395 6.62689 10.8617 7.1922 10.3055L13.6349 3.96665ZM13.9357 2.44766C14.0874 2.39661 14.2927 2.38063 14.4916 2.49657C14.6906 2.61251 14.7779 2.79897 14.8083 2.95619C14.8354 3.09647 14.8237 3.23801 14.8075 3.35123C14.776 3.57198 14.6978 3.86384 14.6094 4.19349L13.2253 9.35904L16.4434 10.2213C17.1586 10.4129 17.7502 10.5714 18.1777 10.7568C18.617 10.9473 19.0206 11.2237 19.1539 11.7295C19.2873 12.2354 19.0724 12.6748 18.7841 13.0571C18.5035 13.4291 18.0669 13.8587 17.5391 14.3779L11.0429 20.7694C10.7996 21.0088 10.5842 21.2207 10.4077 21.357C10.3172 21.4269 10.1998 21.5068 10.0644 21.5524C9.91258 21.6034 9.70733 21.6194 9.50839 21.5034C9.30945 21.3875 9.22217 21.201 9.19177 21.0438C9.16464 20.9035 9.17635 20.762 9.19252 20.6488C9.22404 20.428 9.30226 20.1362 9.39062 19.8065L10.7747 14.641L7.55663 13.7787C6.84144 13.5871 6.24981 13.4286 5.82233 13.2432C5.38305 13.0527 4.97944 12.7763 4.8461 12.2705C4.71276 11.7646 4.92767 11.3252 5.21597 10.9429C5.49653 10.5709 5.93314 10.1414 6.46094 9.62211L12.9572 3.2306C13.2004 2.99122 13.4158 2.77929 13.5923 2.64305C13.6829 2.57317 13.8002 2.49321 13.9357 2.44766Z" fill="black"/>
</svg>
