<svg width="24" height="24" viewBox="0 0 24 24" fill="none" xmlns="http://www.w3.org/2000/svg">
<path fill-rule="evenodd" clip-rule="evenodd" d="M12 2.70001C11.4431 2.70001 10.9089 2.92126 10.5151 3.31509C10.1213 3.70891 9.90002 4.24306 9.90002 4.80001C9.90002 5.35697 10.1213 5.89111 10.5151 6.28494C10.9089 6.67876 11.4431 6.90001 12 6.90001C12.557 6.90001 13.0911 6.67876 13.4849 6.28494C13.8788 5.89111 14.1 5.35697 14.1 4.80001C14.1 4.24306 13.8788 3.70891 13.4849 3.31509C13.0911 2.92126 12.557 2.70001 12 2.70001ZM12 9.89999C11.4431 9.89999 10.9089 10.1212 10.5151 10.5151C10.1213 10.9089 9.90002 11.443 9.90002 12C9.90002 12.5569 10.1213 13.0911 10.5151 13.4849C10.9089 13.8787 11.4431 14.1 12 14.1C12.557 14.1 13.0911 13.8787 13.4849 13.4849C13.8788 13.0911 14.1 12.5569 14.1 12C14.1 11.443 13.8788 10.9089 13.4849 10.5151C13.0911 10.1212 12.557 9.89999 12 9.89999ZM12 17.1C11.4431 17.1 10.9089 17.3213 10.5151 17.7151C10.1213 18.1089 9.90002 18.6431 9.90002 19.2C9.90002 19.757 10.1213 20.2911 10.5151 20.6849C10.9089 21.0788 11.4431 21.3 12 21.3C12.557 21.3 13.0911 21.0788 13.4849 20.6849C13.8788 20.2911 14.1 19.757 14.1 19.2C14.1 18.6431 13.8788 18.1089 13.4849 17.7151C13.0911 17.3213 12.557 17.1 12 17.1Z" fill="black"/>
</svg>
