<svg width="24" height="24" viewBox="0 0 24 24" fill="none" xmlns="http://www.w3.org/2000/svg">
<path fill-rule="evenodd" clip-rule="evenodd" d="M7.55652 13.7787L10.7747 14.641L9.39054 19.8065L9.39054 19.8066C9.30218 20.1362 9.22396 20.428 9.19244 20.6488C9.17627 20.762 9.16456 20.9035 9.19169 21.0438C9.22209 21.201 9.30937 21.3875 9.50831 21.5034C9.70725 21.6194 9.9125 21.6034 10.0643 21.5524C10.1997 21.5068 10.3171 21.4269 10.4076 21.357C10.5841 21.2207 10.7995 21.0088 11.0427 20.7695L11.0428 20.7694L17.539 14.3779C18.0668 13.8587 18.5034 13.4291 18.784 13.0571C19.0723 12.6748 19.2872 12.2354 19.1539 11.7295C19.0205 11.2237 18.6169 10.9473 18.1776 10.7568C17.7501 10.5714 17.1585 10.4129 16.4433 10.2213L13.2252 9.35904L14.6093 4.19349C14.6977 3.86384 14.7759 3.57198 14.8074 3.35123C14.8236 3.23801 14.8353 3.09647 14.8082 2.95619C14.7778 2.79897 14.6905 2.61251 14.4916 2.49657C14.2926 2.38063 14.0874 2.39661 13.9356 2.44766C13.8002 2.49321 13.6828 2.57317 13.5922 2.64305C13.4157 2.77928 13.2004 2.99121 12.9571 3.23058L12.9571 3.23059L6.46086 9.62211C5.93306 10.1414 5.49645 10.5709 5.21589 10.9429C4.92759 11.3252 4.71268 11.7646 4.84602 12.2705C4.97936 12.7763 5.38297 13.0527 5.82225 13.2432C6.24972 13.4286 6.84134 13.5871 7.55652 13.7787Z" fill="black"/>
</svg>
