<svg width="24" height="24" viewBox="0 0 24 24" fill="none" xmlns="http://www.w3.org/2000/svg">
<path fill-rule="evenodd" clip-rule="evenodd" d="M12 3.70001C11.7083 3.70001 11.4285 3.8159 11.2222 4.02219C11.0159 4.22848 10.9 4.50827 10.9 4.80001C10.9 5.09175 11.0159 5.37154 11.2222 5.57783C11.4285 5.78412 11.7083 5.90001 12 5.90001C12.2918 5.90001 12.5716 5.78412 12.7778 5.57783C12.9841 5.37154 13.1 5.09175 13.1 4.80001C13.1 4.50827 12.9841 4.22848 12.7778 4.02219C12.5716 3.8159 12.2918 3.70001 12 3.70001ZM10.5151 3.31509C10.9089 2.92126 11.4431 2.70001 12 2.70001C12.557 2.70001 13.0911 2.92126 13.4849 3.31509C13.8788 3.70891 14.1 4.24306 14.1 4.80001C14.1 5.35697 13.8788 5.89111 13.4849 6.28494C13.0911 6.67876 12.557 6.90001 12 6.90001C11.4431 6.90001 10.9089 6.67876 10.5151 6.28494C10.1213 5.89111 9.90002 5.35697 9.90002 4.80001C9.90002 4.24306 10.1213 3.70891 10.5151 3.31509ZM10.5151 10.5151C10.9089 10.1212 11.4431 9.89999 12 9.89999C12.557 9.89999 13.0911 10.1212 13.4849 10.5151C13.8788 10.9089 14.1 11.443 14.1 12C14.1 12.5569 13.8788 13.0911 13.4849 13.4849C13.0911 13.8787 12.557 14.1 12 14.1C11.4431 14.1 10.9089 13.8787 10.5151 13.4849C10.1213 13.0911 9.90002 12.5569 9.90002 12C9.90002 11.443 10.1213 10.9089 10.5151 10.5151ZM12 10.9C11.7083 10.9 11.4285 11.0159 11.2222 11.2222C11.0159 11.4285 10.9 11.7083 10.9 12C10.9 12.2917 11.0159 12.5715 11.2222 12.7778C11.4285 12.9841 11.7083 13.1 12 13.1C12.2918 13.1 12.5716 12.9841 12.7778 12.7778C12.9841 12.5715 13.1 12.2917 13.1 12C13.1 11.7083 12.9841 11.4285 12.7778 11.2222C12.5716 11.0159 12.2918 10.9 12 10.9ZM11.2222 18.4222C11.4285 18.2159 11.7083 18.1 12 18.1C12.2918 18.1 12.5716 18.2159 12.7778 18.4222C12.9841 18.6285 13.1 18.9083 13.1 19.2C13.1 19.4917 12.9841 19.7715 12.7778 19.9778C12.5716 20.1841 12.2918 20.3 12 20.3C11.7083 20.3 11.4285 20.1841 11.2222 19.9778C11.0159 19.7715 10.9 19.4917 10.9 19.2C10.9 18.9083 11.0159 18.6285 11.2222 18.4222ZM12 17.1C11.4431 17.1 10.9089 17.3213 10.5151 17.7151C10.1213 18.1089 9.90002 18.6431 9.90002 19.2C9.90002 19.757 10.1213 20.2911 10.5151 20.6849C10.9089 21.0788 11.4431 21.3 12 21.3C12.557 21.3 13.0911 21.0788 13.4849 20.6849C13.8788 20.2911 14.1 19.757 14.1 19.2C14.1 18.6431 13.8788 18.1089 13.4849 17.7151C13.0911 17.3213 12.557 17.1 12 17.1Z" fill="black"/>
</svg>
