<svg width="24" height="24" viewBox="0 0 24 24" fill="none" xmlns="http://www.w3.org/2000/svg">
<path fill-rule="evenodd" clip-rule="evenodd" d="M17.6464 9.51945C17.8417 9.71471 18.1583 9.71471 18.3536 9.51945C18.5488 9.32419 18.5488 9.0076 18.3536 8.81234L12.3536 2.81234C12.2598 2.71857 12.1326 2.66589 12 2.66589C11.8674 2.66589 11.7402 2.71857 11.6464 2.81234L5.64645 8.81234C5.45118 9.0076 5.45118 9.32419 5.64645 9.51945C5.84171 9.71471 6.15829 9.71471 6.35355 9.51945L11.5 4.373V16.2298C11.5 16.5059 11.7239 16.7298 12 16.7298C12.2761 16.7298 12.5 16.5059 12.5 16.2298V4.373L17.6464 9.51945ZM3.5 16.7269C3.5 16.4507 3.27614 16.2269 3 16.2269C2.72386 16.2269 2.5 16.4507 2.5 16.7269V17.0805V17.0805C2.5 17.762 2.49999 18.304 2.53572 18.7413C2.57231 19.1891 2.64884 19.5709 2.82698 19.9205C3.1146 20.485 3.57354 20.944 4.13803 21.2316C4.48765 21.4097 4.86949 21.4863 5.31729 21.5229C5.75458 21.5586 6.29658 21.5586 6.97809 21.5586H6.97813H17.0219H17.0219C17.7034 21.5586 18.2454 21.5586 18.6827 21.5229C19.1305 21.4863 19.5123 21.4097 19.862 21.2316C20.4265 20.944 20.8854 20.485 21.173 19.9205C21.3512 19.5709 21.4277 19.1891 21.4643 18.7413C21.5 18.304 21.5 17.762 21.5 17.0805V17.0805V16.7269C21.5 16.4507 21.2761 16.2269 21 16.2269C20.7239 16.2269 20.5 16.4507 20.5 16.7269V17.0586C20.5 17.7669 20.4996 18.2681 20.4676 18.6599C20.4361 19.0458 20.3764 19.2814 20.282 19.4666C20.0903 19.8429 19.7843 20.1488 19.408 20.3406C19.2228 20.4349 18.9872 20.4946 18.6013 20.5262C18.2095 20.5582 17.7083 20.5586 17 20.5586H7C6.29168 20.5586 5.79052 20.5582 5.39872 20.5262C5.01276 20.4946 4.77717 20.4349 4.59202 20.3406C4.2157 20.1488 3.90973 19.8429 3.71799 19.4666C3.62365 19.2814 3.56393 19.0458 3.5324 18.6599C3.50039 18.2681 3.5 17.7669 3.5 17.0586V16.7269Z" fill="#222222"/>
</svg>
