<svg width="24" height="24" viewBox="0 0 24 24" fill="none" xmlns="http://www.w3.org/2000/svg">
<path fill-rule="evenodd" clip-rule="evenodd" d="M10 3.5C7.51472 3.5 5.5 5.51472 5.5 8C5.5 10.4853 7.51472 12.5 10 12.5C12.4853 12.5 14.5 10.4853 14.5 8C14.5 5.51472 12.4853 3.5 10 3.5ZM8.34498 13C5.80799 13 3.09211 14.1578 2.36675 16.8163C2.22928 17.3202 2.11916 17.8666 2.05667 18.4481C1.96209 19.3284 2.68733 20 3.49998 20H16.5C17.3126 20 18.0379 19.3284 17.9433 18.4481C17.8808 17.8666 17.7707 17.3202 17.6332 16.8163C16.9079 14.1578 14.192 13 11.655 13H8.34498ZM21.5756 7.25612C21.7708 7.45139 21.7708 7.76797 21.5756 7.96323L19.8078 9.731L21.5756 11.4988C21.7708 11.694 21.7708 12.0106 21.5756 12.2059C21.3803 12.4011 21.0637 12.4011 20.8685 12.2059L19.1007 10.4381L17.3329 12.2059C17.1377 12.4011 16.8211 12.4011 16.6258 12.2059C16.4306 12.0106 16.4306 11.694 16.6258 11.4988L18.3936 9.731L16.6258 7.96323C16.4306 7.76797 16.4306 7.45139 16.6258 7.25612C16.8211 7.06086 17.1377 7.06086 17.3329 7.25612L19.1007 9.02389L20.8685 7.25612C21.0637 7.06086 21.3803 7.06086 21.5756 7.25612Z" fill="black"/>
</svg>
