<svg fill="none" height="24" viewBox="0 0 24 24" width="24"
    xmlns="http://www.w3.org/2000/svg">
    <path clip-rule="evenodd"
        d="M17.2929 9.873C17.6834 10.2635 18.3166 10.2635 18.7071 9.873C19.0976 9.48248 19.0976 8.84931 18.7071 8.45879L12.7071 2.45879C12.5196 2.27125 12.2652 2.16589 12 2.16589C11.7348 2.16589 11.4804 2.27125 11.2929 2.45879L5.29289 8.45879C4.90237 8.84931 4.90237 9.48248 5.29289 9.873C5.68342 10.2635 6.31658 10.2635 6.70711 9.873L11 5.58011V16.2298C11 16.7821 11.4477 17.2298 12 17.2298C12.5523 17.2298 13 16.7821 13 16.2298V5.58011L17.2929 9.873ZM4 16.7269C4 16.1746 3.55229 15.7269 3 15.7269C2.44772 15.7269 2 16.1746 2 16.7269V17.0586V17.0987V17.0988C1.99999 17.7646 1.99997 18.3241 2.03738 18.782C2.0765 19.2607 2.16144 19.7157 2.38148 20.1475C2.71704 20.8061 3.25247 21.3415 3.91103 21.6771C4.34289 21.8971 4.79785 21.9821 5.27657 22.0212C5.73444 22.0586 6.29395 22.0586 6.95981 22.0586H6.95984H17.0402H17.0402C17.706 22.0586 18.2656 22.0586 18.7234 22.0212C19.2022 21.9821 19.6571 21.8971 20.089 21.6771C20.7475 21.3415 21.283 20.8061 21.6185 20.1475C21.8386 19.7157 21.9235 19.2607 21.9626 18.782C22 18.3241 22 17.7646 22 17.0988V17.0988V16.7269C22 16.1746 21.5523 15.7269 21 15.7269C20.4477 15.7269 20 16.1746 20 16.7269V17.0586C20 17.7751 19.9992 18.2524 19.9693 18.6191C19.9403 18.9742 19.889 19.1366 19.8365 19.2396C19.6927 19.5218 19.4632 19.7513 19.181 19.8951C19.0781 19.9475 18.9156 19.9988 18.5606 20.0278C18.1939 20.0578 17.7166 20.0586 17 20.0586H7C6.28343 20.0586 5.80615 20.0578 5.43944 20.0278C5.0844 19.9988 4.92194 19.9475 4.81902 19.8951C4.53677 19.7513 4.3073 19.5218 4.16349 19.2396C4.11105 19.1366 4.05975 18.9742 4.03074 18.6191C4.00078 18.2524 4 17.7751 4 17.0586V16.7269Z"
        fill="#222222" fill-rule="evenodd" />
</svg>
