<svg width="24" height="24" viewBox="0 0 24 24" fill="none" xmlns="http://www.w3.org/2000/svg">
<path fill-rule="evenodd" clip-rule="evenodd" d="M12 3.5C9.51472 3.5 7.5 5.51472 7.5 8C7.5 10.4853 9.51472 12.5 12 12.5C14.4853 12.5 16.5 10.4853 16.5 8C16.5 5.51472 14.4853 3.5 12 3.5ZM10.345 13C7.80799 13 5.09211 14.1578 4.36675 16.8163C4.22928 17.3202 4.11916 17.8666 4.05667 18.4481C3.96209 19.3284 4.68733 20 5.49998 20H18.5C19.3126 20 20.0379 19.3284 19.9433 18.4481C19.8808 17.8666 19.7707 17.3202 19.6332 16.8163C18.9079 14.1578 16.192 13 13.655 13H10.345Z" fill="black"/>
</svg>
