<svg width="24" height="24" viewBox="0 0 24 24" fill="none" xmlns="http://www.w3.org/2000/svg">
<path fill-rule="evenodd" clip-rule="evenodd" d="M6.5 8C6.5 6.067 8.067 4.5 10 4.5C11.933 4.5 13.5 6.067 13.5 8C13.5 9.933 11.933 11.5 10 11.5C8.067 11.5 6.5 9.933 6.5 8ZM10 3.5C7.51472 3.5 5.5 5.51472 5.5 8C5.5 10.4853 7.51472 12.5 10 12.5C12.4853 12.5 14.5 10.4853 14.5 8C14.5 5.51472 12.4853 3.5 10 3.5ZM8.34498 13C5.80799 13 3.09211 14.1578 2.36675 16.8163C2.22928 17.3202 2.11916 17.8666 2.05667 18.4481C1.96209 19.3284 2.68733 20 3.49998 20H16.5C17.3126 20 18.0379 19.3284 17.9433 18.4481C17.8808 17.8666 17.7707 17.3202 17.6332 16.8163C16.9079 14.1578 14.192 13 11.655 13H8.34498ZM3.33148 17.0796C3.88552 15.0489 6.02144 14 8.34498 14H11.655C13.9785 14 16.1144 15.0489 16.6685 17.0796C16.7934 17.5372 16.8928 18.0313 16.949 18.555C16.9724 18.773 16.7919 19 16.5 19H3.49998C3.20807 19 3.02752 18.773 3.05095 18.555C3.10722 18.0313 3.2066 17.5372 3.33148 17.0796ZM21.5755 7.25608C21.7707 7.45134 21.7707 7.76792 21.5755 7.96319L19.8077 9.73093L21.5755 11.4987C21.7708 11.694 21.7708 12.0106 21.5755 12.2058C21.3803 12.4011 21.0637 12.4011 20.8684 12.2058L19.1006 10.438L17.3328 12.2058C17.1376 12.4011 16.821 12.4011 16.6257 12.2058C16.4305 12.0106 16.4305 11.694 16.6257 11.4987L18.3935 9.73093L16.6258 7.96317C16.4305 7.76791 16.4305 7.45133 16.6258 7.25607C16.821 7.0608 17.1376 7.0608 17.3329 7.25607L19.1006 9.02382L20.8684 7.25608C21.0636 7.06082 21.3802 7.06082 21.5755 7.25608Z" fill="black"/>
</svg>
