<svg width="24" height="24" viewBox="0 0 24 24" fill="none" xmlns="http://www.w3.org/2000/svg">
<path fill-rule="evenodd" clip-rule="evenodd" d="M2.90004 12C2.90004 6.97423 6.97425 2.90002 12 2.90002C17.0258 2.90002 21.1 6.97423 21.1 12C21.1 17.0258 17.0258 21.1 12 21.1C10.2643 21.1 8.64085 20.6136 7.26005 19.7695L3.56626 21.0716C3.38473 21.1356 3.18259 21.0897 3.04649 20.9536C2.91038 20.8175 2.86449 20.6153 2.92848 20.4338L4.23055 16.74C3.38646 15.3592 2.90004 13.7357 2.90004 12ZM16.6418 14.5258L15.4235 13.3075C15.0669 12.9509 14.4887 12.9509 14.1321 13.3075L13.8176 13.6219C13.7275 13.7121 13.5898 13.7344 13.4757 13.6774C12.1572 13.0182 11.0881 11.949 10.4288 10.6305C10.3718 10.5165 10.3942 10.3788 10.4843 10.2886L10.7987 9.97417C11.1554 9.61756 11.1554 9.03937 10.7987 8.68275L9.58044 7.46444C9.38261 7.26661 9.06186 7.26661 8.86403 7.46444C7.79446 8.53401 7.67412 10.2273 8.58168 11.4374L9.04323 12.0528C9.89896 13.1937 10.9125 14.2073 12.0535 15.063L12.6689 15.5246C13.879 16.4321 15.5722 16.3118 16.6418 15.2422C16.8396 15.0444 16.8396 14.7236 16.6418 14.5258Z" fill="black"/>
</svg>
