<svg width="24" height="24" viewBox="0 0 24 24" fill="none" xmlns="http://www.w3.org/2000/svg">
<path fill-rule="evenodd" clip-rule="evenodd" d="M4.034 5.77342C4.034 6.72818 4.80798 7.50217 5.76274 7.50217L5.77029 7.50215L5.77695 7.50217L17.6964 7.50217V5.54468C17.6964 5.05914 17.6953 4.74528 17.6642 4.51403C17.635 4.29716 17.588 4.22919 17.5499 4.19113C17.5119 4.15306 17.4439 4.10599 17.227 4.07683C16.9958 4.04574 16.6819 4.04468 16.1964 4.04468L5.7769 4.04468L5.77026 4.0447L5.76274 4.04468C4.80798 4.04468 4.034 4.81867 4.034 5.77342ZM5.76883 3.04469L5.76274 3.04468C4.2557 3.04468 3.034 4.26638 3.034 5.77342L3.03406 5.79156H3.034V16.5026V16.5026C3.03398 17.4143 3.03397 18.1492 3.11168 18.7271C3.19236 19.3272 3.36495 19.8325 3.76623 20.2337C4.16751 20.635 4.67276 20.8076 5.27283 20.8883C5.8508 20.966 6.58566 20.966 7.49736 20.966H7.49739H7.49741H18.466H18.4989H18.499C18.9422 20.966 19.3241 20.966 19.6299 20.9249C19.9577 20.8808 20.2718 20.7815 20.5267 20.5266C20.7815 20.2718 20.8809 19.9576 20.9249 19.6299C20.966 19.324 20.966 18.9422 20.966 18.4989V18.4989V18.466V17.0795C20.966 17.0786 20.966 17.0777 20.966 17.0768V12.6193C20.966 12.6183 20.966 12.6174 20.966 12.6165V10.0163V10.0162C20.966 9.57298 20.966 9.19109 20.9249 8.88527C20.8809 8.55751 20.7815 8.24334 20.5267 7.98851C20.2718 7.73368 19.9577 7.6343 19.6299 7.59024C19.3705 7.55536 19.0563 7.55008 18.6964 7.5493L18.6964 5.51178C18.6964 5.06853 18.6964 4.68662 18.6553 4.38078C18.6112 4.05303 18.5118 3.73885 18.257 3.48402C18.0022 3.22919 17.688 3.12982 17.3603 3.08575C17.0544 3.04463 16.6725 3.04465 16.2293 3.04468H16.2293L5.77241 3.04468L5.76883 3.04469ZM19.966 12.1193V10.0492C19.966 9.56363 19.9649 9.24977 19.9338 9.01852C19.9047 8.80165 19.8576 8.73368 19.8196 8.69561C19.7815 8.65755 19.7135 8.61048 19.4967 8.58132C19.2654 8.55023 18.9515 8.54917 18.466 8.54917H5.7916C5.12366 8.54917 4.51118 8.31169 4.034 7.91656V16.466C4.034 17.4229 4.03506 18.0903 4.10276 18.5939C4.16853 19.0831 4.28883 19.3421 4.47334 19.5266C4.65784 19.7111 4.91689 19.8314 5.40608 19.8972C5.90964 19.9649 6.57705 19.966 7.534 19.966H18.466C18.9515 19.966 19.2654 19.9649 19.4967 19.9338C19.7135 19.9047 19.7815 19.8576 19.8196 19.8195C19.8576 19.7815 19.9047 19.7135 19.9338 19.4966C19.9649 19.2654 19.966 18.9515 19.966 18.466V17.5768H16.0117L16.0081 17.5767L16.0021 17.5768C14.495 17.5768 13.2733 16.3551 13.2733 14.848C13.2733 13.341 14.495 12.1193 16.0021 12.1193L16.0081 12.1193L16.0117 12.1193H19.966ZM19.966 16.5768V13.1193H16.0162L16.0096 13.1193L16.0021 13.1193C15.0473 13.1193 14.2733 13.8933 14.2733 14.848C14.2733 15.8028 15.0473 16.5768 16.0021 16.5768L16.0096 16.5767L16.0163 16.5768H19.966Z" fill="black"/>
</svg>
