<svg width="24" height="24" viewBox="0 0 24 24" fill="none" xmlns="http://www.w3.org/2000/svg">
<path fill-rule="evenodd" clip-rule="evenodd" d="M3.90004 12C3.90004 7.52652 7.52653 3.90002 12 3.90002C16.4735 3.90002 20.1 7.52652 20.1 12C20.1 16.4735 16.4735 20.1 12 20.1C10.3745 20.1 8.86211 19.6217 7.59427 18.7982C7.46411 18.7137 7.30207 18.6944 7.1557 18.746L4.21882 19.7812L5.25408 16.8444C5.30567 16.698 5.28637 16.536 5.20183 16.4058C4.37838 15.138 3.90004 13.6256 3.90004 12ZM12 2.90002C6.97425 2.90002 2.90004 6.97423 2.90004 12C2.90004 13.7357 3.38646 15.3592 4.23055 16.74L2.92848 20.4338C2.86449 20.6153 2.91038 20.8175 3.04649 20.9536C3.18259 21.0897 3.38473 21.1356 3.56626 21.0716L7.26005 19.7695C8.64085 20.6136 10.2643 21.1 12 21.1C17.0258 21.1 21.1 17.0258 21.1 12C21.1 6.97423 17.0258 2.90002 12 2.90002ZM9.21759 7.7118C9.21881 7.71058 9.21935 7.71037 9.21949 7.71032L9.21951 7.71031C9.21994 7.71014 9.22088 7.70987 9.22224 7.70987C9.22359 7.70987 9.22454 7.71014 9.22497 7.71031L9.22499 7.71032C9.22512 7.71037 9.22567 7.71058 9.22689 7.7118L10.4452 8.9301C10.6066 9.09146 10.6066 9.35306 10.4452 9.51442L10.1308 9.82885C9.88843 10.0712 9.82835 10.4414 9.98162 10.7479C10.6893 12.1632 11.8368 13.3108 13.2521 14.0184C13.5586 14.1717 13.9289 14.1116 14.1712 13.8693L14.4856 13.5549C14.647 13.3935 14.9086 13.3935 15.0699 13.5549L16.2883 14.7732C16.2895 14.7744 16.2897 14.7749 16.2897 14.7751L16.2897 14.7751C16.2899 14.7755 16.2902 14.7765 16.2902 14.7778C16.2902 14.7792 16.2899 14.7801 16.2897 14.7805L16.2895 14.7811L16.2883 14.7825C15.3946 15.6761 13.9799 15.7766 12.9689 15.0184L12.3535 14.5568C11.2504 13.7295 10.2705 12.7496 9.44324 11.6466L8.98169 11.0312C8.22342 10.0201 8.32397 8.60542 9.21759 7.7118ZM9.934 7.00469C9.5409 6.6116 8.90357 6.6116 8.51048 7.00469C7.26497 8.2502 7.12484 10.222 8.18169 11.6312L8.64324 12.2466C9.52739 13.4254 10.5746 14.4727 11.7535 15.3568L12.3689 15.8184C13.778 16.8752 15.7499 16.7351 16.9954 15.4896C17.3885 15.0965 17.3885 14.4592 16.9954 14.0661L15.7771 12.8477C15.2252 12.2959 14.3304 12.2959 13.7785 12.8478L13.5692 13.0571C12.4503 12.4648 11.5352 11.5497 10.943 10.4308L11.1523 10.2215C11.7042 9.66965 11.7042 8.77487 11.1523 8.223L9.934 7.00469Z" fill="black"/>
</svg>
