<svg width="24" height="24" viewBox="0 0 24 24" fill="none" xmlns="http://www.w3.org/2000/svg">
<path fill-rule="evenodd" clip-rule="evenodd" d="M4.034 5.77343C4.034 6.72819 4.80798 7.50217 5.76274 7.50217L5.77029 7.50215L5.77695 7.50217L17.6964 7.50217V5.54468C17.6964 5.05914 17.6953 4.74529 17.6642 4.51403C17.635 4.29716 17.588 4.22919 17.5499 4.19113C17.5119 4.15307 17.4439 4.10599 17.227 4.07684C16.9958 4.04574 16.6819 4.04468 16.1964 4.04468L5.7769 4.04468L5.77026 4.0447L5.76274 4.04468C4.80798 4.04468 4.034 4.81867 4.034 5.77343ZM5.76883 3.0447L5.76274 3.04468C4.2557 3.04468 3.034 4.26638 3.034 5.77343L3.03406 5.79157H3.034V16.5026V16.5026V16.5026C3.03398 17.4143 3.03397 18.1492 3.11168 18.7271C3.19236 19.3272 3.36495 19.8325 3.76623 20.2337C4.16751 20.635 4.67276 20.8076 5.27283 20.8883C5.8508 20.966 6.58566 20.966 7.49736 20.966H7.49739H7.49741H18.466H18.4989H18.499C18.9422 20.966 19.3241 20.966 19.6299 20.9249C19.9577 20.8808 20.2718 20.7815 20.5267 20.5266C20.7815 20.2718 20.8809 19.9576 20.9249 19.6299C20.966 19.3241 20.966 18.9422 20.966 18.4989V18.4989V18.466V17.0795L20.966 17.0767V12.6193L20.966 12.6165V10.0163V10.0162C20.966 9.57299 20.966 9.1911 20.9249 8.88528C20.8809 8.55752 20.7815 8.24335 20.5267 7.98851C20.2718 7.73368 19.9577 7.63431 19.6299 7.59024C19.3705 7.55536 19.0563 7.55009 18.6964 7.5493L18.6964 5.51178C18.6964 5.06853 18.6964 4.68662 18.6553 4.38079C18.6112 4.05303 18.5118 3.73885 18.257 3.48402C18.0022 3.22919 17.688 3.12982 17.3603 3.08575C17.0544 3.04464 16.6726 3.04466 16.2293 3.04468H16.2293H16.2293L5.77241 3.04468L5.76883 3.0447ZM16.0021 12.6192L16.0117 12.6193V12.6192H20.466V17.0767H16.0117V17.0767L16.0021 17.0767C14.7712 17.0767 13.7733 16.0789 13.7733 14.848C13.7733 13.6171 14.7712 12.6192 16.0021 12.6192Z" fill="black"/>
</svg>
