<svg width="24" height="24" viewBox="0 0 24 24" fill="none" xmlns="http://www.w3.org/2000/svg">
<circle cx="12" cy="12" r="10" fill="#4399D4"/>
<path d="M15.4258 8.27332C15.597 8.10008 15.8296 8.00182 16.0729 8.00003C16.3161 7.99823 16.5501 8.09304 16.7238 8.26374C16.8976 8.43443 16.9968 8.66714 16.9999 8.91099C17.003 9.15484 16.9097 9.39002 16.7404 9.56511L11.8419 15.7052C11.7577 15.796 11.6562 15.869 11.5433 15.9196C11.4304 15.9702 11.3085 15.9975 11.1849 15.9998C11.0612 16.0022 10.9384 15.9795 10.8237 15.9332C10.709 15.8869 10.6048 15.8179 10.5173 15.7303L7.26946 12.4751C7.09687 12.302 6.99994 12.0672 7 11.8224C7.00006 11.5776 7.0971 11.3429 7.26977 11.1698C7.44244 10.9968 7.6766 10.8996 7.92074 10.8997C8.16488 10.8997 8.39899 10.997 8.57158 11.1701L11.1402 13.7462L15.4015 8.30214C15.4092 8.29223 15.4176 8.28282 15.4265 8.27395L15.4258 8.27332Z" fill="white"/>
</svg>
