<svg fill="none" height="24" viewBox="0 0 24 24" width="24" xmlns="http://www.w3.org/2000/svg"><path clip-rule="evenodd" d="m20.4564 8.57871c-.5764.15712-.877.78693-.724 1.36446.7063 2.66513.0144 5.62373-2.0755 7.71373-3.1242 3.1241-8.18956 3.1241-11.31375 0-3.1242-3.1242-3.1242-8.18956 0-11.31375 2.8852-2.88521 7.42595-3.10592 10.56445-.66212.4357.33931 1.0658.34553 1.4564-.04499.3905-.39053.3933-1.02832-.0339-1.37841-3.928-3.2194-9.73423-2.99563-13.40117.6713-3.90524 3.90525-3.90524 10.23687 0 14.14217 3.90525 3.9052 10.23687 3.9052 14.14217 0 2.6766-2.6767 3.5187-6.4932 2.5262-9.88712-.1415-.48365-.6547-.73779-1.1409-.60527zm-10.4564-1.57871c0-.55228.4477-1 1-1s1 .44772 1 1v5h4c.5523 0 1 .4477 1 1s-.4477 1-1 1h-5c-.5523 0-1-.4477-1-1z" fill="#040404" fill-rule="evenodd"/></svg>